<svg xmlns="http://www.w3.org/2000/svg" width="14.233" height="8.407" viewBox="0 0 14.233 8.407">
  <g id="down-arrow" transform="translate(0 -100.698)">
    <g id="Grupo_3" data-name="Grupo 3" transform="translate(0 100.698)">
      <path id="Trazado_1" data-name="Trazado 1" d="M14.006,101.4l-.466-.469a.78.78,0,0,0-1.1,0L7.12,106.25,1.8,100.925a.781.781,0,0,0-1.1,0l-.466.467a.779.779,0,0,0,0,1.1l6.34,6.362a.8.8,0,0,0,.552.25h0a.8.8,0,0,0,.55-.25l6.334-6.345a.786.786,0,0,0,.228-.556A.779.779,0,0,0,14.006,101.4Z" transform="translate(0 -100.698)" fill="#3f3f3f"/>
    </g>
  </g>
</svg>
