<svg xmlns="http://www.w3.org/2000/svg" width="20.136" height="20.136" viewBox="0 0 20.136 20.136"><defs><style>.a{fill:#3f9f82;}</style></defs><path class="a" d="M211,204.493a6.529,6.529,0,0,0-3.58-5.814,8.878,8.878,0,0,1-8.742,8.742,6.511,6.511,0,0,0,9.125,2.676l3.169.876-.876-3.169A6.486,6.486,0,0,0,211,204.493Zm0,0" transform="translate(-190.866 -190.866)"/><path class="a" d="M15.377,7.689A7.689,7.689,0,1,0,1.066,11.6L.028,15.349l3.752-1.038a7.69,7.69,0,0,0,11.6-6.623ZM6.509,5.9H5.329A2.36,2.36,0,1,1,9.281,7.641l-1,.917v.92H7.1V8.039L8.485,6.77A1.168,1.168,0,0,0,8.869,5.9a1.18,1.18,0,0,0-2.36,0Zm.59,4.759h1.18v1.18H7.1Zm0,0"/></svg>