<svg xmlns="http://www.w3.org/2000/svg" xmlns:xlink="http://www.w3.org/1999/xlink" width="54" height="54" viewBox="0 0 54 54">
  <defs>
    <linearGradient id="linear-gradient" x1="0.181" y1="0.84" x2="0.789" y2="0.104" gradientUnits="objectBoundingBox">
      <stop offset="0" stop-color="#7c1d7c"/>
      <stop offset="0.463" stop-color="#90227c"/>
      <stop offset="0.724" stop-color="#9e267c"/>
      <stop offset="1" stop-color="#9e267c"/>
    </linearGradient>
  </defs>
  <g id="Grupo_2500" data-name="Grupo 2500" transform="translate(-487.445 -623.445)">
    <circle id="Elipse_51" data-name="Elipse 51" cx="27" cy="27" r="27" transform="translate(487.445 623.445)" fill="url(#linear-gradient)"/>
    <g id="camera" transform="translate(497.673 637.485)">
      <g id="Grupo_2499" data-name="Grupo 2499" transform="translate(0 0)">
        <g id="Grupo_2498" data-name="Grupo 2498" transform="translate(0 0)">
          <path id="Trazado_7151" data-name="Trazado 7151" d="M31.837,48.838a3.541,3.541,0,0,0-2.6-1.1h-5.2V47.68a2.811,2.811,0,0,0-.845-2.035,2.864,2.864,0,0,0-2.035-.845H11.771a2.886,2.886,0,0,0-2.911,2.88v.063H3.694a3.541,3.541,0,0,0-2.6,1.1,3.722,3.722,0,0,0-1.1,2.6v15.59a3.541,3.541,0,0,0,1.1,2.6,3.722,3.722,0,0,0,2.6,1.1H29.238a3.541,3.541,0,0,0,2.6-1.1,3.722,3.722,0,0,0,1.1-2.6V51.437A3.541,3.541,0,0,0,31.837,48.838ZM31.3,67.026h-.031a2.031,2.031,0,0,1-2.035,2.035H3.694a2.031,2.031,0,0,1-2.035-2.035V51.437A2.031,2.031,0,0,1,3.694,49.4H9.736a.842.842,0,0,0,.845-.845v-.908A1.178,1.178,0,0,1,11.8,46.428h9.36a1.178,1.178,0,0,1,1.221,1.221v.908a.842.842,0,0,0,.845.845H29.27A2.031,2.031,0,0,1,31.3,51.437Z" transform="translate(0 -44.8)" fill="#fff"/>
          <path id="Trazado_7152" data-name="Trazado 7152" d="M119.7,130.8a7.7,7.7,0,1,0,5.447,2.254A7.715,7.715,0,0,0,119.7,130.8Zm4.257,11.99a6.046,6.046,0,0,1-8.515,0,5.984,5.984,0,0,1-1.753-4.257,6.118,6.118,0,0,1,1.753-4.257,5.984,5.984,0,0,1,4.257-1.753,6.118,6.118,0,0,1,4.257,1.753,5.984,5.984,0,0,1,1.753,4.257A5.858,5.858,0,0,1,123.958,142.79Z" transform="translate(-103.235 -124.07)" fill="#fff"/>
          <circle id="Elipse_75" data-name="Elipse 75" cx="1.534" cy="1.534" r="1.534" transform="translate(26.077 6.699)" fill="#fff"/>
        </g>
      </g>
    </g>
  </g>
</svg>
