<svg xmlns="http://www.w3.org/2000/svg" width="25.912" height="25.912" viewBox="0 0 25.912 25.912"><defs><style>.a{fill:#9e267c;}</style></defs><g transform="translate(-1142.182 -530.163)"><path class="a" d="M1382.491,767.947h2.024v2.024a2.024,2.024,0,0,1-2.024,2.024h-1.974v-2.024h1.974Z" transform="translate(-216.421 -215.921)"/><rect class="a" width="2.024" height="2.024" transform="translate(1155.998 554.051)"/><rect class="a" width="2.024" height="2.024" transform="translate(1160.047 554.051)"/><path class="a" d="M1384.515,619.154v2.024h-2.024v-2.024h-1.974v-2.024h1.974A2.024,2.024,0,0,1,1384.515,619.154Z" transform="translate(-216.421 -78.97)"/><rect class="a" width="2.024" height="2.024" transform="translate(1166.069 544.131)"/><rect class="a" width="2.024" height="2.024" transform="translate(1166.069 548.079)"/><path class="a" d="M1230.071,769.971h1.974V772h-1.974a2.024,2.024,0,0,1-2.024-2.024h0v-2.024h2.024Z" transform="translate(-77.97 -215.921)"/><path class="a" d="M1160.1,538.159V533.2a3.04,3.04,0,0,0-3.037-3.037h-11.842a3.04,3.04,0,0,0-3.037,3.037v11.842a3.04,3.04,0,0,0,3.037,3.037h4.858V550.1h2.024v-2.024h4.959a3.04,3.04,0,0,0,3.037-3.037v-4.858h1.974v-2.024Zm-4.1,5.871h-6.073v-2.024h2.617l-3.612-3.612,1.432-1.431,3.612,3.611v-2.617H1156Z" transform="translate(0)"/></g></svg>