<svg xmlns="http://www.w3.org/2000/svg" width="21.713" height="21.713" viewBox="0 0 21.713 21.713">
  <g id="wallet" transform="translate(-0.003 0)">
    <g id="Grupo_500" data-name="Grupo 500" transform="translate(0.003 0)">
      <g id="Grupo_499" data-name="Grupo 499" transform="translate(0 0)">
        <path id="Trazado_485" data-name="Trazado 485" d="M20.729,10.948V7.9a1.97,1.97,0,0,0-1.817-1.958L16.078.988A1.953,1.953,0,0,0,13.4.266L3.683,5.922H1.977A1.976,1.976,0,0,0,0,7.9V19.74a1.976,1.976,0,0,0,1.974,1.974H18.755a1.976,1.976,0,0,0,1.974-1.974V16.688a1.478,1.478,0,0,0,.987-1.39V12.337A1.478,1.478,0,0,0,20.729,10.948ZM17.765,5.922h-4.3L16.69,4.044ZM16.2,3.188,11.5,5.922H9.554l6.158-3.585ZM13.9,1.119a.954.954,0,0,1,.733-.1.968.968,0,0,1,.593.458v0L7.593,5.922H5.645ZM19.742,19.74a.988.988,0,0,1-.987.987H1.977A.988.988,0,0,1,.99,19.74V7.9a.988.988,0,0,1,.987-.987H18.755a.988.988,0,0,1,.987.987v2.961H16.781a2.961,2.961,0,0,0,0,5.922h2.961V19.74Zm.987-4.441a.494.494,0,0,1-.493.493H16.781a1.974,1.974,0,0,1,0-3.948h3.454a.494.494,0,0,1,.493.493Z" transform="translate(-0.003 0)" fill="#3f3f3f"/>
        <path id="Trazado_486" data-name="Trazado 486" d="M342.324,277.341a.987.987,0,1,0,.987.987A.988.988,0,0,0,342.324,277.341Z" transform="translate(-325.546 -264.51)" fill="#3f3f3f"/>
      </g>
    </g>
  </g>
</svg>
