<svg id="add" xmlns="http://www.w3.org/2000/svg" width="38.424" height="38.423" viewBox="0 0 38.424 38.423">
  <g id="Grupo_2586" data-name="Grupo 2586">
    <g id="Grupo_2585" data-name="Grupo 2585">
      <path id="Trazado_7225" data-name="Trazado 7225" d="M16.256,0H1.478A1.478,1.478,0,0,0,0,1.478V16.256a1.478,1.478,0,0,0,1.478,1.478H16.256a1.478,1.478,0,0,0,1.478-1.478V1.478A1.478,1.478,0,0,0,16.256,0ZM14.778,14.778H2.956V2.956H14.778V14.778Z" fill="#9e267c"/>
    </g>
  </g>
  <g id="Grupo_2588" data-name="Grupo 2588" transform="translate(20.689)">
    <g id="Grupo_2587" data-name="Grupo 2587">
      <path id="Trazado_7226" data-name="Trazado 7226" d="M255.189,0H240.411a1.478,1.478,0,0,0-1.478,1.478V16.256a1.478,1.478,0,0,0,1.478,1.478h14.778a1.478,1.478,0,0,0,1.478-1.478V1.478A1.478,1.478,0,0,0,255.189,0Zm-1.478,14.778H241.889V2.956h11.823Z" transform="translate(-238.933)" fill="#9e267c"/>
    </g>
  </g>
  <g id="Grupo_2590" data-name="Grupo 2590" transform="translate(0 20.689)">
    <g id="Grupo_2589" data-name="Grupo 2589">
      <path id="Trazado_7227" data-name="Trazado 7227" d="M16.256,238.933H1.478A1.478,1.478,0,0,0,0,240.411v14.778a1.478,1.478,0,0,0,1.478,1.478H16.256a1.478,1.478,0,0,0,1.478-1.478V240.411A1.478,1.478,0,0,0,16.256,238.933Zm-1.478,14.778H2.956V241.889H14.778v11.823Z" transform="translate(0 -238.933)" fill="#9e267c"/>
    </g>
  </g>
  <g id="Grupo_2592" data-name="Grupo 2592" transform="translate(20.689 20.689)">
    <g id="Grupo_2591" data-name="Grupo 2591">
      <path id="Trazado_7228" data-name="Trazado 7228" d="M255.189,246.322h-5.911v-5.911a1.478,1.478,0,1,0-2.956,0v5.911h-5.911a1.478,1.478,0,1,0,0,2.956h5.911v5.911a1.478,1.478,0,0,0,2.956,0v-5.911h5.911a1.478,1.478,0,1,0,0-2.956Z" transform="translate(-238.933 -238.933)" fill="#151a6a"/>
    </g>
  </g>
</svg>
