<svg xmlns="http://www.w3.org/2000/svg" width="49.886" height="95.572" viewBox="0 0 49.886 95.572">
  <g id="kdbIgm" transform="translate(-265.838 -144.333)">
    <g id="Grupo_3765" data-name="Grupo 3765" transform="translate(265.838 144.333)">
      <path id="Trazado_8898" data-name="Trazado 8898" d="M311.026,144.333c.373.138.754.26,1.119.418a5.2,5.2,0,0,1,3.464,4.392c.211,2.772.052,5.572.052,8.411H265.908c0-2.817-.173-5.616.054-8.383a5.288,5.288,0,0,1,3.878-4.573c.228-.082.451-.176.676-.264Z" transform="translate(-265.844 -144.333)" fill="#1acc36"/>
      <path id="Trazado_8899" data-name="Trazado 8899" d="M266.228,245.8h49.744v57.585H266.228Z" transform="translate(-266.155 -226.827)" fill="#1acc36"/>
      <path id="Trazado_8900" data-name="Trazado 8900" d="M315.683,584.8c0,2.767.109,5.473-.03,8.166a5.564,5.564,0,0,1-5.558,5.027c-3.576.038-7.153.012-10.729.012q-13.622,0-27.243,0c-3.921,0-6.28-2.35-6.283-6.25,0-2.3,0-4.593,0-6.955Zm-24.9,3.606v.008h-4.1c-.062,0-.124,0-.187,0a2.827,2.827,0,1,0,0,5.642q4.291.027,8.583,0a2.894,2.894,0,0,0,3.023-2.79,2.846,2.846,0,0,0-3.026-2.856C293.646,588.389,292.215,588.406,290.785,588.406Z" transform="translate(-265.838 -502.442)" fill="#1acc36"/>
      <path id="Trazado_8901" data-name="Trazado 8901" d="M367.485,604.058c1.431,0,2.861-.017,4.292,0a2.846,2.846,0,0,1,3.026,2.856,2.894,2.894,0,0,1-3.023,2.79q-4.291.029-8.583,0a2.827,2.827,0,1,1,0-5.642c.062,0,.124,0,.187,0h4.1Z" transform="translate(-342.538 -518.094)" fill="#fff"/>
    </g>
  </g>
</svg>
