<svg id="user" xmlns="http://www.w3.org/2000/svg" width="183.152" height="183.152" viewBox="0 0 183.152 183.152">
  <g id="Grupo_2295" data-name="Grupo 2295">
    <path id="Trazado_3669" data-name="Trazado 3669" d="M91.576,0a91.576,91.576,0,1,0,91.576,91.576A91.681,91.681,0,0,0,91.576,0Zm0,26.71A43.88,43.88,0,1,1,47.7,70.59,43.931,43.931,0,0,1,91.576,26.71Zm0,141.179a76.161,76.161,0,0,1-60.981-30.626C45.861,129.917,67.662,122.1,91.576,122.1s45.719,7.818,60.982,15.161A76.161,76.161,0,0,1,91.576,167.889Z" fill="#dedede"/>
  </g>
</svg>
