<svg xmlns="http://www.w3.org/2000/svg" width="33.741" height="29.698" viewBox="0 0 33.741 29.698">
  <g id="signature" transform="translate(-18.054 -67.392)">
    <path id="Trazado_3671" data-name="Trazado 3671" d="M115.292,44.3l-2.98,2.546-3.2,7.929a1.159,1.159,0,0,1-.726.671L92.919,60.328a1.159,1.159,0,0,1-1.454-1.454l4.885-15.468a1.159,1.159,0,0,1,.673-.726l7.9-3.18,2.567-3a1.159,1.159,0,0,1,1.7-.067l6.166,6.166a1.159,1.159,0,0,1-.067,1.7ZM95.1,55.051l7.789-7.789a1.159,1.159,0,0,1,1.639,1.639L96.742,56.69,107.167,53.4l2.8-6.942-4.625-4.625-6.949,2.8L95.1,55.051Zm13.337-16.1L107.2,40.407l4.182,4.182,1.452-1.241Z" transform="translate(-63.903 31.302)" fill="#1da8ff"/>
    <path id="Trazado_3672" data-name="Trazado 3672" d="M28,188.008H.848c-.468,0-.848.691-.848,1.544S.38,191.1.848,191.1H28c.468,0,.848-.691.848-1.544S28.472,188.008,28,188.008Z" transform="translate(18.054 -94.006)" fill="#1da8ff"/>
  </g>
</svg>
