<svg xmlns="http://www.w3.org/2000/svg" width="20.585" height="20.585" viewBox="0 0 20.585 20.585">
  <g id="Grupo_2457" data-name="Grupo 2457" transform="translate(-558.507 -87)">
    <g id="tools-and-utensils" transform="translate(558.507 87)">
      <g id="Grupo_2453" data-name="Grupo 2453" transform="translate(0)">
        <g id="Grupo_2452" data-name="Grupo 2452" transform="translate(0)">
          <path id="Trazado_7114" data-name="Trazado 7114" d="M8.7,0a8.7,8.7,0,1,0,8.7,8.7A8.705,8.705,0,0,0,8.7,0Zm0,15.87A7.174,7.174,0,1,1,15.87,8.7,7.182,7.182,0,0,1,8.7,15.87Z" transform="translate(0)" fill="#3f3f3f"/>
        </g>
      </g>
      <g id="Grupo_2455" data-name="Grupo 2455" transform="translate(13.538 13.538)">
        <g id="Grupo_2454" data-name="Grupo 2454">
          <path id="Trazado_7115" data-name="Trazado 7115" d="M343.533,342.459l-5.527-5.527a.76.76,0,1,0-1.075,1.075l5.527,5.527a.76.76,0,0,0,1.075-1.075Z" transform="translate(-336.708 -336.71)" fill="#3f3f3f"/>
        </g>
      </g>
    </g>
    <line id="Línea_34" data-name="Línea 34" x2="7.943" transform="translate(563.047 95.904)" fill="none" stroke="#3f3f3f" stroke-linecap="round" stroke-width="1"/>
  </g>
</svg>
