<svg xmlns="http://www.w3.org/2000/svg" width="80.921" height="85.134" viewBox="0 0 80.921 85.134">
  <g id="subscription" transform="translate(-1 -1)">
    <g id="Grupo_2578" data-name="Grupo 2578" transform="translate(1 1)">
      <path id="Trazado_7181" data-name="Trazado 7181" d="M25.515,26.374c-.718-.254-1.357-.492-1.958-.723V15.986a6.421,6.421,0,0,1,3.073,1.3A1.381,1.381,0,0,0,28.5,15.247a9.18,9.18,0,0,0-4.941-2.053V10.969a1.381,1.381,0,1,0-2.761,0V13.3a10.388,10.388,0,0,0-1.182.276,7.088,7.088,0,0,0-4.85,5.566,6.19,6.19,0,0,0,2.006,6.1,18.1,18.1,0,0,0,4.026,2.266v11.95A7.987,7.987,0,0,1,16,37.83a1.383,1.383,0,1,0-1.519,2.311,10.678,10.678,0,0,0,6.307,2.071v2.465a1.381,1.381,0,1,0,2.761,0V42.108a8.609,8.609,0,0,0,7.148-7.131,7.53,7.53,0,0,0-5.18-8.6Zm-7.041-3.3a3.452,3.452,0,0,1-1-3.414,4.366,4.366,0,0,1,2.928-3.434c.138-.041.254-.05.385-.081v8.327a13.1,13.1,0,0,1-2.318-1.4Zm9.507,11.46A5.89,5.89,0,0,1,23.562,39.3V28.6c.337.124.672.247,1.038.377a4.819,4.819,0,0,1,3.377,5.553Z" transform="translate(3.894 2.269)" fill="#151a6a"/>
      <path id="Trazado_7182" data-name="Trazado 7182" d="M49.324,1H5.142A4.142,4.142,0,0,0,1,5.142V66.074a2.761,2.761,0,0,0,4.293,2.3L9.9,65.3a1.381,1.381,0,0,1,1.534,0l5.222,3.482a4.128,4.128,0,0,0,4.594,0L26.465,65.3A1.381,1.381,0,0,1,28,65.3l5.222,3.482a4.134,4.134,0,0,0,4.594,0L43.033,65.3a1.381,1.381,0,0,1,1.534,0l4.606,3.072a2.761,2.761,0,0,0,4.293-2.3V5.142A4.142,4.142,0,0,0,49.324,1ZM46.1,63A4.128,4.128,0,0,0,41.5,63l-5.219,3.482a1.381,1.381,0,0,1-1.534,0L29.529,63a4.131,4.131,0,0,0-4.594,0l-5.219,3.482a1.381,1.381,0,0,1-1.534,0L12.961,63a4.128,4.128,0,0,0-4.594,0L3.761,66.074V5.142A1.381,1.381,0,0,1,5.142,3.761H49.324A1.381,1.381,0,0,1,50.7,5.142l.007,60.936Z" transform="translate(-1 -1)" fill="#151a6a"/>
    </g>
    <path id="Trazado_7180" data-name="Trazado 7180" d="M71.332,51.164a23.459,23.459,0,0,0-45.883-5.48,15.179,15.179,0,0,0,1.737,30.259h42.8a12.426,12.426,0,0,0,1.345-24.779ZM44.04,50a1.381,1.381,0,0,1-1.952,0,8.284,8.284,0,0,0-11.71,0,1.381,1.381,0,0,1-1.95-1.952,11.055,11.055,0,0,1,15.614,0A1.381,1.381,0,0,1,44.04,50ZM67.511,66.564a1.381,1.381,0,0,1-1.952,0,10.827,10.827,0,0,0-15.292,0,1.382,1.382,0,1,1-1.956-1.952,13.589,13.589,0,0,1,19.191,0,1.381,1.381,0,0,1,.01,1.952Z" transform="translate(-0.491 10.191)" fill="#1da8ff"/>
  </g>
</svg>
