<svg xmlns="http://www.w3.org/2000/svg" width="85.112" height="80.205" viewBox="0 0 85.112 80.205">
  <g id="alert" transform="translate(0 -14.759)">
    <g id="Grupo_3301" data-name="Grupo 3301" transform="translate(0 14.759)">
      <path id="Trazado_7947" data-name="Trazado 7947" d="M83.344,76.131,53.278,20.862a12.469,12.469,0,0,0-21.443,0L1.77,76.131A12.462,12.462,0,0,0,12.489,94.964H72.622A12.464,12.464,0,0,0,83.344,76.131ZM42.556,84.99A4.987,4.987,0,1,1,47.543,80,4.994,4.994,0,0,1,42.556,84.99Zm4.987-19.948a4.987,4.987,0,0,1-9.974,0V40.107a4.987,4.987,0,0,1,9.974,0Z" transform="translate(0 -14.759)" fill="#e74c3c"/>
    </g>
  </g>
</svg>
