<svg id="Grupo_2610" data-name="Grupo 2610" xmlns="http://www.w3.org/2000/svg" width="61.385" height="62.441" viewBox="0 0 61.385 62.441">
  <g id="Grupo_2577" data-name="Grupo 2577">
    <path id="Trazado_7175" data-name="Trazado 7175" d="M43.073,1H13.944a3.121,3.121,0,0,0-3.121,3.121v5.2h-5.2A3.121,3.121,0,0,0,2.5,12.444V49.9a3.121,3.121,0,0,0,3.121,3.121H34.75A3.121,3.121,0,0,0,37.871,49.9v-5.2h5.2a3.121,3.121,0,0,0,3.121-3.121V4.121A3.121,3.121,0,0,0,43.073,1ZM34.75,50.936H5.621a1.04,1.04,0,0,1-1.04-1.04V12.444a1.04,1.04,0,0,1,1.04-1.04H34.75a1.04,1.04,0,0,1,1.04,1.04V49.9A1.04,1.04,0,0,1,34.75,50.936Zm9.363-9.363a1.04,1.04,0,0,1-1.04,1.04h-5.2V12.444A3.121,3.121,0,0,0,34.75,9.323H12.9v-5.2a1.04,1.04,0,0,1,1.04-1.04H43.073a1.04,1.04,0,0,1,1.04,1.04Z" transform="translate(-2.5 -1)" fill="#c8c8c8"/>
    <path id="Trazado_7176" data-name="Trazado 7176" d="M31.428,17H8.54a1.04,1.04,0,1,0,0,2.081H31.428a1.04,1.04,0,0,0,0-2.081Z" transform="translate(-2.298 -0.355)" fill="#c8c8c8"/>
    <path id="Trazado_7177" data-name="Trazado 7177" d="M31.428,25H8.54a1.04,1.04,0,1,0,0,2.081H31.428a1.04,1.04,0,0,0,0-2.081Z" transform="translate(-2.298 -0.032)" fill="#c8c8c8"/>
    <path id="Trazado_7178" data-name="Trazado 7178" d="M31.428,33H8.54a1.04,1.04,0,0,0,0,2.081H31.428a1.04,1.04,0,0,0,0-2.081Z" transform="translate(-2.298 0.291)" fill="#c8c8c8"/>
    <path id="Trazado_7179" data-name="Trazado 7179" d="M31.428,41H8.54a1.04,1.04,0,0,0,0,2.081H31.428a1.04,1.04,0,0,0,0-2.081Z" transform="translate(-2.298 0.613)" fill="#c8c8c8"/>
  </g>
  <ellipse id="Elipse_103" data-name="Elipse 103" cx="17.549" cy="18.154" rx="17.549" ry="18.154" transform="translate(24.188 24.697)" fill="#fff"/>
  <g id="plus" transform="translate(22.594 23.687)">
    <path id="Trazado_7235" data-name="Trazado 7235" d="M156,163.569a1.518,1.518,0,0,0,1.514,1.514h4.541v4.541a1.514,1.514,0,1,0,3.028,0v-4.541h4.541a1.514,1.514,0,1,0,0-3.028h-4.541v-4.541a1.514,1.514,0,0,0-3.028,0v4.541h-4.541A1.518,1.518,0,0,0,156,163.569Z" transform="translate(-144.192 -144.192)" fill="#c8c8c8"/>
    <path id="Trazado_7236" data-name="Trazado 7236" d="M13.522,137.649a1.512,1.512,0,0,0,1.976-.817l.81-1.96a1.512,1.512,0,0,0-2.793-1.158l-.817,1.96A1.509,1.509,0,0,0,13.522,137.649Z" transform="translate(-11.63 -122.731)" fill="#c8c8c8"/>
    <path id="Trazado_7237" data-name="Trazado 7237" d="M38.746,19.725a1.331,1.331,0,0,0,.045-.348A19.365,19.365,0,0,0,19.414,0h-.053a19.347,19.347,0,0,0-5.995.961,1.658,1.658,0,0,0-.424.106l-1.96.81a1.693,1.693,0,0,0-.394.235,19.8,19.8,0,0,0-3.762,2.52,1.486,1.486,0,0,0-.409.288L4.927,6.426a1.43,1.43,0,0,0-.3.424A19.251,19.251,0,0,0,.045,19.028,1.331,1.331,0,0,0,0,19.377,19.365,19.365,0,0,0,19.377,38.753h.053A19.36,19.36,0,0,0,38.746,19.725Zm-19.354,16A16.349,16.349,0,1,1,35.726,19.377,16.339,16.339,0,0,1,19.392,35.726Z" transform="translate(0)" fill="#c8c8c8"/>
  </g>
</svg>
