<svg xmlns="http://www.w3.org/2000/svg" width="17.824" height="17.823" viewBox="0 0 17.824 17.823">
  <g id="error" transform="translate(0)">
    <g id="Grupo_2475" data-name="Grupo 2475" transform="translate(0 0)">
      <path id="Trazado_7126" data-name="Trazado 7126" d="M8.912,0a8.912,8.912,0,1,0,8.912,8.912A8.922,8.922,0,0,0,8.912,0Zm3.6,11.466a.371.371,0,0,1,0,.525l-.525.525a.371.371,0,0,1-.525,0L8.912,9.962,6.358,12.516a.371.371,0,0,1-.525,0l-.525-.525a.371.371,0,0,1,0-.525L7.862,8.912,5.307,6.357a.371.371,0,0,1,0-.525l.525-.525a.371.371,0,0,1,.525,0L8.912,7.862l2.554-2.554a.371.371,0,0,1,.525,0l.525.525a.371.371,0,0,1,0,.525L9.962,8.912Z" fill="#e74c3c"/>
    </g>
  </g>
</svg>
