<svg xmlns="http://www.w3.org/2000/svg" width="79.594" height="84.337" viewBox="0 0 79.594 84.337">
  <g id="office" transform="translate(-5 -1)">
    <path id="Trazado_7204" data-name="Trazado 7204" d="M61.265,66.871H57.148V5.117A4.117,4.117,0,0,0,53.031,1H14.606a4.117,4.117,0,0,0-4.117,4.117V66.871H6.372a1.372,1.372,0,0,0,0,2.745H61.265a1.372,1.372,0,0,0,0-2.745ZM13.234,5.117a1.372,1.372,0,0,1,1.372-1.372H53.031A1.372,1.372,0,0,1,54.4,5.117V66.871H40.68V57.265a1.372,1.372,0,0,0-1.372-1.372H28.329a1.372,1.372,0,0,0-1.372,1.372v9.606H13.234Zm24.7,61.754H29.7V58.637h8.234ZM26.957,50.4V42.169A1.372,1.372,0,0,0,25.585,40.8H20.1a1.372,1.372,0,0,0-1.372,1.372V50.4A1.372,1.372,0,0,0,20.1,51.776h5.489A1.372,1.372,0,0,0,26.957,50.4Zm-2.745-1.372H21.468V43.542h2.745Zm6.862,2.745h5.489A1.372,1.372,0,0,0,37.936,50.4V42.169A1.372,1.372,0,0,0,36.563,40.8H31.074A1.372,1.372,0,0,0,29.7,42.169V50.4A1.372,1.372,0,0,0,31.074,51.776Zm1.372-8.234h2.745v5.489H32.446Zm9.606,8.234h5.489A1.372,1.372,0,0,0,48.914,50.4V42.169A1.372,1.372,0,0,0,47.542,40.8H42.052a1.372,1.372,0,0,0-1.372,1.372V50.4A1.372,1.372,0,0,0,42.052,51.776Zm1.372-8.234h2.745v5.489H43.425ZM20.1,36.68h5.489a1.372,1.372,0,0,0,1.372-1.372V27.074A1.372,1.372,0,0,0,25.585,25.7H20.1a1.372,1.372,0,0,0-1.372,1.372v8.234A1.372,1.372,0,0,0,20.1,36.68Zm1.372-8.234h2.745v5.489H21.468Zm9.606,8.234h5.489a1.372,1.372,0,0,0,1.372-1.372V27.074A1.372,1.372,0,0,0,36.563,25.7H31.074A1.372,1.372,0,0,0,29.7,27.074v8.234A1.372,1.372,0,0,0,31.074,36.68Zm1.372-8.234h2.745v5.489H32.446Zm9.606,8.234h5.489a1.372,1.372,0,0,0,1.372-1.372V27.074A1.372,1.372,0,0,0,47.542,25.7H42.052a1.372,1.372,0,0,0-1.372,1.372v8.234A1.372,1.372,0,0,0,42.052,36.68Zm1.372-8.234h2.745v5.489H43.425ZM20.1,21.585h5.489a1.372,1.372,0,0,0,1.372-1.372V11.979a1.372,1.372,0,0,0-1.372-1.372H20.1a1.372,1.372,0,0,0-1.372,1.372v8.234A1.372,1.372,0,0,0,20.1,21.585Zm1.372-8.234h2.745V18.84H21.468Zm9.606,8.234h5.489a1.372,1.372,0,0,0,1.372-1.372V11.979a1.372,1.372,0,0,0-1.372-1.372H31.074A1.372,1.372,0,0,0,29.7,11.979v8.234A1.372,1.372,0,0,0,31.074,21.585Zm1.372-8.234h2.745V18.84H32.446Zm9.606,8.234h5.489a1.372,1.372,0,0,0,1.372-1.372V11.979a1.372,1.372,0,0,0-1.372-1.372H42.052a1.372,1.372,0,0,0-1.372,1.372v8.234A1.372,1.372,0,0,0,42.052,21.585Zm1.372-8.234h2.745V18.84H43.425Z" fill="#151a6a"/>
    <path id="Trazado_7203" data-name="Trazado 7203" d="M50.1,78.975,32.642,61.506a26.072,26.072,0,1,1,36.864,0L52.046,78.975a1.372,1.372,0,0,1-1.949,0Zm.974-40.7a4.8,4.8,0,1,0,4.8,4.8,4.8,4.8,0,0,0-4.8-4.8Z" transform="translate(7.448 5.955)" fill="#e74c3c"/>
    <circle id="Elipse_99" data-name="Elipse 99" cx="8.5" cy="8.5" r="8.5" transform="translate(49.797 42.44)" fill="#fff"/>
  </g>
</svg>
