<svg xmlns="http://www.w3.org/2000/svg" width="20.8" height="20.801" viewBox="0 0 20.8 20.801">
  <g id="Grupo_2456" data-name="Grupo 2456" transform="translate(-558.507 -87)">
    <g id="tools-and-utensils" transform="translate(558.507 87)">
      <g id="Grupo_2453" data-name="Grupo 2453" transform="translate(0)">
        <g id="Grupo_2452" data-name="Grupo 2452" transform="translate(0)">
          <path id="Trazado_7114" data-name="Trazado 7114" d="M8.786,0a8.786,8.786,0,1,0,8.786,8.786A8.8,8.8,0,0,0,8.786,0Zm0,16.036a7.249,7.249,0,1,1,7.249-7.249A7.258,7.258,0,0,1,8.786,16.036Z" transform="translate(0)" fill="#3f3f3f"/>
        </g>
      </g>
      <g id="Grupo_2455" data-name="Grupo 2455" transform="translate(13.679 13.679)">
        <g id="Grupo_2454" data-name="Grupo 2454">
          <path id="Trazado_7115" data-name="Trazado 7115" d="M343.6,342.519l-5.584-5.584a.768.768,0,0,0-1.087,1.087l5.584,5.584a.768.768,0,0,0,1.087-1.087Z" transform="translate(-336.708 -336.709)" fill="#3f3f3f"/>
        </g>
      </g>
    </g>
    <line id="Línea_34" data-name="Línea 34" x2="8.026" transform="translate(563.095 95.998)" fill="none" stroke="#3f3f3f" stroke-linecap="round" stroke-width="1"/>
    <line id="Línea_36" data-name="Línea 36" x2="8.026" transform="translate(567.108 91.984) rotate(90)" fill="none" stroke="#3f3f3f" stroke-linecap="round" stroke-width="1"/>
  </g>
</svg>
