<svg xmlns="http://www.w3.org/2000/svg" width="76.492" height="53.783" viewBox="0 0 76.492 53.783">
  <g id="mail_2_" data-name="mail (2)" transform="translate(0 -76)">
    <g id="Grupo_3284" data-name="Grupo 3284" transform="translate(52.62 79.843)">
      <g id="Grupo_3283" data-name="Grupo 3283">
        <path id="Trazado_7906" data-name="Trazado 7906" d="M375.409,101.721l-23.2,23.049,23.2,23.049a6.645,6.645,0,0,0,.674-2.88V104.6A6.645,6.645,0,0,0,375.409,101.721Z" transform="translate(-352.211 -101.721)" fill="#1acc36"/>
      </g>
    </g>
    <g id="Grupo_3286" data-name="Grupo 3286" transform="translate(3.843 76)">
      <g id="Grupo_3285" data-name="Grupo 3285">
        <path id="Trazado_7907" data-name="Trazado 7907" d="M91.647,76H28.6a6.645,6.645,0,0,0-2.88.674l29.65,29.5a6.728,6.728,0,0,0,9.506,0l29.65-29.5A6.645,6.645,0,0,0,91.647,76Z" transform="translate(-25.721 -76)" fill="#1acc36"/>
      </g>
    </g>
    <g id="Grupo_3288" data-name="Grupo 3288" transform="translate(0 79.843)">
      <g id="Grupo_3287" data-name="Grupo 3287">
        <path id="Trazado_7908" data-name="Trazado 7908" d="M.674,101.721A6.645,6.645,0,0,0,0,104.6v40.337a6.644,6.644,0,0,0,.674,2.88l23.2-23.049Z" transform="translate(0 -101.721)" fill="#1acc36"/>
      </g>
    </g>
    <g id="Grupo_3290" data-name="Grupo 3290" transform="translate(3.843 106.06)">
      <g id="Grupo_3289" data-name="Grupo 3289">
        <path id="Trazado_7909" data-name="Trazado 7909" d="M71.329,277.211l-3.283,3.283a11.217,11.217,0,0,1-15.844,0l-3.283-3.283-23.2,23.049a6.645,6.645,0,0,0,2.88.674H91.647a6.645,6.645,0,0,0,2.88-.674Z" transform="translate(-25.721 -277.211)" fill="#1acc36"/>
      </g>
    </g>
  </g>
</svg>
