<svg xmlns="http://www.w3.org/2000/svg" width="25.649" height="25.65" viewBox="0 0 25.649 25.65">
  <g id="Grupo_2785" data-name="Grupo 2785" transform="translate(-468 -18988)">
    <g id="Grupo_2582" data-name="Grupo 2582" transform="translate(468 18988)">
      <path id="Trazado_7210" data-name="Trazado 7210" d="M13.957,0H5.11a.4.4,0,0,0-.284.118L.118,4.826A.4.4,0,0,0,0,5.11V18.235a1.2,1.2,0,0,0,1.2,1.2H13.957a1.2,1.2,0,0,0,1.2-1.2V1.2a1.2,1.2,0,0,0-1.2-1.2ZM4.709,1.368v2.94a.4.4,0,0,1-.4.4H1.368Zm9.649,16.867a.4.4,0,0,1-.4.4H1.2a.4.4,0,0,1-.4-.4V5.511H4.308a1.2,1.2,0,0,0,1.2-1.2V.8h8.447a.4.4,0,0,1,.4.4Z" transform="translate(0)" fill="#151a6a"/>
      <path id="Trazado_7211" data-name="Trazado 7211" d="M22.778,4.875H17.587a.4.4,0,0,0,0,.8h5.192a.4.4,0,0,0,0-.8Z" transform="translate(-10.298 -2.921)" fill="#151a6a"/>
      <path id="Trazado_7212" data-name="Trazado 7212" d="M22.778,11.75H17.587a.4.4,0,0,0,0,.8h5.192a.4.4,0,0,0,0-.8Z" transform="translate(-10.298 -7.041)" fill="#151a6a"/>
      <path id="Trazado_7213" data-name="Trazado 7213" d="M15.887,18.625h-9.8a.4.4,0,1,0,0,.8h9.8a.4.4,0,1,0,0-.8Z" transform="translate(-3.407 -11.161)" fill="#151a6a"/>
      <path id="Trazado_7214" data-name="Trazado 7214" d="M15.887,25.5h-9.8a.4.4,0,0,0,0,.8h9.8a.4.4,0,1,0,0-.8Z" transform="translate(-3.407 -15.28)" fill="#151a6a"/>
      <path id="Trazado_7215" data-name="Trazado 7215" d="M15.887,32.375h-9.8a.4.4,0,0,0,0,.8h9.8a.4.4,0,0,0,0-.8Z" transform="translate(-3.407 -19.4)" fill="#151a6a"/>
      <path id="Trazado_7216" data-name="Trazado 7216" d="M15.887,39.25h-9.8a.4.4,0,0,0,0,.8h9.8a.4.4,0,1,0,0-.8Z" transform="translate(-3.407 -23.52)" fill="#151a6a"/>
    </g>
    <path id="Trazado_7205" data-name="Trazado 7205" d="M35.807,28.668a.681.681,0,1,0,.681.681A.681.681,0,0,0,35.807,28.668Z" transform="translate(446.951 18970.82)" fill="#c4a2fc"/>
    <path id="Trazado_7206" data-name="Trazado 7206" d="M43.809,37.165,40.2,22.062a.4.4,0,0,0-.483-.3l-4.178,1v-.013a.4.4,0,0,0-.4-.4H30.725a.4.4,0,0,0-.4.4v15.53a.4.4,0,0,0,.4.4h4.408a.4.4,0,0,0,.4-.4V24.962l3.21,13.416a.4.4,0,0,0,.481.3l4.286-1.026a.4.4,0,0,0,.3-.483Zm-9.8-.62H31.847a.4.4,0,1,1,0-.8h2.164a.4.4,0,1,1,0,.8Zm0-1.357H31.847a.4.4,0,1,1,0-.8h2.164a.4.4,0,1,1,0,.8Zm0-1.357H31.847a.4.4,0,1,1,0-.8h2.164a.4.4,0,1,1,0,.8Zm-1.082-7.142a1.483,1.483,0,1,1,1.483-1.483,1.483,1.483,0,0,1-1.483,1.483ZM36.791,25.4a1.483,1.483,0,1,1,1.787,1.1,1.483,1.483,0,0,1-1.787-1.1Zm1.914,8a.4.4,0,0,1,.3-.481l2.1-.5a.4.4,0,1,1,.187.78l-2.1.5a.421.421,0,0,1-.094.011A.4.4,0,0,1,38.705,33.395Zm.316,1.319a.4.4,0,0,1,.3-.481l2.1-.5a.4.4,0,1,1,.186.78l-2.1.5a.394.394,0,0,1-.093.011.4.4,0,0,1-.39-.307Zm2.9,1.113-2.1.5a.4.4,0,0,1-.187-.779l2.1-.5a.4.4,0,1,1,.187.779Z" transform="translate(449.829 18974.965)" fill="#c4a2fc"/>
    <path id="Trazado_7207" data-name="Trazado 7207" d="M49.7,28.807a.681.681,0,1,0-.5.821.681.681,0,0,0,.5-.821Z" transform="translate(439.023 18971.051)" fill="#c4a2fc"/>
    <path id="Trazado_7208" data-name="Trazado 7208" d="M20.981,28.668a.681.681,0,1,0,.681.681.681.681,0,0,0-.681-.681Z" transform="translate(455.836 18970.82)" fill="#c4a2fc"/>
    <path id="Trazado_7209" data-name="Trazado 7209" d="M20.309,23.25H15.9a.4.4,0,0,0-.4.4v15.53a.4.4,0,0,0,.4.4h4.408a.4.4,0,0,0,.4-.4V23.651A.4.4,0,0,0,20.309,23.25ZM19.187,37.442H17.023a.4.4,0,0,1,0-.8h2.164a.4.4,0,1,1,0,.8Zm0-1.357H17.023a.4.4,0,0,1,0-.8h2.164a.4.4,0,1,1,0,.8Zm0-1.357H17.023a.4.4,0,0,1,0-.8h2.164a.4.4,0,0,1,0,.8ZM18.1,27.585A1.483,1.483,0,1,1,19.588,26.1,1.483,1.483,0,0,1,18.1,27.585Z" transform="translate(458.712 18974.068)" fill="#c4a2fc"/>
  </g>
</svg>
