<svg xmlns="http://www.w3.org/2000/svg" width="28.883" height="33.48" viewBox="0 0 28.883 33.48">
  <g id="bell_1_" data-name="bell (1)" transform="translate(94 -60)">
    <path id="Trazado_484" data-name="Trazado 484" d="M27.9,7.839a.49.49,0,0,0,.981,0,7.851,7.851,0,0,0-13.935-4.95,2.747,2.747,0,0,0-4.406,3.189,9.076,9.076,0,0,0-6.571,8.705.49.49,0,1,0,.981,0A8.09,8.09,0,0,1,11.46,6.865h0a8.187,8.187,0,0,1,1.576-.153c.075,0,.149,0,.224,0a7.839,7.839,0,0,0,7.77,8.964l.092,0v2.371a6.413,6.413,0,0,0,2.318,4.941l.59.491a2.585,2.585,0,0,1,.935,1.992V25.5a2.565,2.565,0,0,1-2.565,2.56H3.545A2.565,2.565,0,0,1,.981,25.5a2.59,2.59,0,0,1,.967-2.018L2.553,23a6.4,6.4,0,0,0,2.4-5.008V16.914a.49.49,0,1,0-.981,0v1.075a5.424,5.424,0,0,1-2.033,4.244l-.605.488A3.571,3.571,0,0,0,0,25.5a3.547,3.547,0,0,0,3.546,3.541H8.68c0,.049,0,.1,0,.145a4.3,4.3,0,0,0,8.594,0c0-.048,0-.1,0-.145H22.4A3.547,3.547,0,0,0,25.947,25.5v-.031a3.563,3.563,0,0,0-1.288-2.746l-.59-.491A5.435,5.435,0,0,1,22.1,18.048V15.605a7.771,7.771,0,0,0,3.674-1.522,7.9,7.9,0,0,0,2.788-4.036.49.49,0,0,0-.941-.276,6.91,6.91,0,0,1-2.44,3.531A6.856,6.856,0,1,1,27.9,7.839ZM16.29,29.189a3.316,3.316,0,0,1-6.632,0c0-.048,0-.1,0-.145h6.626C16.289,29.092,16.29,29.141,16.29,29.189ZM13.038,5.731a9.2,9.2,0,0,0-1.483.121,1.766,1.766,0,0,1,2.807-2.144,7.8,7.8,0,0,0-.9,2.033C13.325,5.734,13.181,5.731,13.038,5.731Zm0,0" transform="translate(-94 60)" fill="#3f3f3f"/>
  </g>
</svg>
