<svg id="interface" xmlns="http://www.w3.org/2000/svg" width="24" height="24" viewBox="0 0 24 24">
  <path id="Trazado_7134" data-name="Trazado 7134" d="M21.5,18h-3a.5.5,0,0,1,0-1h3A1.5,1.5,0,0,0,23,15.5v-7A1.5,1.5,0,0,0,21.5,7H2.5A1.5,1.5,0,0,0,1,8.5v7A1.5,1.5,0,0,0,2.5,17h3a.5.5,0,0,1,0,1h-3A2.5,2.5,0,0,1,0,15.5v-7A2.5,2.5,0,0,1,2.5,6h19A2.5,2.5,0,0,1,24,8.5v7A2.5,2.5,0,0,1,21.5,18Z" fill="#3f3f3f"/>
  <path id="Trazado_7135" data-name="Trazado 7135" d="M14.5,21h-6a.5.5,0,0,1,0-1h6a.5.5,0,0,1,0,1Z" fill="#3f3f3f"/>
  <path id="Trazado_7136" data-name="Trazado 7136" d="M14.5,19h-6a.5.5,0,0,1,0-1h6a.5.5,0,0,1,0,1Z" fill="#3f3f3f"/>
  <path id="Trazado_7137" data-name="Trazado 7137" d="M10.5,17h-2a.5.5,0,0,1,0-1h2a.5.5,0,0,1,0,1Z" fill="#3f3f3f"/>
  <path id="Trazado_7138" data-name="Trazado 7138" d="M18.5,7a.5.5,0,0,1-.5-.5v-4A1.5,1.5,0,0,0,16.5,1h-9A1.5,1.5,0,0,0,6,2.5v4a.5.5,0,0,1-1,0v-4A2.5,2.5,0,0,1,7.5,0h9A2.5,2.5,0,0,1,19,2.5v4A.5.5,0,0,1,18.5,7Z" fill="#3f3f3f"/>
  <path id="Trazado_7139" data-name="Trazado 7139" d="M16.5,24h-9A2.5,2.5,0,0,1,5,21.5v-8a.5.5,0,0,1,.5-.5h13a.5.5,0,0,1,.5.5v8A2.5,2.5,0,0,1,16.5,24ZM6,14v7.5A1.5,1.5,0,0,0,7.5,23h9A1.5,1.5,0,0,0,18,21.5V14Z" fill="#3f3f3f"/>
</svg>
