<svg xmlns="http://www.w3.org/2000/svg" width="30.216" height="28.401" viewBox="0 0 30.216 28.401">
  <g id="Grupo_2753" data-name="Grupo 2753" transform="translate(-30 -89)">
    <g id="Grupo_2748" data-name="Grupo 2748" transform="translate(30 89)">
      <g id="Grupo_2747" data-name="Grupo 2747" transform="translate(8.817 28.014) rotate(-135)">
        <path id="Trazado_7441" data-name="Trazado 7441" d="M12.272,9.718,7.061.483a.949.949,0,0,0-1.654,0L3.365,4.1a.489.489,0,0,0,.852.481L5.745,1.875V6.649a2.749,2.749,0,0,0,0,5.41V16.3h-2.1a9.068,9.068,0,0,0-2.509-5.43.565.565,0,0,1-.091-.672L3.113,6.54a.489.489,0,0,0-.852-.481L.2,9.718a1.547,1.547,0,0,0,.248,1.841A8.074,8.074,0,0,1,2.664,16.3H2.348a1.094,1.094,0,0,0-1.093,1.093v2.042a1.094,1.094,0,0,0,1.093,1.093H2.37V26.66a.489.489,0,0,0,.489.489h6.75a.489.489,0,0,0,.489-.489V24.094a.489.489,0,0,0-.978,0v2.076H3.349V20.528H9.12v1.284a.489.489,0,1,0,.978,0V20.528h.022a1.094,1.094,0,0,0,1.093-1.093V17.393A1.094,1.094,0,0,0,10.121,16.3H9.8a8.074,8.074,0,0,1,2.219-4.742A1.547,1.547,0,0,0,12.272,9.718ZM4.463,9.354a1.771,1.771,0,1,1,1.771,1.771A1.773,1.773,0,0,1,4.463,9.354Zm5.657,7.925a.114.114,0,0,1,.114.114v2.042a.114.114,0,0,1-.114.114H2.348a.114.114,0,0,1-.114-.114V17.393a.114.114,0,0,1,.114-.114Zm1.208-6.408A9.069,9.069,0,0,0,8.82,16.3h-2.1V12.059a2.749,2.749,0,0,0,0-5.41V1.875l4.7,8.324A.565.565,0,0,1,11.329,10.871Z" fill="#3f3f3f"/>
      </g>
      <line id="Línea_70" data-name="Línea 70" x2="29.778" transform="translate(0.438 27.901)" fill="none" stroke="#3f3f3f" stroke-width="1"/>
    </g>
  </g>
</svg>
