<svg xmlns="http://www.w3.org/2000/svg" width="24.164" height="24.042" viewBox="0 0 24.164 24.042">
  <g id="edit" transform="translate(0 -0.261)">
    <path id="Trazado_7146" data-name="Trazado 7146" d="M22.3,51.918a.6.6,0,0,0-.6.6v5.343a1.807,1.807,0,0,1-1.805,1.805H3.009A1.807,1.807,0,0,1,1.2,57.863V42.181a1.808,1.808,0,0,1,1.805-1.805H8.352a.6.6,0,1,0,0-1.2H3.009A3.012,3.012,0,0,0,0,42.181V57.863a3.012,3.012,0,0,0,3.009,3.009H19.895A3.012,3.012,0,0,0,22.9,57.863V52.52A.6.6,0,0,0,22.3,51.918Zm0,0" transform="translate(0 -36.569)" fill="#4d0952"/>
    <path id="Trazado_7147" data-name="Trazado 7147" d="M124.345,1.054a2.708,2.708,0,0,0-3.83,0L109.778,11.79a.6.6,0,0,0-.154.265l-1.412,5.1a.6.6,0,0,0,.741.741l5.1-1.412a.6.6,0,0,0,.265-.154L125.051,5.59a2.711,2.711,0,0,0,0-3.83ZM111.089,12.182l8.787-8.787,2.834,2.834-8.787,8.787Zm-.566,1.136,2.264,2.264-3.132.868ZM124.2,4.739l-.638.638-2.834-2.834.638-.638a1.5,1.5,0,0,1,2.127,0l.706.706A1.507,1.507,0,0,1,124.2,4.739Zm0,0" transform="translate(-101.679)" fill="#4d0952"/>
  </g>
</svg>
