<svg xmlns="http://www.w3.org/2000/svg" width="32.083" height="34.298" viewBox="0 0 32.083 34.298">
  <g id="amigos" transform="translate(-48.398 -2.81)">
    <circle id="Elipse_101" data-name="Elipse 101" cx="4.68" cy="4.68" r="4.68" transform="translate(53.126 2.81)" fill="#3f9f82"/>
    <circle id="Elipse_102" data-name="Elipse 102" cx="4.68" cy="4.68" r="4.68" transform="translate(66.328 2.81)" fill="#3f9f82"/>
    <path id="Trazado_7229" data-name="Trazado 7229" d="M72.626,434H56.263c-9.992,1.488-10.057,11.415-2.49,14.131,0,0,.9,5.885,1.067,7.4,0,0,.129,2.285,1.053,2.278,0,0,3.7.018,4.412,0,1.843-3.99,3.363-14.338,3.46-20.514,0,0,.744.032,1.293.032-.129,3.945,1.585,15.813,3.039,19.153,0,0,.514,1.328,1.024,1.328,0,0,3.008-.016,3.809,0s.864-.464.957-.885c0,0,1-6.758,1.261-8.86C82.068,446.062,83.265,435.488,72.626,434ZM52.4,439.384l.728,4.527a2.947,2.947,0,0,1-.728-4.527Zm23.291,4.527.728-4.527a2.947,2.947,0,0,1-.73,4.527Z" transform="translate(0 -420.714)" fill="#3f9f82"/>
  </g>
</svg>
