<svg xmlns="http://www.w3.org/2000/svg" width="18.62" height="25.392" viewBox="0 0 18.62 25.392">
  <g id="_007---Vegan-Certified" data-name="007---Vegan-Certified" style="isolation: isolate">
    <path id="Shape" d="M1.062,11.515c.174.647-.275,1.655.186,2.446s1.578.931,2.023,1.38a7.194,7.194,0,0,1,.715,1.27L1.744,23.156a.846.846,0,0,0,1.27.961l1.4-.994.5,1.646a.846.846,0,0,0,1.612.034l2.192-6.31a1.515,1.515,0,0,0,1.185,0l2.175,6.327a.846.846,0,0,0,1.612-.034l.5-1.646,1.4.982a.846.846,0,0,0,1.27-.961l-2.226-6.534a7.55,7.55,0,0,1,.711-1.27c.461-.474,1.583-.6,2.027-1.392s.021-1.82.186-2.446S18.62,10.237,18.62,9.31,17.714,7.693,17.558,7.1s.275-1.655-.186-2.446-1.578-.931-2.023-1.38-.584-1.583-1.384-2.031-1.82,0-2.446-.182S10.241,0,9.31,0,7.7.9,7.1,1.062c-.66.174-1.65-.279-2.446.182s-.927,1.574-1.38,2.027S1.693,3.855,1.27,4.655s0,1.82-.186,2.446S0,8.375,0,9.31s.9,1.6,1.062,2.2Zm4.68,13.03-.5-1.655a.846.846,0,0,0-1.3-.423l-1.4.982c2.268-6.606,2.074-6.1,2.116-6.1.779.453,1.82,0,2.446.182a3.5,3.5,0,0,1,.846.516Zm8.933-2.116a.846.846,0,0,0-1.3.466l-.5,1.65-2.226-6.479a3.22,3.22,0,0,1,.846-.512c.664-.178,1.65.275,2.446-.186.042-.025-.148-.516,2.116,6.077ZM1.32,8.337a2.51,2.51,0,0,0,.592-2.222c-.1-1.1-.038-1.172.948-1.625A2.494,2.494,0,0,0,4.49,2.856c.449-.982.588-1.041,1.629-.944A2.6,2.6,0,0,0,8.341,1.32C9.2.728,9.386.69,10.279,1.32a2.5,2.5,0,0,0,2.222.592c1.075-.093,1.176-.038,1.629.944A2.53,2.53,0,0,0,15.759,4.49c.973.453,1.045.567.948,1.625A2.583,2.583,0,0,0,17.3,8.337c.592.851.631,1.045,0,1.938a2.474,2.474,0,0,0-.592,2.222c.1,1.1.038,1.172-.948,1.629a2.506,2.506,0,0,0-1.629,1.629c-.453.982-.567,1.041-1.629.948a2.607,2.607,0,0,0-2.222.588c-.855.588-1.045.631-1.938,0a2.425,2.425,0,0,0-1.608-.626c-.609,0-1.3.174-1.655-.03-.487-.284-.618-1.308-1.206-1.892s-1.617-.728-1.892-1.2.114-1.439-.1-2.239S.846,9.873.846,9.31a1.972,1.972,0,0,1,.474-.973Z" fill="#3f3f3f"/>
    <path id="Shape-2" data-name="Shape" d="M13.348,19.7A6.348,6.348,0,1,0,7,13.348,6.348,6.348,0,0,0,13.348,19.7Zm0-11.849a5.5,5.5,0,1,1-3.89,1.611A5.5,5.5,0,0,1,13.348,7.846Z" transform="translate(-4.038 -4.038)" fill="#3f3f3f"/>
  </g>
</svg>
