<svg id="information-button" xmlns="http://www.w3.org/2000/svg" width="79.785" height="79.785" viewBox="0 0 79.785 79.785">
  <path id="Trazado_7883" data-name="Trazado 7883" d="M39.891,0A39.893,39.893,0,1,0,79.785,39.891,39.893,39.893,0,0,0,39.891,0Zm8.3,61.825q-3.08,1.216-4.914,1.851a12.963,12.963,0,0,1-4.262.638,8.494,8.494,0,0,1-5.8-1.82,5.874,5.874,0,0,1-2.063-4.617,16.769,16.769,0,0,1,.152-2.226c.1-.756.27-1.608.5-2.563l2.57-9.078c.226-.871.422-1.7.577-2.469a10.946,10.946,0,0,0,.23-2.138,3.292,3.292,0,0,0-.716-2.421,4.067,4.067,0,0,0-2.746-.679,7.206,7.206,0,0,0-2.043.3c-.692.213-1.293.405-1.787.594l.679-2.8q2.523-1.028,4.829-1.759a14.268,14.268,0,0,1,4.357-.736,8.336,8.336,0,0,1,5.714,1.79,5.947,5.947,0,0,1,2.006,4.647q0,.593-.138,2.084a13.944,13.944,0,0,1-.513,2.739l-2.556,9.051c-.209.726-.4,1.557-.564,2.486a13.143,13.143,0,0,0-.247,2.114,3.036,3.036,0,0,0,.807,2.459,4.518,4.518,0,0,0,2.793.655,8.1,8.1,0,0,0,2.114-.328,12.021,12.021,0,0,0,1.709-.574Zm-.453-36.737a6.1,6.1,0,0,1-4.306,1.662,6.165,6.165,0,0,1-4.323-1.662,5.3,5.3,0,0,1-1.8-4.029,5.358,5.358,0,0,1,1.8-4.039,6.121,6.121,0,0,1,4.323-1.678,6.052,6.052,0,0,1,4.306,1.678,5.441,5.441,0,0,1,0,8.068Z" fill="#0182c4"/>
</svg>
