<svg xmlns="http://www.w3.org/2000/svg" width="24.292" height="25.912" viewBox="0 0 24.292 25.912">
  <g id="download_1_" data-name="download (1)" transform="translate(-16)">
    <g id="Grupo_3163" data-name="Grupo 3163" transform="translate(21.67)">
      <g id="Grupo_3162" data-name="Grupo 3162" transform="translate(0)">
        <path id="Trazado_7853" data-name="Trazado 7853" d="M140.881,11.811a.808.808,0,0,0-.737-.475h-3.239V.81A.81.81,0,0,0,136.1,0h-3.239a.81.81,0,0,0-.81.81V11.337h-3.239a.81.81,0,0,0-.609,1.342l5.668,6.478a.808.808,0,0,0,1.218,0l5.668-6.478a.807.807,0,0,0,.127-.868Z" transform="translate(-128)" fill="#9e267c"/>
      </g>
    </g>
    <g id="Grupo_3165" data-name="Grupo 3165" transform="translate(16 17.815)">
      <g id="Grupo_3164" data-name="Grupo 3164">
        <path id="Trazado_7854" data-name="Trazado 7854" d="M37.054,352v4.858H19.241V352H16v6.478a1.619,1.619,0,0,0,1.619,1.62H38.673a1.618,1.618,0,0,0,1.619-1.62V352Z" transform="translate(-16 -352)" fill="#9e267c"/>
      </g>
    </g>
  </g>
</svg>
