<svg xmlns="http://www.w3.org/2000/svg" width="34.5" height="32.356" viewBox="0 0 34.5 32.356">
  <g id="Grupo_2750" data-name="Grupo 2750" transform="translate(-30 -88.644)">
    <g id="Grupo_2747" data-name="Grupo 2747" transform="translate(85.81 301.731) rotate(-135)">
      <path id="Trazado_7441" data-name="Trazado 7441" d="M174.416,106.809l-5.949-10.545a1.084,1.084,0,0,0-1.888,0l-2.332,4.133a.559.559,0,0,0,.973.549l1.745-3.092V103.3a3.138,3.138,0,0,0,0,6.177v4.844H164.57a10.354,10.354,0,0,0-2.864-6.2.645.645,0,0,1-.1-.768l2.357-4.177a.559.559,0,0,0-.973-.549l-2.357,4.177a1.767,1.767,0,0,0,.283,2.1,9.219,9.219,0,0,1,2.534,5.414h-.361a1.249,1.249,0,0,0-1.247,1.247V117.9a1.249,1.249,0,0,0,1.247,1.247h.025v7a.558.558,0,0,0,.558.558h7.707a.558.558,0,0,0,.558-.558v-2.929a.558.558,0,0,0-1.117,0v2.371h-6.59v-6.443h6.59v1.466a.558.558,0,1,0,1.117,0v-1.466h.025a1.249,1.249,0,0,0,1.247-1.247v-2.332a1.249,1.249,0,0,0-1.247-1.247H171.6a9.218,9.218,0,0,1,2.534-5.414A1.767,1.767,0,0,0,174.416,106.809Zm-8.915-.416a2.022,2.022,0,1,1,2.022,2.022A2.024,2.024,0,0,1,165.5,106.393Zm6.459,9.049a.131.131,0,0,1,.13.13V117.9a.131.131,0,0,1-.13.13h-8.875a.131.131,0,0,1-.13-.13v-2.332a.131.131,0,0,1,.13-.13Zm1.379-7.317a10.354,10.354,0,0,0-2.864,6.2h-2.394v-4.844a3.138,3.138,0,0,0,0-6.177V97.854l5.362,9.5A.645.645,0,0,1,173.339,108.125Z" fill="#1da8ff"/>
    </g>
    <line id="Línea_70" data-name="Línea 70" x2="34" transform="translate(30.5 120.5)" fill="none" stroke="#1da8ff" stroke-width="1"/>
  </g>
</svg>
