<svg id="Grupo_3311" data-name="Grupo 3311" xmlns="http://www.w3.org/2000/svg" width="76.761" height="84.782" viewBox="0 0 76.761 84.782">
  <g id="Grupo_3309" data-name="Grupo 3309" transform="translate(0 0)">
    <path id="Trazado_7971" data-name="Trazado 7971" d="M57.065,32.451H47.493V11.94a1.367,1.367,0,0,0-.4-.967L37.521,1.4a1.367,1.367,0,0,0-.967-.4H5.1A4.1,4.1,0,0,0,1,5.1V63.9a4.1,4.1,0,0,0,4.1,4.1H51.6a6.845,6.845,0,0,0,6.837-6.837V33.819A1.367,1.367,0,0,0,57.065,32.451ZM3.735,63.9V5.1A1.367,1.367,0,0,1,5.1,3.735H35.988l8.771,8.771V61.168a6.766,6.766,0,0,0,1.4,4.1H5.1A1.367,1.367,0,0,1,3.735,63.9ZM55.7,61.168a4.1,4.1,0,0,1-8.2,0V35.186h8.2Z" transform="translate(-1 -1)" fill="#151a6a"/>
    <path id="Trazado_7972" data-name="Trazado 7972" d="M31.837,10.47h-4.1v-4.1a1.367,1.367,0,0,0-2.735,0v5.47A1.367,1.367,0,0,0,26.367,13.2h5.47a1.367,1.367,0,0,0,0-2.735Z" transform="translate(7.819 0.47)" fill="#151a6a"/>
    <path id="Trazado_7973" data-name="Trazado 7973" d="M32.247,16H10.367a1.367,1.367,0,0,0,0,2.735H32.247a1.367,1.367,0,0,0,0-2.735Z" transform="translate(1.94 4.512)" fill="#151a6a"/>
    <path id="Trazado_7974" data-name="Trazado 7974" d="M32.247,24H10.367a1.367,1.367,0,0,0,0,2.735H32.247a1.367,1.367,0,1,0,0-2.735Z" transform="translate(1.94 7.451)" fill="#151a6a"/>
    <path id="Trazado_7975" data-name="Trazado 7975" d="M32.247,32H10.367a1.367,1.367,0,0,0,0,2.735H32.247a1.367,1.367,0,0,0,0-2.735Z" transform="translate(1.94 10.391)" fill="#151a6a"/>
    <path id="Trazado_7976" data-name="Trazado 7976" d="M32.247,40H10.367a1.367,1.367,0,1,0,0,2.735H32.247a1.367,1.367,0,1,0,0-2.735Z" transform="translate(1.94 13.331)" fill="#151a6a"/>
  </g>
  <g id="Grupo_3310" data-name="Grupo 3310" transform="translate(12.393 20.348)">
    <path id="Trazado_7967" data-name="Trazado 7967" d="M76.142,67.378H30.7l7-1.1a1.289,1.289,0,0,0,.972-.739L44.01,53.781,29.157,38.928,17.4,44.271a1.289,1.289,0,0,0-.739.971l-3.6,22.815,12.52-12.52a1.289,1.289,0,1,1,1.823,1.823l-12.6,12.6H76.142a1.289,1.289,0,1,0,0-2.578Z" transform="translate(-13.063 -5.522)" fill="#1da8ff"/>
    <path id="Trazado_7968" data-name="Trazado 7968" d="M58.779,45.175A93.13,93.13,0,0,0,67.3,35.908L49.111,17.721A91.278,91.278,0,0,0,27.069,43.372L41.654,57.955a93.1,93.1,0,0,0,17.125-12.78Z" transform="translate(-9.016 -11.65)" fill="#1da8ff"/>
    <path id="Trazado_7969" data-name="Trazado 7969" d="M65.818,32.089A12.167,12.167,0,0,0,48.894,15.165c-1.067.742-2.107,1.524-3.144,2.31L63.507,35.232C64.295,34.2,65.076,33.156,65.818,32.089Z" transform="translate(-3.617 -13.011)" fill="#1da8ff"/>
  </g>
</svg>
