<svg xmlns="http://www.w3.org/2000/svg" width="18.978" height="21.56" viewBox="0 0 18.978 21.56">
  <g id="icon-contact" transform="translate(2.082)" style="isolation: isolate">
    <path id="Trazado_7067" data-name="Trazado 7067" d="M14.334,0H2.2A2.568,2.568,0,0,0-.362,2.567V3.675H-1.569a.513.513,0,0,0-.513.513.513.513,0,0,0,.513.513h1.2V8.07h-1.2a.513.513,0,0,0-.513.513.513.513,0,0,0,.513.513h1.2v3.367h-1.2a.513.513,0,0,0-.513.513.513.513,0,0,0,.513.513h1.2v3.367h-1.2a.513.513,0,0,0-.513.513.513.513,0,0,0,.513.513h1.2v1.109A2.568,2.568,0,0,0,2.2,21.56h12.13A2.568,2.568,0,0,0,16.9,18.993V2.567A2.563,2.563,0,0,0,14.334,0Zm1.54,18.993a1.545,1.545,0,0,1-1.54,1.54H2.2a1.545,1.545,0,0,1-1.54-1.54V17.885h1.2a.513.513,0,1,0,0-1.027H.664V13.49h1.2a.513.513,0,1,0,0-1.027H.664V9.1h1.2a.513.513,0,1,0,0-1.027H.664V4.7h1.2a.513.513,0,1,0,0-1.027H.664V2.567A1.545,1.545,0,0,1,2.2,1.027h12.13a1.545,1.545,0,0,1,1.54,1.54Zm0,0" transform="translate(0)"/>
    <path id="Trazado_7068" data-name="Trazado 7068" d="M191.667,142.373A2.374,2.374,0,1,0,189.293,140,2.374,2.374,0,0,0,191.667,142.373Zm0-3.774a1.395,1.395,0,1,1-1.395,1.395A1.4,1.4,0,0,1,191.667,138.6Zm0,0" transform="translate(-183.386 -131.894)"/>
    <path id="Trazado_7069" data-name="Trazado 7069" d="M160.8,279a3.657,3.657,0,0,0-3.632,3.759.491.491,0,0,0,.489.489h6.285a.491.491,0,0,0,.489-.489A3.657,3.657,0,0,0,160.8,279Zm-2.614,3.27a2.637,2.637,0,0,1,5.227,0Zm0,0" transform="translate(-152.502 -267.404)"/>
  </g>
</svg>
