<svg xmlns="http://www.w3.org/2000/svg" width="113.336" height="110.653" viewBox="0 0 113.336 110.653">
  <g id="Grupo_3169" data-name="Grupo 3169" transform="translate(-626.954 -224.656)">
    <g id="Grupo_2577" data-name="Grupo 2577" transform="translate(626.954 224.656)">
      <path id="Trazado_7175" data-name="Trazado 7175" d="M72.676,1H22.293a5.4,5.4,0,0,0-5.4,5.4v9h-9a5.4,5.4,0,0,0-5.4,5.4V85.571a5.4,5.4,0,0,0,5.4,5.4H58.281a5.4,5.4,0,0,0,5.4-5.4v-9h9a5.4,5.4,0,0,0,5.4-5.4V6.4A5.4,5.4,0,0,0,72.676,1Zm-14.4,86.371H7.9a1.8,1.8,0,0,1-1.8-1.8V20.793a1.8,1.8,0,0,1,1.8-1.8H58.281a1.8,1.8,0,0,1,1.8,1.8V85.571A1.8,1.8,0,0,1,58.281,87.371ZM74.475,71.176a1.8,1.8,0,0,1-1.8,1.8h-9V20.793a5.4,5.4,0,0,0-5.4-5.4H20.494v-9a1.8,1.8,0,0,1,1.8-1.8H72.676a1.8,1.8,0,0,1,1.8,1.8Z" transform="translate(-2.5 -1)" fill="#151a6a"/>
      <path id="Trazado_7176" data-name="Trazado 7176" d="M48.886,17H9.3a1.8,1.8,0,1,0,0,3.6H48.886a1.8,1.8,0,0,0,0-3.6Z" transform="translate(1.497 11.79)" fill="#151a6a"/>
      <path id="Trazado_7177" data-name="Trazado 7177" d="M48.886,25H9.3a1.8,1.8,0,1,0,0,3.6H48.886a1.8,1.8,0,1,0,0-3.6Z" transform="translate(1.497 18.185)" fill="#151a6a"/>
      <path id="Trazado_7178" data-name="Trazado 7178" d="M48.886,33H9.3a1.8,1.8,0,1,0,0,3.6H48.886a1.8,1.8,0,0,0,0-3.6Z" transform="translate(1.497 24.58)" fill="#151a6a"/>
      <path id="Trazado_7179" data-name="Trazado 7179" d="M48.886,41H9.3a1.8,1.8,0,1,0,0,3.6H48.886a1.8,1.8,0,0,0,0-3.6Z" transform="translate(1.497 30.975)" fill="#151a6a"/>
    </g>
    <g id="Grupo_3168" data-name="Grupo 3168" transform="translate(297.404 -107.688)">
      <path id="Trazado_7856" data-name="Trazado 7856" d="M405.23,367.688a37.654,37.654,0,1,0,37.656,37.654A37.656,37.656,0,0,0,405.23,367.688Z" transform="translate(0)" fill="#1acc36"/>
      <path id="Trazado_7857" data-name="Trazado 7857" d="M421.551,394.127l-20.4,20.4a3.134,3.134,0,0,1-4.433,0l0,0-10.2-10.2a3.138,3.138,0,0,1,4.437-4.437l7.98,7.98,18.178-18.177a3.138,3.138,0,0,1,4.437,4.437Z" transform="translate(2.766 3.235)" fill="#fff"/>
    </g>
  </g>
</svg>
