<svg xmlns="http://www.w3.org/2000/svg" width="30.441" height="24.912" viewBox="0 0 30.441 24.912">
  <g id="Grupo_3205" data-name="Grupo 3205" transform="translate(-376.749 -391.499)">
    <path id="Trazado_7866" data-name="Trazado 7866" d="M397.938,414.89a6.964,6.964,0,1,1,6.965-6.965A6.972,6.972,0,0,1,397.938,414.89Z" transform="translate(2.287 1.522)" fill="#9e267c"/>
    <path id="Trazado_7867" data-name="Trazado 7867" d="M392.145,409.446a8.089,8.089,0,0,1,8.08-8.079c.121,0,.239.013.359.019v-7.839a2.046,2.046,0,0,0-2.044-2.048h-8.578a2.05,2.05,0,0,0-1.448.6L377.35,403.259a2.046,2.046,0,0,0,0,2.894l0,0,8.575,8.581a2.048,2.048,0,0,0,2.9,0v0l3.524-3.525A8.048,8.048,0,0,1,392.145,409.446Zm2.808-13.851a1.536,1.536,0,1,1-1.536,1.536A1.536,1.536,0,0,1,394.953,395.6Z" transform="translate(0 0)" fill="#9e267c"/>
    <path id="Trazado_7861" data-name="Trazado 7861" d="M393.373,407.539a.838.838,0,0,0,.836.836h2.5v2.506a.836.836,0,0,0,1.673,0v-2.511h2.509a.835.835,0,1,0,0-1.67h-2.513V404.2a.836.836,0,0,0-1.673,0V406.7H394.2A.837.837,0,0,0,393.373,407.539Z" transform="translate(2.673 1.907)" fill="#fff"/>
  </g>
</svg>
