<svg xmlns="http://www.w3.org/2000/svg" width="29.626" height="24.037" viewBox="0 0 29.626 24.037">
  <g id="Grupo_3199" data-name="Grupo 3199" transform="translate(-405.096 -391.965)">
    <path id="Trazado_7862" data-name="Trazado 7862" d="M419.764,409.058a8.011,8.011,0,0,1,13.625-5.718v-5.987a2.559,2.559,0,0,0-2.555-2.552H419.423l-2.27-2.7a.387.387,0,0,0-.31-.14h-9.207a2.56,2.56,0,0,0-2.539,2.554v16.594a2.559,2.559,0,0,0,2.555,2.555h13.58A7.972,7.972,0,0,1,419.764,409.058Z" transform="translate(0)" fill="#9e267c"/>
    <path id="Trazado_7863" data-name="Trazado 7863" d="M425.842,414.7a6.869,6.869,0,1,1,6.869-6.869A6.876,6.876,0,0,1,425.842,414.7Z" transform="translate(2.011 1.304)" fill="#9e267c"/>
    <path id="Trazado_7861" data-name="Trazado 7861" d="M421.373,407.482a.827.827,0,0,0,.824.824h2.468v2.472a.825.825,0,0,0,1.65,0v-2.476h2.474a.824.824,0,1,0,0-1.647h-2.479v-2.472a.825.825,0,0,0-1.65,0v2.471h-2.474A.826.826,0,0,0,421.373,407.482Z" transform="translate(2.358 1.651)" fill="#fff"/>
  </g>
</svg>
