<svg xmlns="http://www.w3.org/2000/svg" width="38.958" height="34.298" viewBox="0 0 38.958 34.298">
  <g id="Grupo_2613" data-name="Grupo 2613" transform="translate(-3154.218 -2.81)">
    <circle id="Elipse_107" data-name="Elipse 107" cx="4.681" cy="4.681" r="4.681" transform="translate(3158.946 2.81)" fill="#c8c8c8"/>
    <circle id="Elipse_108" data-name="Elipse 108" cx="4.681" cy="4.681" r="4.681" transform="translate(3179.024 2.81)" fill="#c8c8c8"/>
    <circle id="Elipse_109" data-name="Elipse 109" cx="4.681" cy="4.681" r="4.681" transform="translate(3168.98 2.81)" fill="#c8c8c8"/>
    <path id="Trazado_7240" data-name="Trazado 7240" d="M3559.343,434h-4.059c-9.992,1.488-10.057,11.415-2.49,14.132,0,0,.906,5.885,1.067,7.405,0,0,.129,2.285,1.053,2.278,0,0,3.7.018,4.412,0l0,0,.32,0c.8.016.864-.464.957-.885,0,0,1-6.759,1.261-8.861C3568.786,446.062,3569.982,435.488,3559.343,434Z" transform="translate(-383.647 -420.714)" fill="#c8c8c8"/>
    <path id="Trazado_7241" data-name="Trazado 7241" d="M3162.083,434c-9.992,1.488-10.057,11.415-2.49,14.132,0,0,.906,5.885,1.067,7.405,0,0,.129,2.285,1.053,2.278,0,0,3.7.018,4.412,0,1.843-3.99,3.363-14.338,3.46-20.514a2.773,2.773,0,0,0-.486-1.841C3167.773,434.132,3162.083,434,3162.083,434Zm-3.865,5.384.728,4.527A2.947,2.947,0,0,1,3158.219,439.384Z" transform="translate(0 -420.714)" fill="#c8c8c8"/>
    <path id="Trazado_7242" data-name="Trazado 7242" d="M4130.25,434s-5.744.12-7.082,1.458a2.819,2.819,0,0,0-.486,1.873c-.129,3.945,1.584,15.813,3.039,19.154,0,0,.514,1.328,1.024,1.328,0,0,3.009-.016,3.809,0s.864-.464.957-.885c0,0,1-6.759,1.261-8.861C4139.693,446.062,4140.889,435.488,4130.25,434Zm3.063,9.912.728-4.527A2.947,2.947,0,0,1,4133.314,443.912Z" transform="translate(-944.929 -420.714)" fill="#c8c8c8"/>
  </g>
</svg>
