<svg id="api" xmlns="http://www.w3.org/2000/svg" width="99.804" height="85.835" viewBox="0 0 99.804 85.835">
  <path id="Trazado_8589" data-name="Trazado 8589" d="M112.219,109.046h2.62v-7.074H123.4v7.074h2.62V88.172h-13.8ZM123.4,90.792v8.559h-8.559V90.792Zm0,0" transform="translate(-92.655 -72.8)" fill="#151a6a"/>
  <path id="Trazado_8590" data-name="Trazado 8590" d="M208.406,109.046h2.621v-7.074h11.179v-13.8h-13.8Zm2.621-18.254h8.559v8.559h-8.559Zm0,0" transform="translate(-172.074 -72.8)" fill="#151a6a"/>
  <path id="Trazado_8591" data-name="Trazado 8591" d="M304.463,90.792v-2.62h-8.384v2.62h2.882v15.546h-2.882v2.62h8.384v-2.62h-2.882V90.792Zm0,0" transform="translate(-244.461 -72.8)" fill="#151a6a"/>
  <path id="Trazado_8592" data-name="Trazado 8592" d="M189.508,328.141h-5.149V339.32h5.59V328.141Zm0,0" transform="translate(-146.717 -270.934)" fill="#151a6a"/>
  <path id="Trazado_8593" data-name="Trazado 8593" d="M151.8,384.75h27.948v2.621H151.8Zm0,0" transform="translate(-125.333 -317.674)" fill="#151a6a"/>
  <path id="Trazado_8597" data-name="Trazado 8597" d="M78.168,0H2.708A2.71,2.71,0,0,0,0,2.708v53.1a2.711,2.711,0,0,0,2.708,2.708H68.386V55.9H2.708a.087.087,0,0,1-.087-.087V50.132H72.578v-2.62H2.62V2.708a.087.087,0,0,1,.087-.087h75.46a.087.087,0,0,1,.087.087V16.682h2.62V2.708A2.71,2.71,0,0,0,78.168,0Zm0,0" fill="#151a6a"/>
  <path id="Trazado_8598" data-name="Trazado 8598" d="M25.365.225,24.96,0H21.029V17.206H13.144V0H9.213L8.807.225a17.093,17.093,0,0,0,.752,30.293V64.879a3.709,3.709,0,0,0,3.7,3.7H20.91a3.708,3.708,0,0,0,3.7-3.7V30.519A17.093,17.093,0,0,0,25.365.225Zm0,0" transform="translate(70.21 9.353) rotate(30)" fill="#00e9cc"/>
</svg>
