<svg xmlns="http://www.w3.org/2000/svg" width="38.094" height="51.948" viewBox="0 0 38.094 51.948"><defs><style>.a{isolation:isolate;}.b{fill:#1f5fb2;}</style></defs><g class="a"><path class="b" d="M2.173,23.557c.355,1.325-.563,3.385.381,5s3.229,1.9,4.138,2.822a14.718,14.718,0,0,1,1.463,2.6L3.567,47.375a1.732,1.732,0,0,0,2.6,1.965l2.874-2.035,1.013,3.368a1.732,1.732,0,0,0,3.3.069l4.485-12.909a3.1,3.1,0,0,0,2.424,0l4.45,12.943a1.732,1.732,0,0,0,3.3-.069L29.02,47.34l2.874,2.009a1.732,1.732,0,0,0,2.6-1.965L29.938,34.016a15.445,15.445,0,0,1,1.454-2.6c.944-.97,3.238-1.229,4.147-2.848s.043-3.723.381-5,2.173-2.623,2.173-4.519-1.853-3.307-2.173-4.519.563-3.385-.381-5S32.31,7.619,31.4,6.7,30.207,3.463,28.57,2.545s-3.723,0-5-.372S20.951,0,19.047,0s-3.3,1.844-4.519,2.173c-1.351.355-3.376-.571-5,.372S7.627,5.766,6.7,6.692,3.463,7.887,2.6,9.523s0,3.723-.381,5S0,17.133,0,19.047s1.844,3.281,2.173,4.511Zm9.575,26.657-1.013-3.385a1.732,1.732,0,0,0-2.667-.866L5.195,47.972C9.835,34.457,9.437,35.5,9.523,35.5c1.593.926,3.723,0,5,.372a7.151,7.151,0,0,1,1.732,1.056Zm18.276-4.329a1.732,1.732,0,0,0-2.667.952l-1.013,3.376L21.791,36.959a6.588,6.588,0,0,1,1.732-1.048c1.359-.364,3.376.563,5-.381.087-.052-.3-1.056,4.329,12.432ZM2.7,17.056A5.135,5.135,0,0,0,3.913,12.51c-.2-2.242-.078-2.4,1.939-3.325A5.1,5.1,0,0,0,9.186,5.844c.918-2.009,1.2-2.13,3.333-1.931A5.32,5.32,0,0,0,17.064,2.7c1.749-1.212,2.138-1.29,3.965,0a5.119,5.119,0,0,0,4.545,1.212c2.2-.19,2.407-.078,3.333,1.931a5.176,5.176,0,0,0,3.333,3.342c1.991.926,2.138,1.16,1.939,3.325a5.284,5.284,0,0,0,1.212,4.545c1.212,1.74,1.29,2.138,0,3.965s-1.411,2.3-1.212,4.545.078,2.4-1.939,3.333a5.127,5.127,0,0,0-3.333,3.333c-.926,2.009-1.16,2.13-3.333,1.939a5.334,5.334,0,0,0-4.545,1.2c-1.749,1.2-2.138,1.29-3.965,0a4.961,4.961,0,0,0-3.29-1.281c-1.247,0-2.658.355-3.385-.061-1-.58-1.264-2.675-2.467-3.87S4.615,28.674,4.052,27.7s.234-2.944-.208-4.58S1.732,20.2,1.732,19.047a4.034,4.034,0,0,1,.97-1.991Z" transform="translate(0 0)"/><path class="b" d="M19.986,32.973A12.986,12.986,0,1,0,7,19.986,12.986,12.986,0,0,0,19.986,32.973Zm0-24.241a11.255,11.255,0,1,1-7.958,3.3A11.255,11.255,0,0,1,19.986,8.732Z" transform="translate(-0.94 -0.94)"/></g></svg>