<svg xmlns="http://www.w3.org/2000/svg" width="19.607" height="34" viewBox="0 0 19.607 34">
  <g id="Grupo_2612" data-name="Grupo 2612" transform="translate(-301.597 -2.81)">
    <circle id="Elipse_106" data-name="Elipse 106" cx="4.64" cy="4.64" r="4.64" transform="translate(306.761 2.81)" fill="#c8c8c8"/>
    <path id="Trazado_7239" data-name="Trazado 7239" d="M313.417,434h-4.024c-9.905,1.475-9.97,11.316-2.468,14.009,0,0,.9,5.834,1.058,7.341,0,0,.128,2.265,1.044,2.258,0,0,3.668.018,4.373,0l0,0,.317,0c.793.016.857-.46.948-.877,0,0,.994-6.7,1.25-8.783C322.778,445.957,323.964,435.475,313.417,434Zm-7.855,5.337.721,4.488A2.922,2.922,0,0,1,305.562,439.337Zm10.892,4.488.721-4.488A2.921,2.921,0,0,1,316.454,443.825Z" transform="translate(0 -420.805)" fill="#c8c8c8"/>
  </g>
</svg>
