<svg xmlns="http://www.w3.org/2000/svg" width="55" height="72.205" viewBox="0 0 55 72.205">
  <g id="web" transform="translate(-61)">
    <g id="Grupo_3635" data-name="Grupo 3635" transform="translate(61)">
      <path id="Trazado_8646" data-name="Trazado 8646" d="M113.885,0H63.115A2.115,2.115,0,0,0,61,2.115V70.09a2.115,2.115,0,0,0,2.115,2.115h50.769A2.115,2.115,0,0,0,116,70.09V2.115A2.115,2.115,0,0,0,113.885,0ZM94.141,8.462h2.821a2.115,2.115,0,1,1,0,4.231H94.141a2.115,2.115,0,0,1,0-4.231ZM91.321,25.667h8.462a2.115,2.115,0,1,1,0,4.231H91.321a2.115,2.115,0,1,1,0-4.231ZM71.577,8.462h8.462a2.115,2.115,0,1,1,0,4.231H71.577a2.115,2.115,0,0,1,0-4.231ZM69.462,27.782a2.115,2.115,0,0,1,2.115-2.115H82.859a2.115,2.115,0,0,1,2.115,2.115V39.064a2.115,2.115,0,0,1-2.115,2.115H71.577a2.115,2.115,0,0,1-2.115-2.115ZM85.679,62.333h-14.1a2.115,2.115,0,0,1,0-4.231h14.1a2.115,2.115,0,1,1,0,4.231Zm0-5.641h-14.1a2.115,2.115,0,0,1,0-4.231h14.1a2.115,2.115,0,1,1,0,4.231Zm0-5.641H77.218a2.115,2.115,0,1,1,0-4.231h8.462a2.115,2.115,0,1,1,0,4.231Zm3.526-11.987a2.115,2.115,0,0,1,2.115-2.115h8.462a2.115,2.115,0,1,1,0,4.231H91.321A2.115,2.115,0,0,1,89.205,39.064Zm18.333,21.154a2.115,2.115,0,0,1-2.115,2.115H94.141a2.115,2.115,0,0,1-2.115-2.115V48.936a2.115,2.115,0,0,1,2.115-2.115h11.282a2.115,2.115,0,0,1,2.115,2.115Zm-2.115-24.679h-14.1a2.115,2.115,0,1,1,0-4.231h14.1a2.115,2.115,0,1,1,0,4.231Zm0-22.846H102.6a2.115,2.115,0,1,1,0-4.231h2.821a2.115,2.115,0,1,1,0,4.231Z" transform="translate(-61)" fill="#dff3fe"/>
    </g>
  </g>
</svg>
