<svg id="direction" xmlns="http://www.w3.org/2000/svg" width="20.693" height="20.693" viewBox="0 0 20.693 20.693">
  <g id="Grupo_2459" data-name="Grupo 2459">
    <g id="Grupo_2458" data-name="Grupo 2458">
      <path id="Trazado_7125" data-name="Trazado 7125" d="M236.808,11.518a.808.808,0,0,0,.808-.808V.808a.808.808,0,1,0-1.617,0v9.9A.808.808,0,0,0,236.808,11.518Z" transform="translate(-226.462)" fill="#3f3f3f"/>
      <path id="Trazado_7126" data-name="Trazado 7126" d="M102.626,228.832l0,0a2.427,2.427,0,0,0,3.428,0l4.475-4.457a.808.808,0,1,0-1.141-1.145l-4.476,4.458a.808.808,0,0,1-1.141,0l-4.391-4.455a.808.808,0,1,0-1.151,1.135Z" transform="translate(-94.039 -213.986)" fill="#3f3f3f"/>
      <path id="Trazado_7127" data-name="Trazado 7127" d="M19.885,412a.808.808,0,0,0-.808.808,1.618,1.618,0,0,1-1.617,1.617H3.233a1.618,1.618,0,0,1-1.617-1.617.808.808,0,1,0-1.617,0,3.237,3.237,0,0,0,3.233,3.233H17.46a3.237,3.237,0,0,0,3.233-3.233A.808.808,0,0,0,19.885,412Z" transform="translate(0 -395.349)" fill="#3f3f3f"/>
    </g>
  </g>
</svg>
