<svg id="Grupo_3570" data-name="Grupo 3570" xmlns="http://www.w3.org/2000/svg" width="87.307" height="84.782" viewBox="0 0 87.307 84.782">
  <g id="Grupo_3306" data-name="Grupo 3306">
    <path id="Trazado_7956" data-name="Trazado 7956" d="M6,11.47v-4.1a1.367,1.367,0,1,1,2.735,0V10.1H11.47a1.367,1.367,0,0,1,0,2.735h-4.1A1.367,1.367,0,0,1,6,11.47Z" transform="translate(43.899 0.837)" fill="#e6e6e6"/>
    <path id="Trazado_7957" data-name="Trazado 7957" d="M40.94,23.47A5.47,5.47,0,1,1,35.47,18,5.47,5.47,0,0,1,40.94,23.47Zm-8.2,0a2.735,2.735,0,1,0,2.735-2.735A2.735,2.735,0,0,0,32.735,23.47Z" transform="translate(-17.022 5.247)" fill="#e6e6e6"/>
    <path id="Trazado_7958" data-name="Trazado 7958" d="M1.083,51.334,7.663,33.25A12.289,12.289,0,0,1,18.08,17.49V5.1a4.1,4.1,0,0,1,4.1-4.1H52.266a1.367,1.367,0,0,1,.967.4l10.94,10.94a1.367,1.367,0,0,1,.4.967V65.27a4.1,4.1,0,0,1-4.1,4.1H22.182a4.1,4.1,0,0,1-4.1-4.1V44.575L13.921,56.014a1.367,1.367,0,0,1-2.524.111L8.707,50.35,2.946,53.041a1.367,1.367,0,0,1-1.864-1.707ZM9.875,29.716a9.572,9.572,0,1,0,9.572-9.572,9.572,9.572,0,0,0-9.572,9.572ZM22.639,41.589l3.776,10.384,1.872-4.018a1.367,1.367,0,0,1,1.817-.662l4.009,1.872L29.575,36.69a12.337,12.337,0,0,1-6.936,4.9Zm-.457,25.049H60.471a1.367,1.367,0,0,0,1.367-1.367v-51.4L51.7,3.735H22.182A1.367,1.367,0,0,0,20.815,5.1V17.49A12.289,12.289,0,0,1,31.232,33.25l6.58,18.085a1.367,1.367,0,0,1-1.864,1.707L30.187,50.35,27.5,56.125a1.367,1.367,0,0,1-2.524-.111L20.815,44.575v20.7a1.367,1.367,0,0,0,1.367,1.367ZM8.791,47.294a1.367,1.367,0,0,1,1.817.662l1.865,4.018,3.776-10.384a12.337,12.337,0,0,1-6.936-4.9L4.775,49.166Z" transform="translate(-1 -1)" fill="#e6e6e6"/>
    <path id="Trazado_7959" data-name="Trazado 7959" d="M28.144,18.367a1.367,1.367,0,0,1-1.367,1.367H10.367a1.367,1.367,0,0,1,0-2.735H26.777A1.367,1.367,0,0,1,28.144,18.367Z" transform="translate(24.489 4.879)" fill="#e6e6e6"/>
    <path id="Trazado_7960" data-name="Trazado 7960" d="M10.367,25h10.94a1.367,1.367,0,0,1,0,2.735H10.367a1.367,1.367,0,0,1,0-2.735Z" transform="translate(29.959 7.819)" fill="#e6e6e6"/>
    <path id="Trazado_7961" data-name="Trazado 7961" d="M10.367,33h10.94a1.367,1.367,0,0,1,0,2.735H10.367a1.367,1.367,0,0,1,0-2.735Z" transform="translate(29.959 10.758)" fill="#e6e6e6"/>
    <path id="Trazado_7962" data-name="Trazado 7962" d="M10.367,41h10.94a1.367,1.367,0,0,1,0,2.735H10.367a1.367,1.367,0,0,1,0-2.735Z" transform="translate(29.959 13.698)" fill="#e6e6e6"/>
  </g>
  <g id="Grupo_3308" data-name="Grupo 3308" transform="translate(22.939 20.348)">
    <path id="Trazado_7967" data-name="Trazado 7967" d="M76.142,67.378H30.7l7-1.1a1.289,1.289,0,0,0,.972-.739L44.01,53.781,29.157,38.928,17.4,44.271a1.289,1.289,0,0,0-.739.971l-3.6,22.815,12.52-12.52a1.289,1.289,0,1,1,1.823,1.823l-12.6,12.6H76.142a1.289,1.289,0,1,0,0-2.578Z" transform="translate(-13.063 -5.522)" fill="#e6e6e6"/>
    <path id="Trazado_7968" data-name="Trazado 7968" d="M58.779,45.175A93.13,93.13,0,0,0,67.3,35.908L49.111,17.721A91.278,91.278,0,0,0,27.069,43.372L41.654,57.955a93.1,93.1,0,0,0,17.125-12.78Z" transform="translate(-9.016 -11.65)" fill="#e6e6e6"/>
    <path id="Trazado_7969" data-name="Trazado 7969" d="M65.818,32.089A12.167,12.167,0,0,0,48.894,15.165c-1.067.742-2.107,1.524-3.144,2.31L63.507,35.232C64.295,34.2,65.076,33.156,65.818,32.089Z" transform="translate(-3.617 -13.011)" fill="#e6e6e6"/>
  </g>
</svg>
