<svg xmlns="http://www.w3.org/2000/svg" viewBox="0 0 142.37 36.69"><defs><style>.cls-1{fill:#b5cea5;}</style></defs><g id="Capa_2" data-name="Capa 2"><g id="Capa_1-2" data-name="Capa 1"><path class="cls-1" d="M5.68,22.62c1.53-.65,3.06-1.3,4.6-1.89s3.07-1.15,4.62-1.66c3.1-1,6.26-1.92,9.44-2.65,1.8-.42,3.6-.81,5.41-1.14.2,0,.12-.33-.08-.3A86.5,86.5,0,0,0,20,17.09c-3.17.89-6.3,1.93-9.36,3.13-1.71.68-3.41,1.38-5.07,2.18-.15.07,0,.28.12.22Z"/><path class="cls-1" d="M15.25,16.3a8.26,8.26,0,0,1,.85-3.53l.22-.33a.45.45,0,0,1,.17-.13.26.26,0,0,1,.24.09.1.1,0,0,1,.05,0,.08.08,0,0,1,0,.05v0a2.5,2.5,0,0,1,0,.4c0,.2-.05.43-.09.68s-.09.47-.13.66a7.38,7.38,0,0,1-.33,1.06,9.18,9.18,0,0,1-.47,1l-.12.23,0,.35a15.87,15.87,0,0,0,.05,1.82,7.76,7.76,0,0,0,.18,1.38,1.32,1.32,0,0,0,.08.22h0a.15.15,0,0,1,0,.06h0s.05-.07.08-.21.06-.29.08-.46a5.08,5.08,0,0,0,0-1,4.23,4.23,0,0,0-.15-.9,2.27,2.27,0,0,0-.16-.46.92.92,0,0,0-.19-.31l0,0v0a.19.19,0,0,1,.08,0l.15-.05a1.44,1.44,0,0,0,.62-.37c.05,0,.11-.11.19-.19a2.57,2.57,0,0,0,.21-.24A1.33,1.33,0,0,0,17,16a.19.19,0,0,1,.11-.09s.07,0,.09.07,0,.14-.15.29a5.49,5.49,0,0,1-.41.44,1.42,1.42,0,0,1-.6.35l-.18.05a1.73,1.73,0,0,1,.2.32,2.39,2.39,0,0,1,.18.51,5.07,5.07,0,0,1,.16.91,4.87,4.87,0,0,1,0,.94,2.68,2.68,0,0,1-.11.59c0,.12-.11.18-.18.2l-.17,0a.42.42,0,0,1-.17,0,.57.57,0,0,1-.13-.1.41.41,0,0,1-.07-.11c0-.05,0-.12-.06-.21a1.31,1.31,0,0,1,0-.15,11.07,11.07,0,0,1-.25-2.49v-.79Zm.54-.53,0-.08A8.48,8.48,0,0,0,16.54,13c0-.09,0-.15,0-.2v-.17l0,.06a3.52,3.52,0,0,0-.24.48,5.33,5.33,0,0,0-.23.63,6.06,6.06,0,0,0-.15.61c-.05.25-.09.47-.13.69,0,0,0,.07,0,.11s0,.2,0,.32,0,.21,0,.29a.72.72,0,0,0,0,.14h0A.74.74,0,0,0,15.79,15.77Z"/><path class="cls-1" d="M17.49,17.31a1.36,1.36,0,0,1-.43-.23.34.34,0,0,1-.08-.17.93.93,0,0,1,0-.34,2.45,2.45,0,0,1,.13-.74h0a.29.29,0,0,1,.2.07.16.16,0,0,1,0,.07,2.21,2.21,0,0,1,0,.44,4.74,4.74,0,0,0,0,.55l0,.08c.28-.11.5-.31,1.08-.94a3.16,3.16,0,0,1,.39-.39.08.08,0,0,1,.1.05v0a10.41,10.41,0,0,1-.76,1,1.52,1.52,0,0,1-.62.47Zm-.12-1.71a.31.31,0,0,1-.21-.06v0a2.09,2.09,0,0,1,.08-.57c0-.06,0-.07.1-.09a.27.27,0,0,1,.24.08h0a1.5,1.5,0,0,1-.19.65Z"/><path class="cls-1" d="M19,16.81c-.12-.06-.16-.09-.18-.16a5.8,5.8,0,0,1,0-1A8.74,8.74,0,0,1,19,14.31s0,0,.05,0,.1,0,.15.05l0,.05a5.34,5.34,0,0,1,0,1,4.3,4.3,0,0,0,0,.47,0,0,0,0,0,0,0,1.4,1.4,0,0,0,.17-.27c.32-.56.59-.85.85-.92a.43.43,0,0,1,.25,0,.75.75,0,0,1,.42.33s0,.07,0,.08h0a.22.22,0,0,1-.18-.13s-.06,0-.09-.07h-.12a1.14,1.14,0,0,0-.49.41,5,5,0,0,0-.52,1c-.17.53-.22.62-.26.63A.32.32,0,0,1,19,16.81Z"/><path class="cls-1" d="M21,16.17a.56.56,0,0,1-.18-.11,7.82,7.82,0,0,1,.49-1.58h0a.33.33,0,0,1,.21.08s0,0,0,.06a.51.51,0,0,1,0,.19l0,.2a3.94,3.94,0,0,1,.38-.45c.09-.08.12-.1.16-.11h.07a.55.55,0,0,1,.19.09.25.25,0,0,1,.15.17c0,.06,0,.17,0,.22a.37.37,0,0,0,0,.11v0h0a5.35,5.35,0,0,0,.63-.68c.17-.2.24-.26.28-.27h0a.39.39,0,0,1,.31.25v0a2.73,2.73,0,0,1,0,.48,2.22,2.22,0,0,0,0,.4h0a2,2,0,0,0,.38-.27,3.32,3.32,0,0,0,.55-.66c.07-.13.12-.19.16-.2s.05,0,.07,0l0,.05c0,.08,0,.16-.1.33a2.75,2.75,0,0,1-.58.75.67.67,0,0,1-.31.2.33.33,0,0,1-.31,0c-.15-.07-.23-.13-.26-.25a1.79,1.79,0,0,1,0-.6h0l-.11.11a3.37,3.37,0,0,1-.68.69.54.54,0,0,1-.39-.19.08.08,0,0,1,0-.05.74.74,0,0,1,0-.18l0-.15-.08.1a5.88,5.88,0,0,0-.74,1.18.28.28,0,0,1-.09.14Z"/><path class="cls-1" d="M24.89,14.92c-.19-.09-.24-.13-.28-.29-.12-.41.28-1.4.58-1.48a.86.86,0,0,1,.66.31l.1.12a2.32,2.32,0,0,0,.07.59v0c0,.11,0,.13.1.12h0a1.24,1.24,0,0,0,.47-.47c.15-.19,1.08-1.62,1.13-1.64s0,0,.07.07-.84,1.46-1,1.72-.31.5-.46.54-.18,0-.38-.07a.66.66,0,0,1-.22-.16l-.06-.1c-.24.4-.38.66-.58.73l0,0C25,15,25,15,24.89,14.92Zm.59-1a1.8,1.8,0,0,0,.17-.52s-.16,0-.23,0-.51.83-.48,1.21l0,.11A3.25,3.25,0,0,0,25.48,14Z"/><path class="cls-1" d="M22.38,17.82h0a.25.25,0,0,1,.17-.13.24.24,0,0,1,.2,0,.26.26,0,0,1,.1.37.28.28,0,0,1-.16.12.3.3,0,0,1-.21,0,.3.3,0,0,1-.12-.17l-.12-.44a0,0,0,0,1,0,0l0,0h0l0,0Zm.29.32a.14.14,0,0,0,.11-.09.16.16,0,0,0,0-.15.14.14,0,0,0-.09-.11.14.14,0,0,0-.14,0,.16.16,0,0,0-.12.09.17.17,0,0,0,0,.14.18.18,0,0,0,.09.12A.19.19,0,0,0,22.67,18.14Z"/><path class="cls-1" d="M23.19,18l-.29-.38v-.05l0,0s0,0,0,0h0l.24.32.06-.4v0l0,0h0s0,0,0,0,0,0,0,0l-.09.74h0l0,0s0,0,0,0,0,0,0,0v0Z"/><path class="cls-1" d="M26.92,17h0a.23.23,0,0,0,.15-.3.22.22,0,0,0-.28-.15.23.23,0,0,0-.16.28l.06.23.22-.06Zm-.41-.14h0a.35.35,0,0,1,.25-.43.36.36,0,1,1,.19.69l-.23.06,0,.06s0,.1-.09.12l0-.08h0l-.05-.22v0l0-.15Z"/><path class="cls-1" d="M23.78,17.6h0a.23.23,0,1,0,.44-.11.22.22,0,0,0-.28-.17h0A.22.22,0,0,0,23.78,17.6Zm-.12,0h0a.35.35,0,1,1,.43.25A.35.35,0,0,1,23.66,17.64Z"/><path class="cls-1" d="M24.33,17.09h0l.09.35a.37.37,0,0,0,.38.26l.25-.07c0-.05-.09-.1-.13-.09l-.14,0a.27.27,0,0,1-.25-.16l-.07-.28S24.39,17.08,24.33,17.09Z"/><path class="cls-1" d="M25,16.9h0c-.06,0-.1.07-.09.11l.07.25v0h0l.06.24,0,.1c.06,0,.1-.07.09-.11l-.07-.25v0h0L25,17h0Z"/><path class="cls-1" d="M25.28,17.57h0l-.1-.35a.38.38,0,0,1,.21-.41l.1,0a.34.34,0,0,1,.28.09.32.32,0,0,1,.2-.22l.08,0a.38.38,0,0,1,.39.25l.09.35c-.07,0-.13,0-.14-.05l-.07-.27a.27.27,0,0,0-.25-.17l-.06,0a.25.25,0,0,0-.13.27l.07.27h0l0,.07c-.07,0-.13,0-.14-.05l-.07-.27a.25.25,0,0,0-.25-.16l-.08,0a.25.25,0,0,0-.13.26l.07.28S25.34,17.55,25.28,17.57Z"/><path class="cls-1" d="M27.18,16.33h0c.07,0,.13,0,.14.05l.06.25h0v0h0l.06.24,0,.1a.1.1,0,0,1-.13,0l-.07-.25h0v0h0l-.06-.24h0Z"/><path class="cls-1" d="M27.87,16.76h0l.22-.06L28,16.47a.23.23,0,1,0-.45.11.23.23,0,0,0,.28.17Zm.28-.33h0v0l0,.15v0s0,0,0,0l0,.15-.34.09a.36.36,0,0,1-.44-.25.35.35,0,0,1,.25-.44A.36.36,0,0,1,28.15,16.43Z"/><path class="cls-1" d="M13.59,18.21a1.36,1.36,0,0,1-.43-.23.38.38,0,0,1-.08-.17,1,1,0,0,1,0-.35,2.37,2.37,0,0,1,.13-.73h0a.29.29,0,0,1,.2.07.16.16,0,0,1,0,.07,2.21,2.21,0,0,1,0,.44,4.56,4.56,0,0,0,0,.54l0,.09c.28-.11.5-.31,1.08-.94a2.08,2.08,0,0,1,.39-.39.08.08,0,0,1,.1,0v0a10.41,10.41,0,0,1-.76,1,1.52,1.52,0,0,1-.62.47Zm-.12-1.71a.27.27,0,0,1-.21-.07h0a2.09,2.09,0,0,1,.08-.57c0-.06,0-.08.1-.09a.27.27,0,0,1,.24.08h0a1.5,1.5,0,0,1-.19.66Z"/><path class="cls-1" d="M5.33,20.94A1.1,1.1,0,0,1,5,20.7a17.81,17.81,0,0,1,1-3.28l0,0a.65.65,0,0,1,.44.18.34.34,0,0,1,.09.12,1.14,1.14,0,0,1-.06.4l-.09.41a8.87,8.87,0,0,1,.81-.95.92.92,0,0,1,.32-.22h.15a1.19,1.19,0,0,1,.41.17.53.53,0,0,1,.29.37,4.14,4.14,0,0,1,.07.45,1.55,1.55,0,0,0,0,.23l0,.05h0a10.73,10.73,0,0,0,1.31-1.41c.36-.42.49-.54.58-.57h.07a.81.81,0,0,1,.65.51l0,.08a5.54,5.54,0,0,1-.07,1A3.52,3.52,0,0,0,11,19h0a4.32,4.32,0,0,0,.78-.57,7.13,7.13,0,0,0,1.14-1.36c.16-.27.25-.41.34-.43s.09,0,.13.11l.06.11c0,.15,0,.32-.2.68a5.81,5.81,0,0,1-1.21,1.55,1.45,1.45,0,0,1-.66.43c-.27.07-.32.05-.64-.11s-.48-.27-.54-.52a3.47,3.47,0,0,1,0-1.24v0h0s-.1.08-.24.24a7,7,0,0,1-1.4,1.43,1.2,1.2,0,0,1-.82-.39.23.23,0,0,1,0-.1,3,3,0,0,1-.06-.38l0-.33-.17.22A12.56,12.56,0,0,0,5.93,20.8a.49.49,0,0,1-.19.3A1.65,1.65,0,0,1,5.33,20.94Z"/><path class="cls-1" d="M27.85,12.24h0l1.19.65s0,0,0,0l-.37.1s0,0,0,0l.33.43s0,0,0,.05l-.15.11h0a0,0,0,0,1,0,0l-.33-.42h0l-.19.35h0a0,0,0,0,1,0,0l-.35-1.31s0,0,0,0m0-.11a.13.13,0,0,0-.09.16l.35,1.31a.13.13,0,0,0,.16.1.13.13,0,0,0,.08-.07l.12-.22.25.32a.18.18,0,0,0,.16,0l0,0,.15-.11a.16.16,0,0,0,0-.22l-.25-.31.24-.07a.12.12,0,0,0,.1-.11.13.13,0,0,0-.07-.13l-1.18-.66a.17.17,0,0,0-.1,0Z"/><path class="cls-1" d="M3.88,17.53l.47,0,0-.82h.33l0,.82.65,0v.42L3.56,18l0-1.35h.33Z"/><path class="cls-1" d="M3.58,15.89l0-.41,1.78.17,0,.41Z"/><path class="cls-1" d="M5.72,13.92l-.56.23v0l-.09.35.49.11-.09.4-1.75-.4.18-.76c.11-.46.42-.7.81-.61a.57.57,0,0,1,.46.49l.66-.26ZM4.22,14l-.08.33.61.14.08-.33c.06-.24,0-.39-.22-.44S4.28,13.73,4.22,14Z"/><path class="cls-1" d="M6.64,11.56l-1-.44.59.84-.08.17-1,.12,1,.44L6,13,4.33,12.3,4.48,12l1.29-.15L5,10.78l.14-.31,1.63.74Z"/><path class="cls-1" d="M7.51,9.53,7,10.2l.21.36L7,10.9,6,9.2l.24-.33,1.92.41-.26.35Zm-.33-.08-.72-.18.38.64Z"/><path class="cls-1" d="M10,7.22l.21.26L9.1,8.35,8,7l1-.86.21.26L8.5,7l.25.3.64-.52.2.25L9,7.51l.26.32Z"/><path class="cls-1" d="M9.71,5.65l.35-.21.74,1.25.77-.45.17.29-1.13.66Z"/><path class="cls-1" d="M13.3,5.54l.12.31-1.3.51-.65-1.67,1.27-.49.12.31L12,4.85l.14.36.77-.3.12.3-.77.3.15.39Z"/><path class="cls-1" d="M13.61,4.86a.93.93,0,0,1,.77-1.11.91.91,0,0,1,.78.17L15,4.21a.6.6,0,0,0-.48-.12.58.58,0,0,0,.23,1.13.58.58,0,0,0,.4-.3l.31.18a.94.94,0,0,1-.66.47A.93.93,0,0,1,13.61,4.86Z"/><path class="cls-1" d="M16.23,3.89l-.58,0V3.58l1.56-.06v.33l-.57,0,.06,1.45h-.42Z"/><path class="cls-1" d="M18.81,5.47l-.28-.54h0l-.36,0-.06.5-.42,0,.23-1.78.77.1c.47.06.74.34.69.74a.59.59,0,0,1-.44.52l.33.62ZM18.6,4l-.33,0-.08.62.34,0c.25,0,.39-.07.41-.26S18.85,4,18.6,4Z"/><path class="cls-1" d="M19.88,4.74a1,1,0,0,1,1.86.61,1,1,0,0,1-1.86-.61Zm1.46.48a.56.56,0,1,0-.71.37A.55.55,0,0,0,21.34,5.22Zm0-1.48.41.13-.56.21L20.91,4Z"/><path class="cls-1" d="M24.2,5.64l-.87,1.57L23,7l-.25-1.38-.53,1-.35-.2.87-1.57.3.17.25,1.38.53-.95Z"/><path class="cls-1" d="M24.91,6.16l.33.25L24.15,7.83l-.33-.25Z"/><path class="cls-1" d="M25.2,7.5a.92.92,0,0,1,1.34,0,.94.94,0,0,1,.3.75l-.36,0a.59.59,0,0,0-.17-.46.57.57,0,0,0-.81.81.57.57,0,0,0,.47.16v.37a1,1,0,0,1-.75-.3A.92.92,0,0,1,25.2,7.5Z"/><path class="cls-1" d="M27,10.42l-.47-.69-.41.09-.24-.34,1.92-.38.24.34-1,1.68-.25-.35Zm.19-.29.39-.63-.72.16Z"/><path class="cls-1" d="M6.84,24.67,6.47,25l.52.65-.26.21-.52-.65-.51.4-.26-.32,1.41-1.11.84,1.06-.26.21Z"/><path class="cls-1" d="M8,25.52l.29.3L7,27.08l-.29-.29Z"/><path class="cls-1" d="M8.53,28.35l0-.6h0l-.28-.23-.31.4-.33-.26,1.11-1.41.61.48a.67.67,0,0,1,.21,1,.6.6,0,0,1-.64.22l0,.7ZM9.12,27l-.27-.21-.38.49.27.21c.2.16.37.14.49,0S9.32,27.13,9.12,27Z"/><path class="cls-1" d="M11,29.8l.5-.95-.88.54-.17-.08-.06-1-.49.93-.34-.18.82-1.59.31.16.08,1.3,1.1-.69.3.16L11.31,30Z"/><path class="cls-1" d="M13.39,30.27l-.8-.24-.26.33-.41-.13,1.28-1.48.4.12.25,1.94-.42-.12Zm0-.33-.07-.74-.47.57Z"/><path class="cls-1" d="M16.92,30.81l0,.33-1.38-.07.1-1.79,1.35.07,0,.34L16,29.63,16,30l.83.05,0,.32L16,30.34l0,.42Z"/><path class="cls-1" d="M17.5,29.34l.41,0L18,30.75l.89-.09L19,31l-1.3.12Z"/><path class="cls-1" d="M20.88,30.24l.08.33-1.35.32-.42-1.74,1.32-.32.08.33-.92.21.09.38.81-.19.07.31-.8.2.09.4Z"/><path class="cls-1" d="M21.24,29.54a.91.91,0,0,1,.54-1.22,1,1,0,0,1,.81,0l-.16.33a.56.56,0,0,0-.49,0,.55.55,0,0,0-.32.74.56.56,0,0,0,.75.32.59.59,0,0,0,.34-.37l.34.12a.94.94,0,0,1-.56.58A.92.92,0,0,1,21.24,29.54Z"/><path class="cls-1" d="M23.33,28l-.49.29L22.67,28l1.34-.8.17.29-.49.29L24.44,29l-.36.21Z"/><path class="cls-1" d="M26.33,27.58l-.58-.16h0l-.27.23.32.38-.32.27-1.15-1.37.6-.5a.66.66,0,0,1,1,0,.59.59,0,0,1,.08.67l.68.18Zm-1.23-.87-.25.22.4.48.25-.22c.2-.16.22-.33.1-.48S25.3,26.55,25.1,26.71Z"/><path class="cls-1" d="M26.08,24.53l.28-.33,0,.59-.2.24Zm.37,1.74a1,1,0,1,1,1.34-.15A.92.92,0,0,1,26.45,26.27Zm1-1.17a.56.56,0,1,0-.72.85.54.54,0,0,0,.8-.06A.54.54,0,0,0,27.44,25.1Z"/><path class="cls-1" d="M28.1,22.39l1.55.89-.17.29-1.38.24.94.54-.2.35-1.56-.89.17-.29,1.39-.24-.95-.54Z"/><path class="cls-1" d="M28.32,21.84l.16-.39,1.66.68-.16.39Z"/><path class="cls-1" d="M29.54,21.24a1,1,0,0,1-.14-1.81l.17.32a.58.58,0,0,0-.32.38.57.57,0,1,0,1.1.3.58.58,0,0,0-.08-.49l.3-.19a1,1,0,0,1-1,1.49Z"/><path class="cls-1" d="M30.71,17.94l-.08.83L31,19l0,.42-1.7-1,0-.41,1.86-.61,0,.43Zm-.33.1-.71.21.66.35Z"/><path class="cls-1" d="M31.84,9.81a.69.69,0,0,0,.49,0l-.13-.28A.22.22,0,0,1,32,9.7l-.14-.15Z"/><path class="cls-1" d="M33.89,16.36q0-.46-.06-.93a4.16,4.16,0,0,0-.44.24c0,.13,0,.15,0,.16h0c0,.05.15.08.06.17a.11.11,0,0,0,0,.17c.05,0,.12.09.19,0s.06,0,.11,0C33.71,16.47,33.69,16.34,33.89,16.36Z"/><path class="cls-1" d="M32.13,9.4l-.07-.13L32,9.36A.18.18,0,0,0,32.13,9.4Z"/><path class="cls-1" d="M33.32,15.06l.14.31c.27-.27.22-.24.31-.24h0a1.94,1.94,0,0,1,0-.24c-.06,0-.09,0-.1,0-.13-.51-.09-.44-.06-.48a.1.1,0,0,1,.09,0c0-.27-.09-.55-.14-.82,0,.06-.09.06-.14,0s0-.06,0-.06l.14,0a16.79,16.79,0,0,0-.44-1.69c-.17-.53-.36-1-.57-1.55l-.09.07a.15.15,0,0,1,0-.2l-.1-.24a1.25,1.25,0,0,1-.63.32c0,.1.12.17,0,.25s-.07,0-.08-.06q.29.64.51,1.32c.08-.08.2-.1.3-.17.12.18,0,.19-.26.27,0,.08.05.16.07.24a16.4,16.4,0,0,1,.65,3C33,15,33.13,15,33.32,15.06Zm.26-.06-.16.09C33.46,14.94,33.46,14.94,33.58,15Zm-.09-.66c-.14.13-.14.13-.29,0Zm-1.44-4c0-.15.11-.1.18,0Zm.28,1.11c-.07,0,0,0-.1-.26C32.38,11.32,32.38,11.32,32.33,11.48Zm.26-.26c-.07,0-.07,0,0-.14C32.65,11.12,32.65,11.09,32.59,11.22Z"/><path class="cls-1" d="M.32,19.38l.2-.09C.45,19.27.39,19.27.32,19.38Z"/><path class="cls-1" d="M31.77,24.83c0-.06,0,0,.12-.16,0,0,.08,0,.09.06v0c.12-.23.23-.45.33-.68a.14.14,0,0,1,.07-.14l.06-.13c-.09,0-.07,0-.19-.07l.17-.19,0,.19a17,17,0,0,0,1.43-7.22c-.15,0-.33-.14-.48-.08s-.12-.07-.17-.13,0-.1-.08-.14-.12-.19.07-.29l.13-.06h0a2.83,2.83,0,0,1-.38-.24,16.15,16.15,0,0,1-.6,5.89l.12.1c-.11.05-.13.06-.15,0-.09.32-.2.64-.31,1,.13.09.22.24.39.13l.16.22a2.28,2.28,0,0,1-.1.21c-.16-.05-.29.17-.47,0l.2-.13a3.13,3.13,0,0,0-.23-.32l-.05.12v0h0l-.21.51c.06.2.09.25.07.27s0,0,.08.15c-.13,0-.16-.05-.16-.14l-.09-.06-.21.45a.82.82,0,0,1,0,.14l0,0c-.13.26-.26.52-.41.77A.4.4,0,0,1,31,25,.26.26,0,0,1,30.9,25a17.66,17.66,0,0,1-1.14,1.72l0,0c0,.13-.07.2-.18.19a15.84,15.84,0,0,1-4.2,3.78.15.15,0,0,1-.06.14.11.11,0,0,1-.14,0,15.6,15.6,0,0,1-3.45,1.55A16.1,16.1,0,0,1,1.6,21.78a14.49,14.49,0,0,1-.47-1.89l-.22.05a.89.89,0,0,0,0-.29.56.56,0,0,0-.22-.18l-.23.13-.11-.22h0l-.1-.05L.43,19c.06.14.17.2.15.33a.39.39,0,0,1,.38.15l.1,0a16.57,16.57,0,0,1-.2-2.1c-.06,0-.06.06,0-.13h0a16,16,0,0,1,1.21-6.44l0-.09.09,0a1.54,1.54,0,0,1,.08-.19.2.2,0,0,0-.11,0,.27.27,0,0,1,.14,0c.21-.47.44-.93.68-1.37a1.29,1.29,0,0,0-.17-.16A.18.18,0,0,1,3,8.82l.07,0L3.2,8.6l-.06-.07.12,0,.18-.28a.16.16,0,0,1,0-.07A16.08,16.08,0,0,1,25.76,3.49h0a16,16,0,0,1,3,2.5s.13,0,.11.11c.37.41.72.83,1,1.27a.06.06,0,0,0,.07,0c.09-.09,0-.16,0-.24s0-.13-.05-.19,0-.06.44.28c-.18.11-.17,0-.11.62.11,0,.28-.09.4.08l-.3.11a14.72,14.72,0,0,1,1.19,2.13l.09-.07c-.2-.37-.27-.45,0-.31l.07-.4.12,0L32,9.15c-.13-.24-.26-.48-.4-.72,0,0-.08.17-.2,0a1,1,0,0,1-.09-.19h0l.19,0A17.19,17.19,0,0,0,28.94,5c0,.16-.08.31-.06.51a1,1,0,0,1-.15-.56l.13,0A17,17,0,0,0,16.17,0l-.08.09A.39.39,0,0,1,16,0a16.57,16.57,0,0,0-4.12.75,16.83,16.83,0,0,0-4.17,2A.84.84,0,0,1,7.57,3a.65.65,0,0,1-.2,0l-.3.21c.26,0,.49-.15.55,0s0,.15-.09.19a.54.54,0,0,0-.06.11,1.38,1.38,0,0,0-.72-.06c-.37.29-.74.59-1.09.9a.43.43,0,0,1,0,.05l-.1,0c-.21.19-.41.39-.61.59.08.07.07.17,0,.29l-.2-.14a16.94,16.94,0,0,0-3.19,4.6c.08,0,.14.1.1.16l-.2.25-.07,0A16.89,16.89,0,0,0,.29,13.88c0,.11,0,.1,0,.16A15.73,15.73,0,0,0,0,16l.18.16-.2.16v.1l0-.12.16.21L0,16.56v.29H.08c.19,0,.11-.34.25.26-.21.18-.23,0-.33-.07,0,.23,0,.46,0,.69l.07-.21.1.16L0,17.74c0,.2,0,.39,0,.59l.16-.1c0,.09.05,0,0,.27l-.12-.07A16.85,16.85,0,0,0,4.9,28.86l.24-.07c-.07.17-.07.1,0,.3a17,17,0,0,0,16.49,4.15h.05l.36-.11a16.19,16.19,0,0,0,1.61-.6v0h.08a16.87,16.87,0,0,0,8.21-7.61A.1.1,0,0,1,31.77,24.83Zm2-7.56-.16.35-.09-.36Zm-1.12,5.92c-.17.27-.1.24-.29.19C32.41,23.21,32.5,23.14,32.69,23.19Zm-1.38-15h0c-.12.12-.23-.06-.23-.22l.23.22Zm-.23-.46c0,.07,0,.08-.26-.09C31,7.62,31,7.7,31.08,7.75Zm-1.58-2c.12.13.12.13-.12.22ZM22.73,1.29l0-.2C22.84,1.13,22.77,1.19,22.73,1.29Zm-.94.1s0,.1,0,.11-.14-.06-.2-.15C21.68,1.3,21.76,1.28,21.79,1.39ZM21.46.65l.05.09,0,0C21.41.65,21.43.66,21.46.65ZM15.34.2c.1,0,.08,0,.05.1S15.33.31,15.34.2ZM4.23,6.36c-.07.06-.11,0-.16-.05s.07,0,.17,0S4.25,6.34,4.23,6.36Zm.53-.93c.11,0,.2.07.2.2a.14.14,0,0,1-.21,0S4.75,5.49,4.76,5.43Zm-.3.7L4.15,6C4.38,5.93,4.39,5.93,4.46,6.13ZM4.12,6c.08,0,0,.13-.08.3h0C3.88,6.07,4.06,6,4.12,6ZM3.71,7.28s0,0-.1.07S3.58,7.32,3.71,7.28Zm-.4.81,0-.18L3.55,8C3.52,8.14,3.42,8.09,3.31,8.09Zm0-.56c0,.06,0,.11,0,.12a.12.12,0,0,1-.1,0s0-.07,0-.11Zm-.48.36c.11.21.1.26-.14.45,0-.05,0-.12,0-.14S2.76,8,2.88,7.89Zm-.34.21c0,.22,0,.22-.17.25Zm0,1.31h0a.85.85,0,0,1,.15-.13S2.58,9.2,2.45,9c.18,0,.21.15.34.22a.45.45,0,0,1-.13,0,1,1,0,0,1-.06.26l-.1-.14h0v.23l-.15-.22Zm-.37-.25c.11.16,0,.3,0,.45s0,.06-.25-.33Zm-.45,1.33a1.11,1.11,0,0,0,0-.26c.25.06.14.27.19.42.15-.11.12-.1.15-.08-.13.23-.07.2-.25.13S1.63,10.65,1.67,10.49Zm-.35.81c-.13.08-.2.1-.29-.07ZM.76,15.65c0,.14-.08.2-.22.26C.59,15.77.57,15.64.76,15.65Zm-.15.63,0,0c-.09.08-.07.07-.11,0ZM.38,17.54l.13.22C.31,17.73.31,17.73.38,17.54Zm.34,3.38c.09-.12-.11-.28.08-.38C.73,20.66.92,20.82.72,20.92ZM5,28.74c-.06-.06-.07,0,.09-.18C5.07,28.69,5,28.72,5,28.74Zm.4-.51c-.1,0-.07,0-.09-.14C5.38,28.14,5.37,28.09,5.35,28.23ZM7,30.51c.07-.13,0-.1.14-.08S7.08,30.51,7,30.51Zm14.36,2.58c-.14-.1-.13-.07-.09-.13C21.36,33.06,21.35,33,21.31,33.09Zm3.14-1.24h.24C24.61,32,24.61,32,24.45,31.85Zm.15-.53h0s-.06.1-.09.1-.1-.06-.07-.16l.16.06h0c.17,0,.17,0,.24.21C24.64,31.6,24.66,31.41,24.6,31.32Zm1.29-.42v0L26,30.8C26,30.89,26.06,30.88,25.89,30.9Zm.28-.06.25-.19C26.77,30.75,26.29,31,26.17,30.84Zm4-4.41.08.2C29.91,26.71,29.92,26.74,30.14,26.43Zm1.09-1.21c-.13-.23-.1-.26.24-.31C31.5,25.1,31.34,25.14,31.23,25.22Z"/><path class="cls-1" d="M30.8,23.87h0a.35.35,0,0,0,0,.09l.16-.31a.22.22,0,0,1,0-.1C30.92,23.64,30.75,23.57,30.8,23.87Z"/><path class="cls-1" d="M4.11,8.65l-.22-.08-.06.1s0,0,0,0S4,8.73,4.11,8.65Z"/><path class="cls-1" d="M30.45,24.4l.05.1,0-.07Z"/><path class="cls-1" d="M30.8,23.88h0s-.08-.09-.27-.34h0l-.06.13C30.63,23.64,30.61,23.91,30.8,23.88Z"/><path class="cls-1" d="M8.34,29.41a.41.41,0,0,0,.16,0,14.94,14.94,0,0,1-5.95-8q-.22-.75-.39-1.5A.22.22,0,0,1,2,20l.08-.24h0c-.06-.3-.11-.61-.15-.91h0s0-.06,0-.06a15.08,15.08,0,0,1,1.52-8.68v0c-.11-.33-.21-.23-.06-.32l.16.18a1.91,1.91,0,0,1,.15-.28h0c-.06-.19.09-.22.13-.3A.23.23,0,0,1,4,9.26L4.1,9a1.1,1.1,0,0,1-.37-.2l-.15.24a.1.1,0,0,1,.09,0c0,.13-.13.1-.16.11v0c0,.12,0,.29-.14.26-.24.43-.46.88-.66,1.34l.15.27-.18.07c0,.1.11.21,0,.31s-.1.21-.27.19c0-.12.09-.24.11-.35A15.53,15.53,0,0,0,1.57,19c.08,0,.15-.06.23-.09h.11c-.15.14-.18.25-.31.27a16.54,16.54,0,0,0,.54,2.37A15.45,15.45,0,0,0,8.51,30C8.44,29.78,8.17,29.68,8.34,29.41Z"/><path class="cls-1" d="M30.49,24.1c0-.09,0-.08-.08-.07S30.42,24.1,30.49,24.1Z"/><path class="cls-1" d="M4.27,8.39c0,.11,0,.21.06.29a15.08,15.08,0,0,1,24-1.6L28.79,7c.19.22-.09.32-.35.19l.27.33.15-.09c.14.11.13.35.39.28,0,.08,0,.05-.24.2a14.92,14.92,0,0,1,2.34,4.54,15.53,15.53,0,0,1,.55,2.46l.06-.07c-.07-.59,0,0,.34-.17a16.28,16.28,0,0,0-.54-2.35,15.83,15.83,0,0,0-1.64-3.56l-.07.1a.34.34,0,0,1-.1-.35,14.63,14.63,0,0,0-1.3-1.72l0,0a.14.14,0,0,1-.06-.14A15.63,15.63,0,0,0,20.92,2h0A15.48,15.48,0,0,0,4,8.45,1,1,0,0,1,4.27,8.39ZM30.05,9c0,.08,0,.07-.09.06S30,9,30.05,9ZM28.89,7.33c-.15,0-.1-.09-.1-.13h0c.05,0,0,0,.12.08S28.91,7.33,28.89,7.33ZM23.44,3c-.05.17,0,.12-.17.16C23.37,3,23.33,3,23.44,3ZM4.36,7.94l.2.15C4.4,8.14,4.32,8.14,4.36,7.94Z"/><path class="cls-1" d="M30.84,23.48l.11.08,0,0c.12-.24.23-.49.33-.74a.27.27,0,0,0-.1.06c-.06-.14,0-.2.07-.26h.11a15.44,15.44,0,0,0,.91-7.85.28.28,0,0,1-.21.1l-.05.21-.12,0a15.07,15.07,0,0,1-.49,6.07c.1,0,.14-.16.21-.26l.2.1a.51.51,0,0,1-.45.31c-.14.44-.29.87-.46,1.3.09,0,.13.13.18.21l-.26,0-.06.15A.27.27,0,0,0,31,23l.08.33c-.19,0-.19,0-.27-.3h0c-.08.17-.15.33-.23.49h0C30.55,23.43,30.72,23.6,30.84,23.48ZM32,15.4c-.09-.21.13-.29.16-.45.15.09.08.22.12.32Z"/><path class="cls-1" d="M28.89,7.72l0,0v0Z"/><path class="cls-1" d="M25.19,29.91l.16.09.25-.16,0-.13-.17-.15.22-.08.06-.28a15.7,15.7,0,0,1-1.84,1.14s0,0,0,.06-.06.06-.07.05l-.05-.05-.14.06c.14,0,.15.11.09.21l-.09-.21a15,15,0,0,1-15-.88c.06.16,0,.28-.19.39l.21.13a0,0,0,0,1,0,0h.06a.11.11,0,0,1,0,.06,15.5,15.5,0,0,0,12.83,1.61,15.75,15.75,0,0,0,3.58-1.64C25.14,30.06,25.13,30,25.19,29.91Zm.23-.32c0,.15-.11.15-.24.16C25.26,29.6,25.26,29.6,25.42,29.59ZM18.66,32.1c0-.14,0-.12,0-.13C18.71,32.12,18.72,32.09,18.66,32.1ZM22.54,31c.12,0,.15,0,.18.14C22.55,31.05,22.6,31.09,22.54,31Z"/><path class="cls-1" d="M30.14,24.65c.12-.12.18-.16.17-.2a.25.25,0,0,1,0-.25s0-.11,0-.16A15,15,0,0,1,25.9,29.1s.06.06.06.13a2.07,2.07,0,0,0,0,.36,15.58,15.58,0,0,0,4.38-4.81Zm-.25.25.18.08C30,25,30,25,29.89,24.9Z"/><polygon class="cls-1" points="27.43 18.43 27.42 18.44 27.43 18.43 27.43 18.43"/><path class="cls-1" d="M13.82,27.05s0-.07,0-.12.07.11.05.15a11,11,0,0,0,1.29.31l.1-.07v.08c.23,0,.46.07.7.09,0-.06,0-.1.1-.12a.29.29,0,0,1,.34.15h.34s0,0,0,0a.1.1,0,0,1,.07,0h0A10.34,10.34,0,0,0,20.12,27a10.48,10.48,0,0,0,5.8-4.49l-.07-.08,0,0,0,0a.22.22,0,0,1,.06-.15l.06.06a10.5,10.5,0,0,0,1.38-3.82l-.08,0s0-.06,0-.07l-.14.05a.14.14,0,0,1,.06.15.47.47,0,0,1-.37.19A10.16,10.16,0,0,1,20,26.64a9.88,9.88,0,0,1-3.16.46l0,.22a.56.56,0,0,0-.44,0c-.08,0-.2,0-.32-.06a.25.25,0,0,0,0-.19A10.25,10.25,0,0,1,9.66,24l-.45.14A10.6,10.6,0,0,0,13.82,27.05Zm13-7.36c.06.11,0,.09,0,.11l0-.1ZM26,21.78s.09,0,.09,0a.15.15,0,0,1,0,.1s0,0-.08,0ZM22.09,26c.09.11.09.09,0,.12C22,26,22.05,26,22.09,26Z"/><path class="cls-1" d="M14,26.09l.49-.1a.35.35,0,0,1-.15.22,9.63,9.63,0,0,0,9.45-2.47c-.06-.06,0,0,0-.1l0,0,.09-.1a.38.38,0,0,1-.13-.06c.21-.17.2-.14.12-.15l.09-.31L23.85,23l.07-.16s0,0,.08.21L24,23c.19.12.07-.12.14-.14a.24.24,0,0,1,.17.27,10.65,10.65,0,0,0,.64-.86h0l0,0a9.71,9.71,0,0,0,1.41-3.48l-.94.29a8.25,8.25,0,0,1-.43,1.3l.27.08a.14.14,0,0,1-.07.14c.05,0,0,0,0,.08l-.09,0-.1.05-.11-.1-.05.1a1.19,1.19,0,0,1,.1.16c-.11.05-.17.08-.21.06-.06.13-.13.26-.2.38s.11.11.16.16l0,.06a1,1,0,0,1-.18-.09,8.64,8.64,0,0,1-1.77,2.14c.08.06.12.08.13.11a2.93,2.93,0,0,1,.13.51.59.59,0,0,0-.32-.17.66.66,0,0,1-.21-.12c.12-.12.3-.1.26-.31a8.77,8.77,0,0,1-11.56,0l-.94.29A9.65,9.65,0,0,0,14,26.11Zm11.93-6.63c.11.15.11.15-.06.29Zm-.24.55-.13-.27C25.77,19.77,25.78,19.8,25.67,20Zm-.41.07c.08-.06.09-.11.24-.06s0,.07,0,.08A.2.2,0,0,1,25.26,20.08Zm-.74,1.49.24.12-.29.25C24.27,21.79,24.55,21.72,24.52,21.57Zm-.36.72a.81.81,0,0,1,0-.31.3.3,0,0,1,.19.37s0,.11.05.17,0,.05-.16-.08l-.15.17L24,22.47C24.08,22.44,24.2,22.45,24.16,22.29Zm-.49.37c.12.08.11,0,.06.17C23.64,22.78,23.66,22.82,23.67,22.66Zm-3,2.64c.17.18.17.18,0,.31C20.48,25.49,20.69,25.44,20.67,25.3Zm-6.37.2c0,.1,0,.07-.09.09S14.19,25.52,14.3,25.5Z"/><path class="cls-1" d="M8.56,13.15l.2.11v-.15Z"/><path class="cls-1" d="M9,12.9s-.08-.07-.11-.06a.14.14,0,0,0-.07.11c0,.05,0,.1.18.33a2,2,0,0,0,.1-.21C9,13,9,13,9,12.9Z"/><path class="cls-1" d="M8.76,13.27l-.09.07c.09.13.11.17.22.16l.1-.21A.16.16,0,0,1,8.76,13.27Z"/><path class="cls-1" d="M14.06,7.77a9.38,9.38,0,0,0-2.43,1.16l.1,0s0,.06,0,.06-.11,0-.1-.1a9.67,9.67,0,0,0-3,3.23L8.73,12C9,12,9,12,9,12.16l-.38,0-.06.11h0v0s0,0,.15,0l-.16.11c0-.07,0-.11,0-.13h0a9.62,9.62,0,0,0-.88,2.21h0l.42.14.46-.14c.05-.17.1-.33.16-.5-.52-.41,0-.88-.32-.52l-.12-.14.25-.27c-.19-.15-.21-.25-.07-.51.26.06.56.05.73.33h0l.14-.26a.48.48,0,0,1,.08-.18v0a8.76,8.76,0,0,1,13.12-2.39l1-.3A9.65,9.65,0,0,0,14.06,7.77ZM8.41,14.38c.14.11.13.08.07.14C8.36,14.39,8.37,14.42,8.41,14.38ZM8,13.78l.21.08C8,13.93,8,13.88,8,13.78ZM9,12l0-.17C9.08,11.86,9.08,11.86,9,12Zm.21.28c0,.06-.11,0-.15,0L9.23,12C9.22,12.11,9.25,12.2,9.21,12.25Zm9.26-4.42c-.17-.06-.11,0-.25-.32,0,0,.07,0,.09,0S18.5,7.66,18.47,7.83Zm.59,0c0-.13,0-.11.12-.09C19.15,7.79,19.19,7.77,19.06,7.78Z"/><path class="cls-1" d="M17.29,6.52l.18,0s0,.06,0,.08-.06.07-.06.1a.28.28,0,0,0,0,.08l.25,0h0A11.51,11.51,0,0,1,19.13,7c0-.1.1-.2.14-.19s.14.1.23,0a.13.13,0,0,0,0-.17,10.23,10.23,0,0,0-2.14-.31Zm1.12.32c-.14,0-.1-.09-.09-.14h0c.05,0,0,0,.13.08S18.43,6.84,18.41,6.84Zm-.09-.36c.21.25-.19.35-.47.12Z"/><path class="cls-1" d="M19.75,7.19A10.27,10.27,0,0,1,24,9.67l.46-.14a10.71,10.71,0,0,0-4.71-2.77C19.71,6.8,19.71,6.84,19.75,7.19Zm.85.07c0,.07,0,.08-.26-.09C20.49,7.13,20.54,7.21,20.6,7.26Z"/><path class="cls-1" d="M7.17,13.23c-.12,0-.1,0-.11,0a10.83,10.83,0,0,0-.54,1.95L7,15c.06-.32.14-.63.23-.94L7.13,14h.1A10.3,10.3,0,0,1,9.74,9.8V9.64a.57.57,0,0,1,.08.08A10.09,10.09,0,0,1,12.14,8a2.35,2.35,0,0,1,0-.26l.13.18.46-.22,0,0,0,0,.16-.07-.09-.14c.14,0,.14,0,.2-.18.12.08.08.17,0,.25l.19-.07c0-.06,0-.05.05-.09l0,.06.53-.19a10.38,10.38,0,0,1,2.61-.46,2.07,2.07,0,0,0,.1-.43,10.76,10.76,0,0,0-2.83.48,9.56,9.56,0,0,0-.94.35v0l-.08,0a10.58,10.58,0,0,0-5.7,6C7.17,13.17,7.14,13.16,7.17,13.23ZM7,14.61c0-.16,0-.14.11-.11C7.06,14.63,7.08,14.59,7,14.61Zm.1-.85c-.17-.09-.15-.06-.11-.14C7.14,13.71,7.12,13.68,7.08,13.76Z"/><path class="cls-1" d="M16.74,6.8h.5l-.18-.23.1-.2h-.44a.33.33,0,0,1,.05.23A1.38,1.38,0,0,0,16.74,6.8Z"/><path class="cls-1" d="M5.28,36.68c8.9-1.23,17.79-2.48,26.72-3.44S49.64,31.55,58.49,31c17.69-1.05,35.44-1.24,53.15-.6,10,.35,20,.84,29.92,1.63,1.09.08,1.06-1.57,0-1.68a462.59,462.59,0,0,0-53.67-2.52,528.6,528.6,0,0,0-53.36,3.26c-9.9,1.11-19.81,2.42-29.6,4.28-.87.16-.48,1.4.35,1.29Z"/></g></g></svg>