<svg xmlns="http://www.w3.org/2000/svg" width="557.421" height="396.994" viewBox="0 0 557.421 396.994">
  <g id="Grupo_2984" data-name="Grupo 2984" transform="translate(-405 -100)">
    <ellipse id="Elipse_140" data-name="Elipse 140" cx="278.71" cy="18.973" rx="278.71" ry="18.973" transform="translate(405 447.326)" fill="#41709e" opacity="0.17" style="mix-blend-mode: color-burn;isolation: isolate"/>
    <path id="Trazado_7700" data-name="Trazado 7700" d="M907.6,195.2V477H716.166c-2.1-11.246-12.288-20.635-23.759-21.452-7.715-.571-16.165,2.184-22.86-1.694-6.919-4-8.593-13.1-9.062-21.064-.49-7.98-.878-16.859-6.634-22.391-5.511-5.266-13.941-5.531-21.554-5.694-12.614-.286-26.677-1.837-34.862-11.43-6.613-7.8-7.511-19.207-4.837-29.066s8.43-18.533,14.084-27.044q7.623-11.451,15.267-22.9c5.96-8.94,12.185-19.615,8.8-29.82-4.47-13.492-23.126-17.84-28.167-31.148-3.245-8.531.061-18.737-4.123-26.86-2.919-5.654-8.961-9.083-15.084-10.859a44.96,44.96,0,0,0-36.311,5.266c-6.674,4.286-12.083,10.287-18.635,14.757s-15.063,7.348-22.391,4.368c-7.613-3.1-11.614-11.348-17.982-16.553-6.7-5.45-15.859-7.246-24.452-6.328a53.858,53.858,0,0,0-11.736,2.736V195.2Z" transform="translate(5.581 -12.196)" fill="#fafafa"/>
    <g id="Grupo_2965" data-name="Grupo 2965" transform="translate(5.581 -12.196)">
      <g id="Grupo_2952" data-name="Grupo 2952">
        <rect id="Rectángulo_1016" data-name="Rectángulo 1016" width="147.802" height="82.87" transform="translate(672.653 216.655) rotate(10.216)" fill="#dff3fe"/>
      </g>
      <g id="Grupo_2964" data-name="Grupo 2964">
        <g id="Grupo_2953" data-name="Grupo 2953">
          <path id="Trazado_7701" data-name="Trazado 7701" d="M676.543,275.375c7.886.332,15.771.654,23.644,1.225q11.649.844,23.248,2.252,23.2,2.8,46.055,7.831c8.575,1.878,17.126,3.873,25.613,6.116.926.245,1.162-1.19.264-1.452a407.961,407.961,0,0,0-46.014-10.62,466.129,466.129,0,0,0-46.643-5.572c-8.741-.6-17.509-1.017-26.272-.954-.771.006-.633,1.143.105,1.174Z" fill="#ba2081"/>
        </g>
        <g id="Grupo_2954" data-name="Grupo 2954">
          <path id="Trazado_7702" data-name="Trazado 7702" d="M730.592,267.673c3.487-6.374,7.121-10.858,10.853-13.463a14.955,14.955,0,0,1,1.62-.955,1.92,1.92,0,0,1,1-.235c.308.056.6.353.847.864a1.078,1.078,0,0,1,.123.268.835.835,0,0,1,0,.269l-.067.233a13.494,13.494,0,0,1-.94,1.667c-.519.837-1.127,1.755-1.8,2.736-.692.977-1.315,1.844-1.893,2.6a37.021,37.021,0,0,1-3.573,3.884,40.17,40.17,0,0,1-4.138,3.486l-.99.727-.806,1.47c-1.271,2.538-2.416,5.2-3.479,7.944a38.843,38.843,0,0,0-2,6.3,4.64,4.64,0,0,0-.1,1.109l-.008.047a1.4,1.4,0,0,1,.01.345l.02.028,0,.024.019.028c.095.017.36-.229.776-.766s.845-1.145,1.288-1.824a25.463,25.463,0,0,0,2.061-4.06,22.994,22.994,0,0,0,1.2-4.168,14.859,14.859,0,0,0,.252-2.331,4.835,4.835,0,0,0-.2-1.727l.006-.17a.185.185,0,0,1,.046-.115,1.413,1.413,0,0,1,.42-.021,6.612,6.612,0,0,1,.716.106,6.847,6.847,0,0,0,3.441-.33c.311-.091.706-.24,1.2-.419.474-.183.929-.394,1.384-.605a7.6,7.6,0,0,0,.942-.466,1.1,1.1,0,0,1,.669-.173c.19.035.282.2.254.488-.039.213-.459.5-1.246.925a15.626,15.626,0,0,1-2.672,1.082,6.3,6.3,0,0,1-3.262.289l-.9-.164a8.374,8.374,0,0,1,.24,1.783,13.723,13.723,0,0,1-.272,2.573,25.7,25.7,0,0,1-1.188,4.243,22.389,22.389,0,0,1-2.006,4.021,12.293,12.293,0,0,1-1.671,2.318,1.408,1.408,0,0,1-1.169.5,4.231,4.231,0,0,1-.765-.237,1.772,1.772,0,0,1-.7-.446,2.265,2.265,0,0,1-.362-.7,1.469,1.469,0,0,1-.063-.6,9.854,9.854,0,0,1,.138-1.029c.039-.214.082-.451.106-.716a52.529,52.529,0,0,1,4-11.23l1.553-3.417Zm3.379-1.2c.089-.081.2-.159.317-.26a40.306,40.306,0,0,0,8.58-10.128c.235-.349.406-.612.516-.813.105-.177.179-.31.22-.4.036-.067.077-.157.114-.224l.037-.067-.276.17a14.738,14.738,0,0,0-2,1.572,30.642,30.642,0,0,0-2.3,2.253c-.52.567-1.126,1.339-1.865,2.307s-1.367,1.859-1.939,2.711a5.308,5.308,0,0,0-.3.459c-.267.392-.539.809-.843,1.268s-.552.88-.759,1.21a3.616,3.616,0,0,0-.345.549l-.009.048A4.27,4.27,0,0,0,733.971,266.474Z" fill="#222"/>
          <path id="Trazado_7703" data-name="Trazado 7703" d="M738.186,276.577a6.047,6.047,0,0,1-1.4-1.872,2.069,2.069,0,0,1-.011-.884,4.724,4.724,0,0,1,.621-1.529,11.8,11.8,0,0,1,2.044-2.887l.123,0a1.317,1.317,0,0,1,.727.72.7.7,0,0,1,.011.345,9.474,9.474,0,0,1-.908,1.893,15.582,15.582,0,0,0-1.113,2.346l-.078.427c1.454.093,2.8-.323,6.588-1.865a12.677,12.677,0,0,1,2.486-.871.337.337,0,0,1,.3.4.358.358,0,0,1-.087.2,54.254,54.254,0,0,1-5.358,2.921,7.664,7.664,0,0,1-3.618.763A.767.767,0,0,1,738.186,276.577Zm2.95-7.6a1.232,1.232,0,0,1-.754-.7l-.011-.075a10.057,10.057,0,0,1,1.52-2.3c.162-.215.336-.232.645-.176a1.359,1.359,0,0,1,.851.841l0,.023c-.073.4-1.844,2.458-2.176,2.4Z" fill="#222"/>
          <path id="Trazado_7704" data-name="Trazado 7704" d="M745.511,277.394c-.4-.489-.509-.705-.453-1.013a27.18,27.18,0,0,1,1.906-4.285,38.1,38.1,0,0,1,3.75-5.4.426.426,0,0,1,.254-.051.9.9,0,0,1,.544.515.572.572,0,0,1,.019.3c-.069.379-.485,1.185-2.128,4.023a16.832,16.832,0,0,0-1.076,2.01c-.009.047.011.075.034.079.143.026.567-.289,1.3-.793,2.523-1.747,4.294-2.454,5.527-2.229a1.9,1.9,0,0,1,1.054.534,3.491,3.491,0,0,1,1.124,2.312.322.322,0,0,1-.274.293l-.052.015c-.237-.043-.589-.67-.541-.931.026-.143-.134-.343-.231-.483a1,1,0,0,0-.519-.242,5.494,5.494,0,0,0-2.952.737,23.42,23.42,0,0,0-4.205,3.181c-1.844,1.919-2.217,2.219-2.407,2.184A1.749,1.749,0,0,1,745.511,277.394Z" fill="#222"/>
          <path id="Trazado_7705" data-name="Trazado 7705" d="M755.388,278.725c-.323-.378-.576-.742-.554-.861a39.678,39.678,0,0,1,5.318-5.8l.122,0a1.41,1.41,0,0,1,.738.8.567.567,0,0,1,.062.33,2.272,2.272,0,0,1-.506.765l-.583.777a18.194,18.194,0,0,1,2.59-1.171,2.116,2.116,0,0,1,.886-.158,1.086,1.086,0,0,1,.319.132,2.769,2.769,0,0,1,.671.759,1.142,1.142,0,0,1,.25,1.05,6.732,6.732,0,0,1-.3,1,2.27,2.27,0,0,0-.185.481l0,.123.023.005a26.085,26.085,0,0,0,4.095-1.633c1.15-.526,1.54-.651,1.753-.612a.44.44,0,0,1,.158.078,1.913,1.913,0,0,1,.843,1.7l-.058.185a11.424,11.424,0,0,1-1.124,2,10.99,10.99,0,0,0-.916,1.671l-.005.024.024,0a10.061,10.061,0,0,0,2.182-.412,17.472,17.472,0,0,0,3.692-1.7c.588-.408.916-.593,1.106-.559.118.022.168.154.181.352l0,.293c-.065.356-.339.649-1.076,1.2a12.964,12.964,0,0,1-4.022,2.038,3.3,3.3,0,0,1-1.783.239c-.617-.112-.722-.205-1.216-.858a1.837,1.837,0,0,1-.615-1.607,8.33,8.33,0,0,1,1.294-2.533l.033-.043-.02-.028a2.319,2.319,0,0,0-.733.258,16.3,16.3,0,0,1-4.308,1.594,2.743,2.743,0,0,1-1.324-1.613.681.681,0,0,1,.019-.242,6.359,6.359,0,0,1,.25-.836l.253-.714-.567.289a28.435,28.435,0,0,0-5.594,3.54,1.11,1.11,0,0,1-.692.438A3.14,3.14,0,0,1,755.388,278.725Z" fill="#222"/>
          <path id="Trazado_7706" data-name="Trazado 7706" d="M774.882,281.339c-.623-.751-.77-1.022-.627-1.8.366-2.016,4.08-5.458,5.526-5.194.783.142,1.807,1.382,2.2,2.7l.188.72a9.837,9.837,0,0,0-.876,2.658l-.035.19c-.1.546-.049.677.188.72l.138.05a6.185,6.185,0,0,0,2.993-1.1c1-.528,7.922-4.789,8.159-4.746.166.03.211.186.187.451-.064.356-6.578,4.544-7.74,5.41-1.639,1.2-2.333,1.512-3.069,1.378-.592-.108-.808-.27-1.494-1.08a3.125,3.125,0,0,1-.606-1.115l-.066-.576c-1.842,1.233-3,2.053-4.009,1.967l-.242-.02C775.393,281.9,775.268,281.776,774.882,281.339Zm4.526-2.926a9.54,9.54,0,0,0,1.788-1.881c.021-.118-.587-.547-.943-.612-.972-.177-3.917,2.547-4.545,4.246l-.138.489A15.077,15.077,0,0,0,779.408,278.413Z" fill="#222"/>
        </g>
        <g id="Grupo_2957" data-name="Grupo 2957">
          <g id="Grupo_2955" data-name="Grupo 2955">
            <path id="Trazado_7707" data-name="Trazado 7707" d="M758.186,288.735l.011-.008a1.281,1.281,0,1,1-.532.825l.4-2.167a.183.183,0,0,1,.36.066Zm.577,1.948a.916.916,0,1,0-.589-.38A.882.882,0,0,0,758.763,290.683Z" fill="#487fc9"/>
            <path id="Trazado_7708" data-name="Trazado 7708" d="M761.224,291.314l-.487-2.234a.171.171,0,0,1-.005-.087.184.184,0,0,1,.212-.148.181.181,0,0,1,.119.076.2.2,0,0,1,.031.075l.412,1.883,1.048-1.618a.187.187,0,0,1,.057-.059.176.176,0,0,1,.136-.029.179.179,0,0,1,.117.076.182.182,0,0,1-.006.217l-1.928,2.977a.182.182,0,0,1-.054.057.182.182,0,0,1-.256-.045.185.185,0,0,1,.005-.217Z" fill="#487fc9"/>
          </g>
          <g id="Grupo_2956" data-name="Grupo 2956">
            <path id="Trazado_7709" data-name="Trazado 7709" d="M779.353,294.475h0l.039-.006a1.118,1.118,0,1,0-.916-1.308l-.2,1.1,1.044.19Zm-1.453-1.419h0a1.684,1.684,0,1,1,1.348,2l-1.1-.2-.055.307a.512.512,0,0,1-.626.305l.069-.381.019-.034.192-1.056a.119.119,0,0,1-.024.059l.018-.1a.161.161,0,0,1,.026-.071l.132-.725A.249.249,0,0,1,777.9,293.056Z" fill="#487fc9"/>
            <path id="Trazado_7710" data-name="Trazado 7710" d="M764.627,290.642h0a1.134,1.134,0,0,0,.877,1.314,1.13,1.13,0,0,0,.417-2.22l-.012,0A1.114,1.114,0,0,0,764.627,290.642Zm-.564-.1h0a1.678,1.678,0,1,1,3.3.6,1.678,1.678,0,1,1-3.3-.6Z" fill="#487fc9"/>
            <path id="Trazado_7711" data-name="Trazado 7711" d="M768.035,289.562h0l-.308,1.695a1.766,1.766,0,0,0,1.123,1.866l1.188.216a.616.616,0,0,0-.343-.633l-.684-.125a1.23,1.23,0,0,1-.734-1.212l.239-1.314C768.551,289.859,768.359,289.621,768.035,289.562Z" fill="#487fc9"/>
            <path id="Trazado_7712" data-name="Trazado 7712" d="M771.388,290.146h0c-.324-.058-.588.1-.622.281l-.221,1.215c0,.025-.021.047-.013.074l-.018.1.011-.061-.212,1.167-.089.491a.513.513,0,0,0,.623-.293l.219-1.2.013-.074.02-.11-.011.061.206-1.13.006-.037Z" fill="#487fc9"/>
            <path id="Trazado_7713" data-name="Trazado 7713" d="M771.167,293.544h0l.31-1.707a1.74,1.74,0,0,1,1.706-1.339l.516.094a1.5,1.5,0,0,1,1,.969,1.546,1.546,0,0,1,1.29-.552l.42.076a1.751,1.751,0,0,1,1.138,1.856l-.31,1.707c-.324-.059-.514-.309-.481-.493l.242-1.326a1.232,1.232,0,0,0-.735-1.212l-.312-.057a1.216,1.216,0,0,0-1.114.876l-.241,1.326a.047.047,0,0,1-.018.035l-.065.356c-.324-.059-.514-.309-.481-.493l.241-1.327a1.215,1.215,0,0,0-.734-1.211l-.4-.072a1.231,1.231,0,0,0-1.114.875l-.241,1.327A.524.524,0,0,1,771.167,293.544Z" fill="#487fc9"/>
            <path id="Trazado_7714" data-name="Trazado 7714" d="M781.884,292.081h0c.323.058.516.3.481.493l-.219,1.2-.014.074-.018.1.012-.061-.215,1.179-.089.491c-.312-.057-.514-.309-.478-.506l.219-1.2.013-.074.018-.1-.009.049.2-1.13.007-.036Z" fill="#487fc9"/>
            <path id="Trazado_7715" data-name="Trazado 7715" d="M783.962,295.313h0l.039-.006,1.042.19.2-1.105a1.1,1.1,0,1,0-2.159-.393,1.1,1.1,0,0,0,.844,1.3Zm1.86-.816h0a.243.243,0,0,1-.031.1l-.129.713a.216.216,0,0,1,0,.088l-.018.1a.114.114,0,0,1,0-.063l-.138.761-1.644-.3a1.708,1.708,0,0,1-1.348-2,1.684,1.684,0,1,1,3.313.6Z" fill="#487fc9"/>
          </g>
        </g>
        <g id="Grupo_2961" data-name="Grupo 2961">
          <g id="Grupo_2959" data-name="Grupo 2959">
            <g id="Grupo_2958" data-name="Grupo 2958">
              <path id="Trazado_7716" data-name="Trazado 7716" d="M719.571,272.5a6.039,6.039,0,0,1-1.4-1.872,2.053,2.053,0,0,1-.01-.884,4.732,4.732,0,0,1,.621-1.529,11.768,11.768,0,0,1,2.044-2.887l.123,0a1.316,1.316,0,0,1,.726.72.689.689,0,0,1,.011.345,9.347,9.347,0,0,1-.908,1.893,15.376,15.376,0,0,0-1.112,2.347l-.078.426c1.453.093,2.8-.323,6.587-1.865a12.73,12.73,0,0,1,2.487-.871.336.336,0,0,1,.295.4.363.363,0,0,1-.086.2,54.345,54.345,0,0,1-5.359,2.922,7.675,7.675,0,0,1-3.618.763A.768.768,0,0,1,719.571,272.5Zm2.95-7.6a1.233,1.233,0,0,1-.755-.7l-.011-.076a10.1,10.1,0,0,1,1.52-2.3c.162-.216.337-.233.645-.177a1.363,1.363,0,0,1,.852.841l0,.024c-.074.4-1.844,2.458-2.176,2.4Z" fill="#ba2081"/>
            </g>
          </g>
          <g id="Grupo_2960" data-name="Grupo 2960">
            <path id="Trazado_7717" data-name="Trazado 7717" d="M678.465,267.435c-.673-.785-1.2-1.543-1.153-1.79.179-.987,10.1-11.823,11.061-12.056l.256-.005a2.942,2.942,0,0,1,1.534,1.655,1.184,1.184,0,0,1,.13.687,4.728,4.728,0,0,1-1.054,1.592l-1.211,1.615a37.9,37.9,0,0,1,5.387-2.436,4.377,4.377,0,0,1,1.843-.327,2.226,2.226,0,0,1,.664.273,5.777,5.777,0,0,1,1.4,1.579,2.379,2.379,0,0,1,.52,2.185,14.2,14.2,0,0,1-.632,2.076,4.781,4.781,0,0,0-.386,1l0,.255.05.009a54.085,54.085,0,0,0,8.517-3.395c2.391-1.094,3.2-1.354,3.647-1.274a.926.926,0,0,1,.327.162,3.98,3.98,0,0,1,1.754,3.53l-.121.386a23.783,23.783,0,0,1-2.337,4.162,23,23,0,0,0-1.906,3.476l-.009.049.049.009a21.006,21.006,0,0,0,4.539-.856,36.359,36.359,0,0,0,7.679-3.548c1.225-.848,1.907-1.233,2.3-1.162.247.045.35.319.377.732l-.009.61c-.135.74-.7,1.35-2.238,2.5a27,27,0,0,1-8.366,4.238c-1.888.574-2.574.7-3.709.5-1.283-.233-1.5-.426-2.53-1.785-1.045-1.261-1.5-2.108-1.278-3.342.215-1.184,1.054-2.713,2.691-5.27l.068-.09-.041-.058a4.794,4.794,0,0,0-1.525.538c-2.61,1.462-8.172,3.458-8.961,3.315-.839-.153-2.768-2.441-2.754-3.356a1.377,1.377,0,0,1,.04-.5,13.277,13.277,0,0,1,.52-1.74l.525-1.485-1.18.6a59.182,59.182,0,0,0-11.635,7.365,2.313,2.313,0,0,1-1.44.91A6.512,6.512,0,0,1,678.465,267.435Z" fill="#ba2081"/>
          </g>
        </g>
        <path id="Trazado_7718" data-name="Trazado 7718" d="M793.171,275.306a.613.613,0,0,0-.712.523L791.3,282.18a.61.61,0,0,0,.479.739.651.651,0,0,0,.5-.12l.984-.7.419,1.85a.724.724,0,0,0,.869.546l.863-.2a.727.727,0,0,0,.547-.866l-.42-1.857,1.189.211a.611.611,0,0,0,.614-.977l-3.757-5.236a.655.655,0,0,0-.412-.271Z" fill="#fff"/>
        <g id="Grupo_2963" data-name="Grupo 2963">
          <g id="Grupo_2962" data-name="Grupo 2962">
            <path id="Trazado_7719" data-name="Trazado 7719" d="M793.072,275.851a.105.105,0,0,1,.062.049l3.757,5.236c.055.077.024.126-.069.11l-1.841-.327a.106.106,0,0,0-.131.137l.567,2.5a.173.173,0,0,1-.129.2l-.866.2a.173.173,0,0,1-.068,0,.171.171,0,0,1-.136-.13l-.565-2.494a.11.11,0,0,0-.084-.093.124.124,0,0,0-.093.026l-1.522,1.081a.113.113,0,0,1-.076.026c-.029-.006-.043-.039-.033-.1l1.158-6.35c.011-.057.037-.084.069-.078m.1-.545a.613.613,0,0,0-.712.523L791.3,282.18a.61.61,0,0,0,.479.739.651.651,0,0,0,.5-.12l.984-.7.419,1.85a.724.724,0,0,0,.869.546l.863-.2a.727.727,0,0,0,.547-.866l-.42-1.857,1.189.211a.611.611,0,0,0,.614-.977l-3.757-5.236a.655.655,0,0,0-.412-.271Z" fill="#222"/>
          </g>
        </g>
      </g>
    </g>
    <g id="Grupo_2971" data-name="Grupo 2971" transform="translate(5.581 -12.196)">
      <path id="Trazado_7776" data-name="Trazado 7776" d="M0,0H120.8V97.145H0Z" transform="translate(759.767 358.566)" fill="#ddf9f4"/>
      <g id="Grupo_2966" data-name="Grupo 2966">
        <path id="Trazado_7720" data-name="Trazado 7720" d="M764.673,393.341H749.444a6.734,6.734,0,0,1-6.727-6.727V371.388a6.735,6.735,0,0,1,6.727-6.728h15.229a6.735,6.735,0,0,1,6.725,6.728v15.226A6.734,6.734,0,0,1,764.673,393.341ZM749.444,366.7a4.692,4.692,0,0,0-4.686,4.686v15.226a4.692,4.692,0,0,0,4.686,4.686h15.229a4.691,4.691,0,0,0,4.684-4.686V371.388a4.69,4.69,0,0,0-4.684-4.686Z" fill="#ba2081"/>
      </g>
      <g id="Grupo_2967" data-name="Grupo 2967">
        <path id="Trazado_7721" data-name="Trazado 7721" d="M797.284,393.341H782.058a6.734,6.734,0,0,1-6.727-6.727V371.388a6.735,6.735,0,0,1,6.727-6.728h15.226a6.735,6.735,0,0,1,6.728,6.728v15.226A6.735,6.735,0,0,1,797.284,393.341ZM782.058,366.7a4.692,4.692,0,0,0-4.686,4.686v15.226a4.692,4.692,0,0,0,4.686,4.686h15.226a4.693,4.693,0,0,0,4.687-4.686V371.388a4.692,4.692,0,0,0-4.687-4.686Z" fill="#ba2081"/>
      </g>
      <g id="Grupo_2968" data-name="Grupo 2968">
        <path id="Trazado_7722" data-name="Trazado 7722" d="M784.538,429.007H769.309a6.734,6.734,0,0,1-6.725-6.726V407.053a6.735,6.735,0,0,1,6.725-6.727h15.229a6.735,6.735,0,0,1,6.725,6.727v15.228A6.734,6.734,0,0,1,784.538,429.007Zm-15.229-26.64a4.691,4.691,0,0,0-4.684,4.686v15.228a4.689,4.689,0,0,0,4.684,4.685h15.229a4.689,4.689,0,0,0,4.684-4.685V407.053a4.691,4.691,0,0,0-4.684-4.686Z" fill="#ba2081"/>
      </g>
      <g id="Grupo_2969" data-name="Grupo 2969">
        <path id="Trazado_7723" data-name="Trazado 7723" d="M817.151,429.007H801.923a6.735,6.735,0,0,1-6.728-6.726V407.053a6.735,6.735,0,0,1,6.728-6.727h15.228a6.734,6.734,0,0,1,6.725,6.727v15.228A6.734,6.734,0,0,1,817.151,429.007Zm-15.228-26.64a4.692,4.692,0,0,0-4.686,4.686v15.228a4.69,4.69,0,0,0,4.686,4.685h15.228a4.689,4.689,0,0,0,4.684-4.685V407.053a4.691,4.691,0,0,0-4.684-4.686Z" fill="#ba2081"/>
      </g>
      <g id="Grupo_2970" data-name="Grupo 2970">
        <path id="Trazado_7724" data-name="Trazado 7724" d="M829.8,393.341H814.572a6.733,6.733,0,0,1-6.725-6.727V371.388a6.734,6.734,0,0,1,6.725-6.728H829.8a6.735,6.735,0,0,1,6.728,6.728v15.226A6.735,6.735,0,0,1,829.8,393.341ZM814.572,366.7a4.69,4.69,0,0,0-4.684,4.686v15.226a4.691,4.691,0,0,0,4.684,4.686H829.8a4.693,4.693,0,0,0,4.687-4.686V371.388A4.692,4.692,0,0,0,829.8,366.7Z" fill="#ba2081"/>
      </g>
    </g>
    <g id="Grupo_2972" data-name="Grupo 2972" transform="translate(5.581 -12.196)">
      <line id="Línea_125" data-name="Línea 125" x1="0.038" transform="translate(883.111 449.421)" fill="none"/>
      <rect id="Rectángulo_1018" data-name="Rectángulo 1018" width="47.427" height="5.747" transform="translate(848.298 482.267)" fill="#ffc477"/>
      <path id="Trazado_7725" data-name="Trazado 7725" d="M885.966,459.983H858.057l2.856-10.561h22.2Z" fill="#e4eded"/>
      <path id="Trazado_7726" data-name="Trazado 7726" d="M891.987,482.267h-39.95l6.021-22.284h27.909Z" fill="#feaf66"/>
      <line id="Línea_126" data-name="Línea 126" x1="0.082" transform="translate(885.966 459.983)" fill="none"/>
      <path id="Trazado_7727" data-name="Trazado 7727" d="M883.111,449.421h-22.2l5.743-21.262s.284,4.358,5.359,4.358,5.352-4.358,5.352-4.358Z" fill="#feaf66"/>
      <path id="Trazado_7728" data-name="Trazado 7728" d="M825.906,445.112a4.019,4.019,0,0,1-7.87,0Z" fill="#ffc477"/>
      <line id="Línea_127" data-name="Línea 127" x1="0.028" transform="translate(830.126 460.736)" fill="none"/>
      <rect id="Rectángulo_1019" data-name="Rectángulo 1019" width="34.85" height="4.223" transform="translate(804.546 484.871)" fill="#ffc477"/>
      <path id="Trazado_7729" data-name="Trazado 7729" d="M832.225,468.5H811.717l2.1-7.761h16.311Z" fill="#e4eded"/>
      <path id="Trazado_7730" data-name="Trazado 7730" d="M836.649,484.871H807.293l4.424-16.375h20.508Z" fill="#feaf66"/>
      <line id="Línea_128" data-name="Línea 128" x1="0.06" transform="translate(832.225 468.496)" fill="none"/>
      <path id="Trazado_7731" data-name="Trazado 7731" d="M830.126,460.736H813.815l4.221-15.624a4.019,4.019,0,0,0,7.87,0Z" fill="#feaf66"/>
      <path id="Trazado_7732" data-name="Trazado 7732" d="M877.367,428.159s-.283,4.358-5.352,4.358-5.359-4.358-5.359-4.358Z" fill="#ffc477"/>
    </g>
    <path id="Trazado_7733" data-name="Trazado 7733" d="M716.166,477h-264.3V219.819a53.858,53.858,0,0,1,11.736-2.736c8.593-.918,17.757.878,24.452,6.328,6.368,5.205,10.369,13.451,17.982,16.553,7.328,2.98,15.839.1,22.391-4.368s11.961-10.471,18.635-14.757a44.96,44.96,0,0,1,36.311-5.266c6.123,1.776,12.165,5.205,15.084,10.859,4.184,8.123.878,18.329,4.123,26.86,5.041,13.308,23.7,17.656,28.167,31.148,3.388,10.2-2.837,20.88-8.8,29.82q-7.623,11.451-15.267,22.9c-5.654,8.511-11.41,17.186-14.084,27.044s-1.776,21.269,4.837,29.066c8.185,9.593,22.248,11.144,34.862,11.43,7.613.163,16.043.428,21.554,5.694,5.756,5.532,6.144,14.411,6.634,22.391.469,7.96,2.143,17.064,9.062,21.064,6.7,3.878,15.145,1.123,22.86,1.694C703.878,456.361,714.063,465.75,716.166,477Z" transform="translate(5.581 -12.196)" fill="#ba2081"/>
    <g id="Grupo_2976" data-name="Grupo 2976" transform="translate(5.581 -12.196)">
      <g id="Grupo_2973" data-name="Grupo 2973">
        <path id="Trazado_7734" data-name="Trazado 7734" d="M771.135,167.274l-1.127,27.911h1.423a103.473,103.473,0,0,1-14.713,9.722c-20.111,11.331-36.154,15.323-36.154,15.323l-3.827-6.025s39.685-26.894,45.175-34.251c4.658-6.284,7.763-15.674,13.068-17.393C771.154,164.742,771.135,167.274,771.135,167.274Z" fill="#6c5fb7"/>
      </g>
      <path id="Trazado_7735" data-name="Trazado 7735" d="M826.808,170.084c1.534,6.081,1.035,12.717-3.715,21.774.222-7.043.3-23.216-3.235-27.56a12.9,12.9,0,0,0-4.972-3.6,5.367,5.367,0,0,1,1.368-.425A12.525,12.525,0,0,1,826.808,170.084Z" fill="#6c5fb7"/>
      <g id="Grupo_2974" data-name="Grupo 2974">
        <path id="Trazado_7736" data-name="Trazado 7736" d="M819.858,164.3c3.531,4.344,3.457,20.517,3.235,27.56-.555,1.072-1.165,2.181-1.867,3.327H801.652c3.2-5.545,5.637-10.24,6.266-12.643,2.162-8.281,1.2-19.316,6.968-21.848A12.9,12.9,0,0,1,819.858,164.3Z" fill="#6c5fb7"/>
      </g>
      <path id="Trazado_7737" data-name="Trazado 7737" d="M779.009,230.969c1.571-2.347,14.565-21.792,22.643-35.784h19.574a114.561,114.561,0,0,1-8.78,12.439,165.575,165.575,0,0,1-27.5,27.523c-.2.148-.3.222-.3.222l-5.8-4.159S778.9,231.136,779.009,230.969Z" fill="#6c5fb7"/>
      <g id="Grupo_2975" data-name="Grupo 2975">
        <path id="Trazado_7738" data-name="Trazado 7738" d="M814.886,160.694c-5.767,2.532-4.806,13.567-6.968,21.848-.629,2.4-3.069,7.1-6.266,12.643H771.431c8.595-7.006,11.756-13.235,12.661-19.722a12.518,12.518,0,0,0-6.118-13.05,5.733,5.733,0,0,0-2.976.148c2.477-1.423,6.562-2.68,13.29-2.994-.074,1.164-.129,2.014-.129,2.014l5.083,4.085,12.125-6.894A26.211,26.211,0,0,1,814.886,160.694Z" fill="#a285f8"/>
      </g>
      <path id="Trazado_7739" data-name="Trazado 7739" d="M807.363,131.675c.869,4.325-3.253,8.65-3.253,8.65l-4.159-1.645c.961,0,1.553-1.128,1.775-2.089a17.7,17.7,0,0,0,.295-4.417c-.018-.851-.055-1.682-.11-2.533C803.556,127.534,806.476,127.4,807.363,131.675Z" fill="#f4e7c9"/>
      <path id="Trazado_7740" data-name="Trazado 7740" d="M804.11,140.325l1.257,18.447-12.125,6.894-5.083-4.085s.055-.85.129-2.014c.111-2.366.24-6.008-.129-6.119-.536-.166-7.6.536-10.7-1-3.124-1.534-7.449-21.681-7.449-21.681l-.037-.093c2.125-.942,4.048-2.273,6.1-3.308a25.781,25.781,0,0,1,8.207-2.588c2.606-.351,5.416-.277,7.671,1.091,2.625,1.626,3.974,4.695,4.787,7.689.444,1.59.813,3.327,2,4.51a1.849,1.849,0,0,0,1.109.61h.111Z" fill="#f4e7c9"/>
      <path id="Trazado_7741" data-name="Trazado 7741" d="M762.429,119.457a7.745,7.745,0,0,1,.333-2.68,3.628,3.628,0,0,1,2.643-2.533c2.773-.443,4.787,3.475,7.6,3.161a4.8,4.8,0,0,0,2.957-2.015,9.948,9.948,0,0,1,2.551-2.643c1.959-1.127,4.455-.351,6.414.777a7.539,7.539,0,0,0,3.512,1.46c2.458.055,4.307-2.7,6.783-2.643,1.941.055,3.4,1.848,4.2,3.641a25.813,25.813,0,0,1,1.849,7.079c.314,2.181.536,4.381.647,6.58.055.851.092,1.682.11,2.533a17.7,17.7,0,0,1-.295,4.417c-.222.961-.814,2.089-1.775,2.089h-.111a1.849,1.849,0,0,1-1.109-.61c-1.183-1.183-1.552-2.92-2-4.51-.813-2.994-2.162-6.063-4.787-7.689-2.255-1.368-5.065-1.442-7.671-1.091a25.781,25.781,0,0,0-8.207,2.588c-2.051,1.035-3.974,2.366-6.1,3.308-.074.037-.13.056-.2.093-1.386.591-3.013.98-4.343.277a5.193,5.193,0,0,1-2.145-3.124A19.66,19.66,0,0,1,762.429,119.457Z" fill="#41709e"/>
      <path id="Trazado_7742" data-name="Trazado 7742" d="M784.647,235.369s.092-.074.3-.222c0,0-4.232,12.328-7.467,11.552s-8.133-1.9-8.539-4.676c-.426-2.754,7.264-7.394,7.264-7.394s-3.863.481-4.7-.85c-.814-1.331,4.473-3.013,7.5-2.81-.111.167-.166.241-.166.241Z" fill="#f4e7c9"/>
      <path id="Trazado_7743" data-name="Trazado 7743" d="M777.974,162.413a12.518,12.518,0,0,1,6.118,13.05c-.9,6.487-4.066,12.716-12.661,19.722h-1.423l1.127-27.911s.019-2.532,3.845-4.713H775A5.733,5.733,0,0,1,777.974,162.413Z" fill="#a285f8"/>
      <path id="Trazado_7744" data-name="Trazado 7744" d="M720.564,220.23c.073,3.032-1.978,8.392-3.254,7.486-1.294-.9-.573-4.732-.573-4.732s-5.083,7.394-7.818,6.8c-2.754-.573-3.586-5.526-4.159-8.8-.573-3.29,11.977-6.783,11.977-6.783Z" fill="#f4e7c9"/>
    </g>
    <g id="Grupo_2977" data-name="Grupo 2977" transform="translate(5.581 -12.196)">
      <path id="Trazado_7745" data-name="Trazado 7745" d="M621.957,456.116c-2.612,1.2-9.613,2.082-17.839,2.082-3.592,0-6.94-.164-9.8-.449-5.429-.551-9.083-1.551-9.124-2.674v-.021l1.286-.183c0-.021-.041-.347-.081-.919,2.694-1.184,9.613-2.041,17.716-2.041s15,.837,17.717,2.021c-.021.571-.061.918-.061.939l1.286.183v.021C623.039,455.442,622.651,455.789,621.957,456.116Z" fill="#9b1970"/>
      <path id="Trazado_7746" data-name="Trazado 7746" d="M607.792,467.321a6.952,6.952,0,0,0,2.552,2.715,3.578,3.578,0,0,0,3.612.021,17.994,17.994,0,0,0,1.572-1.49,1.824,1.824,0,0,1,1.98-.45c.653.327.939,1.225,1.653,1.368a1.438,1.438,0,0,0,1.245-.531,5.605,5.605,0,0,0,1.021-3.551c.183-2.98.347-6.307.53-9.287.694-.327,1.082-.674,1.1-1.041v16.574H585.2V455.075c.041,1.123,3.7,2.123,9.124,2.674l-.02.2c.408,2.082,1.2,4.307,3.041,5.327,1.673.939,3.715.612,5.633.51a4.9,4.9,0,0,1,2.041.245C606.384,464.566,607.037,466.056,607.792,467.321Z" fill="#fff"/>
      <path id="Trazado_7747" data-name="Trazado 7747" d="M610.344,470.036a6.952,6.952,0,0,1-2.552-2.715c-.755-1.265-1.408-2.755-2.776-3.286a4.9,4.9,0,0,0-2.041-.245c-1.918.1-3.96.429-5.633-.51-1.837-1.02-2.633-3.245-3.041-5.327l.02-.2c2.857.285,6.205.449,9.8.449,8.226,0,15.227-.878,17.839-2.082-.183,2.98-.347,6.307-.53,9.287a5.605,5.605,0,0,1-1.021,3.551,1.438,1.438,0,0,1-1.245.531c-.714-.143-1-1.041-1.653-1.368a1.824,1.824,0,0,0-1.98.45,17.994,17.994,0,0,1-1.572,1.49A3.578,3.578,0,0,1,610.344,470.036Z" fill="#ba2081"/>
      <path id="Trazado_7748" data-name="Trazado 7748" d="M620.467,441.379c5.021,5.817,2.633,13.349,2.593,13.675,0-.387-.429-.775-1.225-1.122.1-2.062-.061-7.042-3.368-10.859-2.959-3.429-7.8-5.184-14.349-5.184s-11.389,1.755-14.349,5.2c-3.327,3.837-3.47,8.817-3.367,10.858-.776.347-1.2.715-1.2,1.1-.061-.326-2.429-7.858,2.592-13.675,3.491-4.041,8.981-6.1,16.329-6.1C611.487,435.276,616.977,437.338,620.467,441.379Z" fill="#41709e"/>
      <path id="Trazado_7749" data-name="Trazado 7749" d="M621.835,453.932c.8.347,1.225.735,1.225,1.122l-1.286-.183C621.774,454.85,621.814,454.5,621.835,453.932Z" fill="#41709e"/>
      <rect id="Rectángulo_1020" data-name="Rectángulo 1020" width="37.862" height="13.002" transform="translate(585.197 484.467)" fill="#fff"/>
      <rect id="Rectángulo_1021" data-name="Rectángulo 1021" width="37.862" height="12.818" transform="translate(585.197 471.649)" fill="#41709e"/>
    </g>
    <path id="Trazado_7750" data-name="Trazado 7750" d="M667.833,449.584l-1.286.184c0-.388.428-.755,1.2-1.1C667.792,449.237,667.833,449.564,667.833,449.584Z" transform="translate(5.581 -12.196)" fill="#41709e"/>
    <path id="Trazado_7751" data-name="Trazado 7751" d="M659.076,458.626l-1-.142c0-.021.021-.266.041-.715C658.729,458.034,659.076,458.32,659.076,458.626Z" transform="translate(5.581 -12.196)" fill="#41709e"/>
    <g id="Grupo_2978" data-name="Grupo 2978" transform="translate(5.581 -12.196)">
      <path id="Trazado_7752" data-name="Trazado 7752" d="M550.152,453.218c2.735-3.164,7.041-4.756,12.777-4.756,5.756,0,10.063,1.592,12.777,4.756,3.919,4.551,2.062,10.45,2.021,10.7,0-.306-.347-.592-.959-.857a12.342,12.342,0,0,0-2.613-8.512c-2.327-2.674-6.1-4.041-11.226-4.041s-8.9,1.367-11.226,4.062a12.319,12.319,0,0,0-2.613,8.491c-.612.265-.959.551-.959.857C548.09,463.668,546.233,457.769,550.152,453.218Z" fill="#41709e"/>
      <rect id="Rectángulo_1022" data-name="Rectángulo 1022" width="29.596" height="10.165" transform="translate(548.131 486.896)" fill="#fff"/>
      <rect id="Rectángulo_1023" data-name="Rectángulo 1023" width="29.596" height="10.001" transform="translate(548.131 476.894)" fill="#41709e"/>
      <path id="Trazado_7753" data-name="Trazado 7753" d="M577.727,463.913v12.981h-29.6V463.913c0,1.367,6.634,2.47,14.8,2.47C571.114,466.383,577.727,465.28,577.727,463.913Z" fill="#fff"/>
      <path id="Trazado_7754" data-name="Trazado 7754" d="M576.727,463.77l1,.143c0,1.367-6.613,2.47-14.8,2.47-8.164,0-14.8-1.1-14.8-2.47l1-.143a5.546,5.546,0,0,1-.041-.714c2.123-.939,7.532-1.592,13.839-1.592,6.327,0,11.716.653,13.839,1.592C576.747,463.505,576.727,463.75,576.727,463.77Z" fill="#41709e"/>
      <path id="Trazado_7755" data-name="Trazado 7755" d="M549.131,463.77l-1,.143c0-.306.347-.592.959-.857A5.546,5.546,0,0,0,549.131,463.77Z" fill="#41709e"/>
    </g>
    <g id="Grupo_2980" data-name="Grupo 2980" transform="translate(5.581 -12.196)">
      <path id="Trazado_7756" data-name="Trazado 7756" d="M572.658,242.639a4.411,4.411,0,0,1,3.7,5,4.463,4.463,0,0,1-1.742,2.893,4.393,4.393,0,0,1-3.281.8l-29.378-4.484a4.4,4.4,0,1,1,1.327-8.7Z" fill="#fff"/>
      <path id="Trazado_7757" data-name="Trazado 7757" d="M553.961,259.895l-13.1,85.835a.767.767,0,0,1-.861.632l-2.058-.314a.767.767,0,0,1-.632-.86l13.1-85.835a.752.752,0,0,1,.86-.632l2.058.314A.754.754,0,0,1,553.961,259.895Z" fill="#ffdf77"/>
      <g id="Grupo_2979" data-name="Grupo 2979">
        <path id="Trazado_7758" data-name="Trazado 7758" d="M551.728,258.937a.512.512,0,0,1-.427-.582l.691-4.528-19.559-2.985a.512.512,0,0,1-.427-.581l1.454-9.523a.511.511,0,0,1,.581-.428l3.945.6a.51.51,0,0,1-.154,1.009l-3.441-.525-1.3,8.514L552.65,252.9a.513.513,0,0,1,.428.582l-.768,5.032A.513.513,0,0,1,551.728,258.937Z" fill="#41709e"/>
      </g>
    </g>
    <g id="Grupo_2982" data-name="Grupo 2982" transform="translate(5.581 -12.196)">
      <path id="Trazado_7759" data-name="Trazado 7759" d="M504.688,366.452a16.13,16.13,0,0,1-.353,3.377,13.762,13.762,0,0,0-.1-1.571c-.413-3.337-1.65-6.872-.57-9.994a63.013,63.013,0,0,0,.923,6.244C504.649,365.156,504.688,365.8,504.688,366.452Z" fill="#a285f8"/>
      <path id="Trazado_7760" data-name="Trazado 7760" d="M553.323,294.924c.393,3.828,3.848,7.5-6.322,7.147l-5.891-2.062s-.176-7.736,4.654-7.6C550.594,292.528,552.911,291.075,553.323,294.924Z" fill="#f4e7c9"/>
      <path id="Trazado_7761" data-name="Trazado 7761" d="M525.7,503.265c22.874,1.846,17.946,5.419,17.946,5.419s-21.3,1.139-23.247,0c-1.944-1.119,0-5.419,0-5.419Z" fill="#41709e"/>
      <path id="Trazado_7762" data-name="Trazado 7762" d="M511.875,395.256l14.313,108.009h-5.831c-19.144-45.807-15.531-57.352-15.531-57.352-2.2-4.516-12.8-31.592-12.8-31.592-.432,11.82-19.674,87.354-19.674,87.354h-5.3c-3.181-27.8,5.89-55.409,5.89-55.409a233.345,233.345,0,0,1-3.239-28.607,35.939,35.939,0,0,1,3.848-18.319l.02-.02c.667-1,1.178-1.963,1.57-2.631a.394.394,0,0,0,.079-.118,14.644,14.644,0,0,1,1.021-1.315C493.536,401.166,511.875,395.256,511.875,395.256Z" fill="#ffc477"/>
      <path id="Trazado_7763" data-name="Trazado 7763" d="M512.817,339.729c.275,3.829-1.747,7.7-4.555,10.426-1.414,1.375-3.083,2.631-3.927,4.438a7.84,7.84,0,0,0-.668,3.671,63.013,63.013,0,0,0,.923,6.244c.059.648.1,1.3.1,1.944a16.13,16.13,0,0,1-.353,3.377,3.707,3.707,0,0,1-.1.491,14.452,14.452,0,0,1-6.4,9.267c-4.987,3.005-12.37,1.768-15.413-3.2-1.708-2.827-2.062-6.578-4.6-8.7a8.95,8.95,0,0,0-4.005-1.728,47.2,47.2,0,0,1-6.008-1.217,10.144,10.144,0,0,1-5.537-4.948,7.412,7.412,0,0,1-.687-1.689c-1.178-4.064.314-8.423,2.277-12.193,1.964-3.75,4.457-7.323,5.478-11.427,2.337-9.444-3.534-19.772-.275-28.921,2.376-6.637,9.032-10.858,15.806-12.783a8.691,8.691,0,0,1,3.181-.549,14.052,14.052,0,0,1,9.739,4.319,16.57,16.57,0,0,1,3.711,6.7,24.031,24.031,0,0,1,.765,9.012c-.314,3.456-1.217,6.99-.255,10.328a14.821,14.821,0,0,0,2.945,5.1c2.827,3.338,6.538,6.205,7.6,10.407A9.106,9.106,0,0,1,512.817,339.729Z" fill="#41709e"/>
      <path id="Trazado_7764" data-name="Trazado 7764" d="M506.6,316.643c.563,8.178.072,10.5-1.636,11.05a14.708,14.708,0,0,1-2.944-5.107c-.963-3.326-.073-6.87.254-10.322a24.3,24.3,0,0,0-.763-9.014S505.948,307.175,506.6,316.643Z" fill="#f4e7c9"/>
      <path id="Trazado_7765" data-name="Trazado 7765" d="M472.35,501.675c22.874,1.865,17.966,5.438,17.966,5.438s-21.323,1.12-23.267,0c-1.944-1.138,0-5.438,0-5.438Z" fill="#41709e"/>
      <path id="Trazado_7766" data-name="Trazado 7766" d="M475.217,391.545s1.335,2.867,0,5.026a.394.394,0,0,1-.079.118,23.849,23.849,0,0,0-1.57,2.631l-.02.02c-1.512,2.336-3.809,4.81-7.167,3.848-4.869-1.374-4.614-8.207,2.612-8.07Z" fill="#f4e7c9"/>
      <path id="Trazado_7767" data-name="Trazado 7767" d="M475.217,391.545l-6.224,3.573c-4.025-2.906-14.549-19.988-16.67-23.168-2.12-3.162,6.205-8.777,6.205-8.777l3.75-3.377a10.144,10.144,0,0,0,5.537,4.948,47.2,47.2,0,0,0,6.008,1.217l-8.463,4.4C468.58,377.31,475.217,391.545,475.217,391.545Z" fill="#6c5fb7"/>
      <g id="Grupo_2981" data-name="Grupo 2981">
        <path id="Trazado_7768" data-name="Trazado 7768" d="M509.381,370.4a105.97,105.97,0,0,0,2.493,24.858s-18.338,5.91-35.636,0c0,0,.569-1.394,1.3-3.358,1.276-3.455,3-8.658,2.768-10.818.314-8.306-6.479-15.119-6.479-15.119a8.95,8.95,0,0,1,4.005,1.728c2.533,2.12,2.887,5.871,4.6,8.7,3.043,4.968,10.426,6.205,15.413,3.2a14.452,14.452,0,0,0,6.4-9.267l.117.039a4.947,4.947,0,0,0-.019-.53,16.13,16.13,0,0,0,.353-3.377c0-.648-.039-1.3-.1-1.944a63.013,63.013,0,0,1-.923-6.244,7.84,7.84,0,0,1,.668-3.671c.844-1.807,2.513-3.063,3.927-4.438,2.808-2.729,4.83-6.6,4.555-10.426h.039s23.031-21.067,27.1-40.132l1.158.412L547,302.071s-12.881,44.295-37.4,62.83C509.6,364.9,509.4,366.982,509.381,370.4Z" fill="#a285f8"/>
      </g>
    </g>
    <path id="Trazado_7769" data-name="Trazado 7769" d="M716.472,479.18a19.312,19.312,0,0,0-.306-2.184" transform="translate(5.581 -12.196)" fill="none"/>
    <path id="Trazado_7770" data-name="Trazado 7770" d="M790.04,137.729a2.618,2.618,0,1,1-1.486,3.425A2.643,2.643,0,0,1,790.04,137.729Z" transform="translate(5.581 -12.196)" fill="#eacfac"/>
    <path id="Trazado_7771" data-name="Trazado 7771" d="M773.516,141.026a2.618,2.618,0,1,1-1.486,3.425A2.643,2.643,0,0,1,773.516,141.026Z" transform="translate(5.581 -12.196)" fill="#eacfac"/>
    <path id="Trazado_7772" data-name="Trazado 7772" d="M779.8,135.7a25.586,25.586,0,0,0-.5,4.339,12.911,12.911,0,0,0,.468,4.384l.065.2.2-.057c1.245-.359,2.48-.753,3.7-1.191-1.282.213-2.553.473-3.814.766l.263.141a17.223,17.223,0,0,1-.431-4.237Q779.752,137.88,779.8,135.7Z" transform="translate(5.581 -12.196)" fill="#d8ba7c"/>
    <path id="Trazado_7773" data-name="Trazado 7773" d="M774.755,134.419a5.946,5.946,0,0,1,.354,2.828,3.421,3.421,0,0,1-.509,1.448,2.525,2.525,0,0,1-1.321.964,1.9,1.9,0,0,1-1.65-.257,3.514,3.514,0,0,1-1.01-1.145,6.959,6.959,0,0,1-.825-2.722,14.443,14.443,0,0,0,1.331,2.4c.526.694,1.228,1.273,1.945,1a1.843,1.843,0,0,0,.938-.645,3.271,3.271,0,0,0,.514-1.144A10.411,10.411,0,0,0,774.755,134.419Z" transform="translate(5.581 -12.196)" fill="#42222f"/>
    <path id="Trazado_7774" data-name="Trazado 7774" d="M789.593,130.28a5.962,5.962,0,0,1,.353,2.829,3.426,3.426,0,0,1-.509,1.448,2.526,2.526,0,0,1-1.321.964,1.9,1.9,0,0,1-1.649-.258,3.473,3.473,0,0,1-1.01-1.145,6.945,6.945,0,0,1-.826-2.722,14.363,14.363,0,0,0,1.331,2.4c.526.694,1.228,1.273,1.945,1a1.837,1.837,0,0,0,.938-.644,3.281,3.281,0,0,0,.514-1.144A10.423,10.423,0,0,0,789.593,130.28Z" transform="translate(5.581 -12.196)" fill="#42222f"/>
    <path id="Trazado_7775" data-name="Trazado 7775" d="M779.3,147l9.37-2.379s.826,4.185-3.3,5.2S779.3,147,779.3,147Z" transform="translate(5.581 -12.196)" fill="#fff"/>
  </g>
</svg>
