<svg xmlns="http://www.w3.org/2000/svg" width="38.77" height="23.928" viewBox="0 0 38.77 23.928">
  <g id="Grupo_2903" data-name="Grupo 2903" transform="translate(-176.738 -960.349)">
    <path id="Trazado_7675" data-name="Trazado 7675" d="M4.543,0C7.052,0,9.086,4.2,9.086,9.381s-2.034,9.381-4.543,9.381S0,14.561,0,9.381,2.034,0,4.543,0Z" transform="translate(191.58 962.932)" fill="#e54800"/>
    <path id="Trazado_7673" data-name="Trazado 7673" d="M310.482,960.349a11.909,11.909,0,0,0-7.421,2.583,11.956,11.956,0,0,1,0,18.761,11.963,11.963,0,1,0,7.421-21.344Z" transform="translate(-106.938)" fill="#f78b00"/>
    <path id="Trazado_7674" data-name="Trazado 7674" d="M191.58,972.313a11.939,11.939,0,0,1,4.543-9.381,11.964,11.964,0,1,0,0,18.761A11.939,11.939,0,0,1,191.58,972.313Z" fill="#d90010"/>
  </g>
</svg>
