<svg xmlns="http://www.w3.org/2000/svg" width="22" height="22" viewBox="0 0 22 22">
  <g id="Grupo_2901" data-name="Grupo 2901" transform="translate(-1006.972 -415.453)">
    <path id="Trazado_7651" data-name="Trazado 7651" d="M1006.972,415.453h22v22h-22v-22Z" transform="translate(0)" fill="#0058a5" fill-rule="evenodd"/>
    <path id="Trazado_7652" data-name="Trazado 7652" d="M1041.915,516.076v-3.454h3.657l.392.511.405-.511h13.275v3.216a1.532,1.532,0,0,1-.749.238h-7.35l-.443-.544v.544h-1.449v-.929a1.218,1.218,0,0,1-.626.13h-.493v.8h-2.195l-.392-.522-.4.522Z" transform="translate(-30.672 -85.293)" fill="#fff" fill-rule="evenodd"/>
    <path id="Trazado_7653" data-name="Trazado 7653" d="M1006.972,477.515l.825-1.923h1.426l.468,1.077v-1.077h1.773l.279.778.27-.778h7.959v.391a1.717,1.717,0,0,1,1.106-.391l2.582.009.46,1.063v-1.072h1.484l.408.611v-.611h1.5v3.454h-1.5l-.391-.613v.613h-2.18l-.219-.544h-.586l-.216.544h-1.478a1.461,1.461,0,0,1-.97-.383v.383h-2.229l-.442-.544v.544h-8.288l-.219-.544h-.584l-.218.544h-1.019v-1.531Z" transform="translate(0 -52.789)" fill="#fff" fill-rule="evenodd"/>
    <path id="Trazado_7654" data-name="Trazado 7654" d="M1008.12,479.076l-1.112,2.586h.724l.205-.518h1.193l.2.518h.74l-1.111-2.586Zm.412.6.364.905h-.728l.365-.905Z" transform="translate(-0.032 -55.847)" fill="#0058a5" fill-rule="evenodd"/>
    <path id="Trazado_7655" data-name="Trazado 7655" d="M1032.727,481.659v-2.586l1.029,0,.6,1.667.584-1.671h1.021v2.586h-.646v-1.906l-.686,1.906h-.567l-.687-1.906v1.906Z" transform="translate(-22.607 -55.844)" fill="#0058a5" fill-rule="evenodd"/>
    <path id="Trazado_7656" data-name="Trazado 7656" d="M1062.8,481.659v-2.586h2.11v.578h-1.456v.442h1.422v.544h-1.422v.459h1.456v.561Z" transform="translate(-49.002 -55.844)" fill="#0058a5" fill-rule="evenodd"/>
    <path id="Trazado_7657" data-name="Trazado 7657" d="M1083.121,479.076v2.586h.647v-.919h.272l.775.919h.79l-.851-.953a.788.788,0,0,0,.709-.794.837.837,0,0,0-.9-.839Zm.647.578h.739a.3.3,0,0,1,.306.272.292.292,0,0,1-.3.272h-.749v-.544Z" transform="translate(-66.842 -55.847)" fill="#0058a5" fill-rule="evenodd"/>
    <path id="Trazado_7658" data-name="Trazado 7658" d="M1105.108,481.659h-.66v-2.586h.66v2.586Z" transform="translate(-85.562 -55.844)" fill="#0058a5" fill-rule="evenodd"/>
    <path id="Trazado_7659" data-name="Trazado 7659" d="M1113.676,481.658h-.143a1.14,1.14,0,0,1-1.108-1.283,1.185,1.185,0,0,1,1.285-1.3h.715v.613h-.74a.622.622,0,0,0-.6.7.633.633,0,0,0,.7.711h.17l-.272.565Z" transform="translate(-92.564 -55.844)" fill="#0058a5" fill-rule="evenodd"/>
    <path id="Trazado_7660" data-name="Trazado 7660" d="M1126.179,479.076l-1.112,2.586h.724l.205-.518h1.193l.2.518h.74l-1.111-2.586Zm.411.6.364.905h-.728l.365-.905Z" transform="translate(-103.661 -55.847)" fill="#0058a5" fill-rule="evenodd"/>
    <path id="Trazado_7661" data-name="Trazado 7661" d="M1150.778,481.659v-2.586h.822l1.05,1.625v-1.625h.647v2.586h-.8l-1.076-1.667v1.667Z" transform="translate(-126.229 -55.844)" fill="#0058a5" fill-rule="evenodd"/>
    <path id="Trazado_7662" data-name="Trazado 7662" d="M1045.534,518.688V516.1h2.11v.579h-1.456v.442h1.422v.544h-1.422v.459h1.456v.562Z" transform="translate(-33.849 -88.348)" fill="#0058a5" fill-rule="evenodd"/>
    <path id="Trazado_7663" data-name="Trazado 7663" d="M1130.119,518.688V516.1h2.11v.579h-1.456v.442h1.416v.544h-1.416v.459h1.456v.562Z" transform="translate(-108.095 -88.348)" fill="#0058a5" fill-rule="evenodd"/>
    <path id="Trazado_7664" data-name="Trazado 7664" d="M1063.291,518.689l1.027-1.277-1.052-1.309h.814l.626.809.629-.809h.783l-1.038,1.293,1.029,1.293h-.815l-.608-.8-.594.8Z" transform="translate(-49.414 -88.348)" fill="#0058a5" fill-rule="evenodd"/>
    <path id="Trazado_7665" data-name="Trazado 7665" d="M1087.158,516.106v2.586h.664v-.817h.681a.894.894,0,0,0,1.012-.9.851.851,0,0,0-.928-.87Zm.664.585h.717a.292.292,0,0,1,.319.3.3.3,0,0,1-.321.3h-.715v-.6Z" transform="translate(-70.385 -88.351)" fill="#0058a5" fill-rule="evenodd"/>
    <path id="Trazado_7666" data-name="Trazado 7666" d="M1108.736,516.1v2.586h.646v-.919h.272l.775.919h.79l-.851-.953a.788.788,0,0,0,.709-.794.836.836,0,0,0-.9-.839Zm.646.579h.739a.3.3,0,0,1,.306.272.292.292,0,0,1-.3.272h-.749v-.544Z" transform="translate(-89.326 -88.348)" fill="#0058a5" fill-rule="evenodd"/>
    <path id="Trazado_7667" data-name="Trazado 7667" d="M1149.241,518.688v-.562h1.294c.192,0,.274-.1.274-.217s-.083-.219-.274-.219h-.585a.723.723,0,0,1-.791-.775c0-.415.259-.815,1.015-.815h1.259l-.272.582h-1.089c-.208,0-.272.109-.272.214a.225.225,0,0,0,.238.225h.613a.709.709,0,0,1,.812.742.775.775,0,0,1-.843.823Z" transform="translate(-124.809 -88.348)" fill="#0058a5" fill-rule="evenodd"/>
    <path id="Trazado_7668" data-name="Trazado 7668" d="M1168.657,518.688v-.562h1.239c.191,0,.274-.1.274-.217s-.083-.219-.274-.219h-.53a.723.723,0,0,1-.791-.775c0-.415.259-.815,1.014-.815h1.234l-.272.582h-1.064c-.208,0-.272.109-.272.214a.225.225,0,0,0,.238.225h.558a.709.709,0,0,1,.813.742.776.776,0,0,1-.843.823Z" transform="translate(-141.851 -88.348)" fill="#0058a5" fill-rule="evenodd"/>
  </g>
</svg>
