<svg xmlns="http://www.w3.org/2000/svg" width="170.547" height="43.625" viewBox="0 0 170.547 43.625">
  <g id="Grupo_2386" data-name="Grupo 2386" transform="translate(-2249 508.054)">
    <g id="Grupo_2384" data-name="Grupo 2384" transform="translate(2355.547 -474.429)">
      <text id="FIRMA_DIGITAL" data-name="FIRMA DIGITAL" transform="translate(64 8)" fill="#7c1d7c" font-size="9" font-family="ArialMT, Arial" style="isolation: isolate"><tspan x="-64.34" y="0">FIRMA DIGITAL</tspan></text>
    </g>
    <g id="Grupo_2385" data-name="Grupo 2385" transform="translate(2249 -508.054)">
      <path id="Trazado_7086" data-name="Trazado 7086" d="M1161.7,362.235h.345a8.433,8.433,0,1,0-8.729-8.427v8.427h8.384Zm-12.878-8.464h0a12.927,12.927,0,1,1,12.927,12.927h-8.6v2.334c0,1.469-1.816,3.024-4.322,3.024V353.771" transform="translate(-1040.564 -340.844)" fill="#0280cc"/>
      <path id="Trazado_7087" data-name="Trazado 7087" d="M154.261,353.771a8.448,8.448,0,1,0,8.469-8.433h0a8.42,8.42,0,0,0-8.469,8.37c0,.021,0,.042,0,.063h0m-4.495,0h0A12.927,12.927,0,1,1,162.693,366.7a12.927,12.927,0,0,1-12.927-12.927h0" transform="translate(-149.766 -340.844)" fill="#0280cc"/>
      <path id="Trazado_7088" data-name="Trazado 7088" d="M414.986,342.837v13.008c0,5.316,5.532,12.316,11.106,12.316h9.248c0-1.945-2.031-4.279-3.458-4.279h-5.314c-2.593,0-7.217-3.978-7.217-7.908V345.905c-.044-1.469-1.86-3.068-4.365-3.068" transform="translate(-386.248 -342.621)" fill="#0280cc"/>
      <path id="Trazado_7089" data-name="Trazado 7089" d="M620.964,340.844c-2.506,0-4.321,1.6-4.321,3.024v9.205a2.444,2.444,0,0,0,0,.568v.779a1.454,1.454,0,0,0,0-.426V366.7c2.506,0,4.321-1.6,4.321-3.024V353.117a1.449,1.449,0,0,0,0,.426Z" transform="translate(-566.038 -340.844)" fill="#0280cc"/>
      <path id="Trazado_7090" data-name="Trazado 7090" d="M684.191,368.16V355.154c0-5.316,5.532-12.317,11.106-12.317h4.019c3.458,0,6.827,2.637,8.95,5.966,2.118-3.284,5.532-5.966,8.988-5.966h3.327c5.574,0,11.106,7,11.106,12.317v13.008c-2.506,0-4.322-1.6-4.322-3.024V355.024c0-3.932-4.667-7.908-7.217-7.908h-2.415c-2.593,0-7.217,3.978-7.217,7.908V365.14a.954.954,0,0,1-.043.345v2.722c-2.506,0-4.322-1.6-4.322-3.024V355.024c0-3.932-4.667-7.908-7.217-7.908h-3.111c-2.593,0-7.261,3.978-7.261,7.908V365.14c-.043,1.421-1.858,3.024-4.364,3.024" transform="translate(-626.282 -342.621)" fill="#0280cc"/>
      <path id="Trazado_7091" data-name="Trazado 7091" d="M1414.025,342.837c2.506,0,4.321,1.6,4.321,3.024v22.861c-2.506,0-4.321-1.6-4.321-3.024V355.109a1.45,1.45,0,0,1,0,.426Z" transform="translate(-1277.034 -342.621)" fill="#0280cc"/>
      <path id="Trazado_7092" data-name="Trazado 7092" d="M1493.958,362.247h8.469v-8.464a8.427,8.427,0,1,0-8.729,8.427Zm12.927-8.47h0v6.179a2.457,2.457,0,0,1,0,.568v.779a1.45,1.45,0,0,1,0-.426v5.834h-12.927a12.927,12.927,0,1,1,12.927-12.927h0" transform="translate(-1336.779 -340.856)" fill="#0280cc"/>
    </g>
  </g>
</svg>
