<svg xmlns="http://www.w3.org/2000/svg" width="137.205" height="33.118" viewBox="0 0 137.205 33.118">
  <g id="Grupo_2387" data-name="Grupo 2387" transform="translate(-2249 508.054)">
    <g id="Grupo_2384" data-name="Grupo 2384" transform="translate(2342.034 -480.935)">
      <text id="FIRMA_DIGITAL" data-name="FIRMA DIGITAL" transform="translate(43 5)" fill="#fff" font-size="6" font-family="ArialMT, Arial" style="isolation: isolate"><tspan x="-42.894" y="0">FIRMA DIGITAL</tspan></text>
    </g>
    <g id="Grupo_2385" data-name="Grupo 2385" transform="translate(2249 -508.054)">
      <path id="Trazado_7086" data-name="Trazado 7086" d="M1159.2,358.1h.278a6.8,6.8,0,1,0-7.04-6.8v6.8h6.762Zm-10.386-6.826h0a10.426,10.426,0,1,1,10.426,10.426h-6.936v1.882c0,1.185-1.464,2.439-3.485,2.439V351.27" transform="translate(-1061.51 -340.844)" fill="#fff"/>
      <path id="Trazado_7087" data-name="Trazado 7087" d="M153.391,351.27a6.814,6.814,0,1,0,6.831-6.8h0a6.791,6.791,0,0,0-6.831,6.75c0,.017,0,.034,0,.051h0m-3.625,0h0A10.426,10.426,0,1,1,160.192,361.7a10.426,10.426,0,0,1-10.426-10.426h0" transform="translate(-149.766 -340.844)" fill="#fff"/>
      <path id="Trazado_7088" data-name="Trazado 7088" d="M414.986,342.837v10.491c0,4.287,4.461,9.933,8.957,9.933H431.4c0-1.568-1.638-3.451-2.789-3.451h-4.286c-2.091,0-5.82-3.208-5.82-6.378v-8.121c-.036-1.185-1.5-2.475-3.521-2.475" transform="translate(-391.808 -342.663)" fill="#fff"/>
      <path id="Trazado_7089" data-name="Trazado 7089" d="M620.125,340.844c-2.021,0-3.485,1.29-3.485,2.439v7.424a1.964,1.964,0,0,0,0,.458v.628a1.171,1.171,0,0,0,0-.344V361.7c2.021,0,3.485-1.29,3.485-2.439v-8.516a1.171,1.171,0,0,0,0,.344Z" transform="translate(-575.827 -340.844)" fill="#fff"/>
      <path id="Trazado_7090" data-name="Trazado 7090" d="M684.191,363.26V352.77c0-4.287,4.461-9.933,8.957-9.933h3.241c2.789,0,5.506,2.126,7.218,4.812,1.708-2.649,4.461-4.812,7.249-4.812h2.683c4.5,0,8.957,5.646,8.957,9.933v10.491c-2.021,0-3.485-1.29-3.485-2.439v-8.156c0-3.171-3.764-6.378-5.82-6.378h-1.948c-2.091,0-5.82,3.208-5.82,6.378v8.159a.766.766,0,0,1-.034.278v2.2c-2.021,0-3.485-1.29-3.485-2.439v-8.193c0-3.171-3.764-6.378-5.82-6.378h-2.509c-2.091,0-5.856,3.208-5.856,6.378v8.159c-.034,1.146-1.5,2.439-3.52,2.439" transform="translate(-637.487 -342.663)" fill="#fff"/>
      <path id="Trazado_7091" data-name="Trazado 7091" d="M1414.025,342.837c2.021,0,3.485,1.29,3.485,2.439v18.438c-2.021,0-3.485-1.29-3.485-2.439v-8.54a1.175,1.175,0,0,1,0,.344Z" transform="translate(-1303.541 -342.663)" fill="#fff"/>
      <path id="Trazado_7092" data-name="Trazado 7092" d="M1491.457,358.108h6.831v-6.826a6.8,6.8,0,1,0-7.04,6.8Zm10.426-6.831h0v4.984a1.944,1.944,0,0,1,0,.458v.628a1.175,1.175,0,0,1,0-.344v4.705h-10.426a10.426,10.426,0,1,1,10.426-10.426h0" transform="translate(-1364.691 -340.856)" fill="#fff"/>
    </g>
  </g>
</svg>
