<svg xmlns="http://www.w3.org/2000/svg" width="122.081" height="35.962" viewBox="0 0 122.081 35.962">
  <g id="Grupo_2911" data-name="Grupo 2911" transform="translate(0 0)">
    <g id="Grupo_2904" data-name="Grupo 2904" transform="translate(29.78 7.21)">
      <path id="Trazado_7676" data-name="Trazado 7676" d="M152.845,973.311c-2.661,0-4.409-1.52-4.485-3.554h1.406a2.761,2.761,0,0,0,3.079,2.432c1.843,0,2.926-1.083,2.926-2.452,0-3.915-7.3-1.444-7.3-6.442,0-2.052,1.691-3.554,4.257-3.554,2.527,0,4.048,1.406,4.276,3.231h-1.444a2.716,2.716,0,0,0-2.889-2.09c-1.558-.019-2.851.836-2.851,2.375,0,3.839,7.3,1.483,7.3,6.423C157.121,971.487,155.657,973.311,152.845,973.311Z" transform="translate(-148.36 -959.742)" fill="#0073bf"/>
      <path id="Trazado_7677" data-name="Trazado 7677" d="M203.618,985.354c-2.946,0-5.093-2.052-5.093-5.34,0-3.307,2.109-5.34,5.093-5.34a4.664,4.664,0,0,1,4.9,4.808,9.1,9.1,0,0,1-.038,1.045h-8.609a3.628,3.628,0,0,0,3.744,3.706,3.212,3.212,0,0,0,3.345-2.319h1.406A4.562,4.562,0,0,1,203.618,985.354Zm-3.744-5.91h7.3a3.393,3.393,0,0,0-3.611-3.63A3.582,3.582,0,0,0,199.874,979.444Z" transform="translate(-188.757 -971.767)" fill="#0073bf"/>
      <path id="Trazado_7678" data-name="Trazado 7678" d="M259.388,974.674a4.478,4.478,0,0,1,4.77,3.535h-1.425a3.161,3.161,0,0,0-3.345-2.395c-2.033,0-3.687,1.387-3.687,4.2s1.653,4.219,3.687,4.219a3.153,3.153,0,0,0,3.345-2.414h1.425a4.546,4.546,0,0,1-4.77,3.535c-2.926,0-5.036-2.052-5.036-5.34S256.461,974.674,259.388,974.674Z" transform="translate(-233.713 -971.767)" fill="#0073bf"/>
      <path id="Trazado_7679" data-name="Trazado 7679" d="M321.018,985.831h-1.33v-1.824a3.75,3.75,0,0,1-3.535,2c-2.357,0-4.219-1.444-4.219-4.485v-6.062h1.311v5.91c0,2.3,1.254,3.478,3.154,3.478,1.938,0,3.288-1.216,3.288-3.744v-5.644h1.33Z" transform="translate(-280.083 -972.395)" fill="#0073bf"/>
      <path id="Trazado_7680" data-name="Trazado 7680" d="M370.651,985.045h-1.33V974.669h1.33v1.844a3.574,3.574,0,0,1,3.554-2.033v1.387h-.361c-1.729,0-3.193.779-3.193,3.383Z" transform="translate(-326.295 -971.609)" fill="#0073bf"/>
      <path id="Trazado_7681" data-name="Trazado 7681" d="M401.743,985.354c-2.946,0-5.093-2.052-5.093-5.34,0-3.307,2.109-5.34,5.093-5.34a4.664,4.664,0,0,1,4.9,4.808,9.1,9.1,0,0,1-.038,1.045H398a3.628,3.628,0,0,0,3.744,3.706,3.213,3.213,0,0,0,3.345-2.319h1.406A4.561,4.561,0,0,1,401.743,985.354ZM398,979.444h7.3a3.393,3.393,0,0,0-3.611-3.63A3.583,3.583,0,0,0,398,979.444Z" transform="translate(-348.303 -971.767)" fill="#0073bf"/>
      <path id="Trazado_7682" data-name="Trazado 7682" d="M459.409,968.792h-2.224v5.093h-2.66V960.62h4.884c3.193,0,4.789,1.805,4.789,4.1C464.2,966.739,462.83,968.792,459.409,968.792Zm-.114-2.147c1.5,0,2.167-.741,2.167-1.92,0-1.216-.665-1.938-2.167-1.938h-2.109v3.858Z" transform="translate(-394.908 -960.449)" fill="#0073bf"/>
      <path id="Trazado_7683" data-name="Trazado 7683" d="M510.279,973.8a4.163,4.163,0,0,1,3.478,1.672v-1.5h2.68V984.5h-2.68v-1.539a4.152,4.152,0,0,1-3.5,1.71c-2.661,0-4.789-2.186-4.789-5.473S507.6,973.8,510.279,973.8Zm.684,2.337a2.808,2.808,0,0,0-2.775,3.06,2.877,2.877,0,0,0,2.775,3.136,3.114,3.114,0,0,0,0-6.2Z" transform="translate(-435.934 -971.059)" fill="#0073bf"/>
      <path id="Trazado_7684" data-name="Trazado 7684" d="M572.487,974.674h2.832L568.8,990.181h-2.832l2.281-5.245-4.219-10.262h2.984l2.718,7.354Z" transform="translate(-483.09 -971.767)" fill="#0073bf"/>
    </g>
    <g id="Grupo_2905" data-name="Grupo 2905" transform="translate(71.641 27.002)">
      <path id="Trazado_7685" data-name="Trazado 7685" d="M365.752,1063.417a1.989,1.989,0,0,0-1.714.871v-2.4h-.7v6.2h.7v-.8a1.984,1.984,0,0,0,1.714.861,2.378,2.378,0,0,0,0-4.742Zm-.115.632a1.563,1.563,0,0,1,1.6,1.73,1.6,1.6,0,1,1-1.6-1.73Z" transform="translate(-363.34 -1061.792)" fill="#0095da"/>
      <path id="Trazado_7686" data-name="Trazado 7686" d="M390.7,1073.772l-1.48-3.709h-.775l1.865,4.521-.9,2.2h.741l2.711-6.719h-.734Z" transform="translate(-383.558 -1068.374)" fill="#0095da"/>
      <path id="Trazado_7687" data-name="Trazado 7687" d="M426.568,1063.28a3,3,0,1,0,2.9,2.995A2.854,2.854,0,0,0,426.568,1063.28Zm0,5.357a2.178,2.178,0,0,1-2.182-2.362,2.188,2.188,0,1,1,4.363,0A2.178,2.178,0,0,1,426.568,1068.637Z" transform="translate(-411.918 -1062.911)" fill="#0095da"/>
      <rect id="Rectángulo_985" data-name="Rectángulo 985" width="0.706" height="6.203" transform="translate(18.39 0.098)" fill="#0095da"/>
      <path id="Trazado_7688" data-name="Trazado 7688" d="M466.821,1061.385a.474.474,0,0,0-.484.484.484.484,0,1,0,.969,0A.474.474,0,0,0,466.821,1061.385Z" transform="translate(-446.281 -1061.385)" fill="#0095da"/>
      <rect id="Rectángulo_986" data-name="Rectángulo 986" width="0.706" height="4.611" transform="translate(20.187 1.69)" fill="#0095da"/>
      <path id="Trazado_7689" data-name="Trazado 7689" d="M481.634,1069.643a1.849,1.849,0,0,1-3.273,0,1.681,1.681,0,0,0-1.419.682v-.6h-.706v4.611h.706v-2.494c0-1,.481-1.567,1.321-1.567.8,0,1.255.523,1.255,1.435v2.625h.7v-2.494c0-1,.481-1.567,1.32-1.567.792,0,1.246.523,1.246,1.435v2.625h.7v-2.691A1.789,1.789,0,0,0,481.634,1069.643Z" transform="translate(-454.253 -1068.035)" fill="#0095da"/>
      <path id="Trazado_7690" data-name="Trazado 7690" d="M521.279,1069.727a2,2,0,0,0-1.714.864v-.8h-.7v6.728h.7V1073.6a2,2,0,0,0,1.714.866,2.378,2.378,0,0,0,0-4.742Zm-.115.632a1.563,1.563,0,0,1,1.6,1.73,1.6,1.6,0,1,1-1.6-1.73Z" transform="translate(-488.583 -1068.103)" fill="#0095da"/>
      <rect id="Rectángulo_987" data-name="Rectángulo 987" width="0.706" height="4.611" transform="translate(35.739 1.69)" fill="#0095da"/>
      <path id="Trazado_7691" data-name="Trazado 7691" d="M546.691,1061.385a.474.474,0,0,0-.484.484.484.484,0,1,0,.969,0A.474.474,0,0,0,546.691,1061.385Z" transform="translate(-510.599 -1061.385)" fill="#0095da"/>
      <path id="Trazado_7692" data-name="Trazado 7692" d="M558.672,1070.587a1.974,1.974,0,0,0-1.706-.86,2.378,2.378,0,0,0-.008,4.742,1.99,1.99,0,0,0,1.714-.87v.8h.706v-4.611h-.706Zm-1.6,3.25a1.588,1.588,0,0,1-1.6-1.747,1.563,1.563,0,0,1,1.6-1.73,1.745,1.745,0,0,1,0,3.478Z" transform="translate(-517.486 -1068.103)" fill="#0095da"/>
      <rect id="Rectángulo_988" data-name="Rectángulo 988" width="0.706" height="5.866" transform="translate(45.156 0.435)" fill="#0095da"/>
      <path id="Trazado_7693" data-name="Trazado 7693" d="M602.358,1063.617v.608h1.6v5.259h.706v-5.259h1.592v-.608Z" transform="translate(-555.816 -1063.182)" fill="#0095da"/>
    </g>
    <g id="Grupo_2910" data-name="Grupo 2910" transform="translate(0 0)">
      <g id="Grupo_2906" data-name="Grupo 2906" transform="translate(0 13.472)">
        <path id="Trazado_7694" data-name="Trazado 7694" d="M6.9,1014.391a20.1,20.1,0,0,1-7.421-1.447,5.858,5.858,0,0,1-4.057-5.912c.014-1.594.008-3.217,0-4.787-.006-1.788-.011-3.637.01-5.457.038-3.2,1.649-4.792,4.925-4.852,2.22-.04,11.054-.053,13.294,0,3.074.079,4.734,1.731,4.8,4.777h0c.075,3.374.05,6.779.016,10.261a6.118,6.118,0,0,1-4.271,6.046A20.749,20.749,0,0,1,6.9,1014.391Zm.451-21.281c-2.87,0-5.815.014-6.969.035-2.624.048-3.707,1.108-3.738,3.657-.022,1.811-.016,3.656-.01,5.439.005,1.573.01,3.2,0,4.8a4.687,4.687,0,0,0,3.292,4.777,18.784,18.784,0,0,0,13.855.073,4.877,4.877,0,0,0,3.486-4.925c.035-3.472.059-6.866-.015-10.222h0c-.053-2.391-1.2-3.534-3.624-3.6C12.559,993.122,9.988,993.11,7.354,993.11Z" transform="translate(4.578 -991.901)" fill="#008932"/>
      </g>
      <g id="Grupo_2907" data-name="Grupo 2907" transform="translate(2.198 15.677)">
        <path id="Trazado_7695" data-name="Trazado 7695" d="M15.992,1021.32a18,18,0,0,1-6.614-1.3,3.7,3.7,0,0,1-2.667-3.85c.011-1.269.009-2.52.007-3.467a.168.168,0,0,1,.167-.168h0a.168.168,0,0,1,.168.167c0,.948,0,2.2-.007,3.471a3.4,3.4,0,0,0,2.454,3.534,17.653,17.653,0,0,0,6.491,1.275,18.324,18.324,0,0,0,6.415-1.21,3.591,3.591,0,0,0,2.626-3.7c.035-3.435.06-6.8-.015-10.179-.038-1.7-.605-2.257-2.335-2.3-.51-.013-1.387-.023-2.607-.029a.168.168,0,0,1,0-.336h0c1.221.006,2.1.016,2.613.029,1.924.05,2.621.738,2.663,2.63.075,3.386.05,6.753.014,10.191a3.892,3.892,0,0,1-2.844,4.011A18.652,18.652,0,0,1,15.992,1021.32Z" transform="translate(-6.712 -1003.227)" fill="#008932"/>
      </g>
      <g id="Grupo_2908" data-name="Grupo 2908" transform="translate(2.196 15.669)">
        <path id="Trazado_7696" data-name="Trazado 7696" d="M6.87,1009.815a.168.168,0,0,1-.168-.167c0-1.033,0-2.391.014-3.747.024-2.017.671-2.644,2.769-2.682,1.108-.02,3.981-.034,6.985-.034a.168.168,0,1,1,0,.336c-3,0-5.873.014-6.979.034-1.916.035-2.417.518-2.439,2.35-.016,1.354-.016,2.711-.014,3.743a.168.168,0,0,1-.168.168Z" transform="translate(-6.701 -1003.184)" fill="#008932"/>
      </g>
      <g id="Grupo_2909" data-name="Grupo 2909" transform="translate(4.907 0)">
        <path id="Trazado_7697" data-name="Trazado 7697" d="M32.754,934.591a.6.6,0,0,1-.6-.6v-4.811c-.126-2.532-1.784-5.251-5.132-5.251h-.053c-3.348,0-5.006,2.719-5.132,5.251v4.811a.6.6,0,0,1-1.209,0v-4.826c0-.009,0-.019,0-.029a7.371,7.371,0,0,1,1.593-4.26,5.935,5.935,0,0,1,4.747-2.156h.053a5.935,5.935,0,0,1,4.748,2.156,7.371,7.371,0,0,1,1.593,4.26c0,.01,0,.019,0,.029v4.826A.6.6,0,0,1,32.754,934.591Z" transform="translate(-20.623 -922.716)" fill="#008932"/>
      </g>
      <path id="Trazado_7698" data-name="Trazado 7698" d="M43.235,1032.488a2.236,2.236,0,0,0,1.855,2.437v2.67a.369.369,0,0,0,.369.368h0a.368.368,0,0,0,.369-.368v-2.67a2.235,2.235,0,1,0-2.592-2.437Zm3.747.233a1.524,1.524,0,1,1-1.524-1.524A1.524,1.524,0,0,1,46.982,1032.721Z" transform="translate(-33.916 -1009.501)" fill="#008932"/>
    </g>
  </g>
</svg>
