<svg xmlns="http://www.w3.org/2000/svg" xmlns:xlink="http://www.w3.org/1999/xlink" width="57.926" height="18.719" viewBox="0 0 57.926 18.719">
  <defs>
    <linearGradient id="linear-gradient" x1="-2.251" y1="0.518" x2="0.982" y2="0.498" gradientUnits="objectBoundingBox">
      <stop offset="0" stop-color="#161e49"/>
      <stop offset="1" stop-color="#222a7c"/>
    </linearGradient>
    <linearGradient id="linear-gradient-2" x1="-1.738" y1="0.511" x2="2.08" y2="0.492" xlink:href="#linear-gradient"/>
    <linearGradient id="linear-gradient-3" x1="0.147" y1="0.502" x2="2.623" y2="0.482" xlink:href="#linear-gradient"/>
    <linearGradient id="linear-gradient-4" x1="-1.967" y1="0.508" x2="4.38" y2="0.488" xlink:href="#linear-gradient"/>
  </defs>
  <g id="Grupo_2902" data-name="Grupo 2902" transform="translate(-841.321 -108.622)">
    <path id="Trazado_7669" data-name="Trazado 7669" d="M1242.716,129.732h-4.361c-.16-.767-.331-1.517-.466-2.273-.056-.314-.156-.436-.507-.431-1.748.022-3.5.017-5.246,0a.4.4,0,0,0-.451.326c-.241.721-.5,1.434-.774,2.145-.037.1-.158.229-.241.23-1.576.014-3.152.01-4.774.01.3-.712.575-1.391.859-2.069q3.049-7.273,6.1-14.546a2.147,2.147,0,0,1,2.236-1.49h3.828c.126.591.254,1.174.376,1.757q1.5,7.188,3,14.375c.128.614.28,1.223.421,1.834Zm-5.707-6.43-1.382-6.625-.056-.011-2.406,6.636Z" transform="translate(-343.469 -2.692)" fill="url(#linear-gradient)"/>
    <path id="Trazado_7670" data-name="Trazado 7670" d="M1114.161,108.622c.575.107,1.155.195,1.725.326.52.12,1.029.287,1.582.444l-.817,3.818c-.729-.214-1.426-.46-2.142-.618a6.076,6.076,0,0,0-2.964-.026,3.006,3.006,0,0,0-1.115.593,1.017,1.017,0,0,0-.031,1.609,6.95,6.95,0,0,0,1.194.86c.954.574,1.956,1.073,2.883,1.686a4.27,4.27,0,0,1,2.056,3.056,5.448,5.448,0,0,1-2.575,5.565,8.828,8.828,0,0,1-4.15,1.341,14.83,14.83,0,0,1-6.059-.687c-.132-.043-.261-.1-.39-.15a1.08,1.08,0,0,1-.131-.08l.844-3.954c.336.147.652.294.974.424a8.442,8.442,0,0,0,4.781.6,3.4,3.4,0,0,0,1.23-.514,1.3,1.3,0,0,0,.146-2.144,11.518,11.518,0,0,0-1.578-1.038c-.84-.512-1.733-.948-2.529-1.521a4.241,4.241,0,0,1-1.9-3.015,5.156,5.156,0,0,1,2.01-4.761,8.448,8.448,0,0,1,4.493-1.744,2.37,2.37,0,0,0,.271-.064Z" transform="translate(-233.911)" fill="url(#linear-gradient-2)"/>
    <path id="Trazado_7671" data-name="Trazado 7671" d="M863.292,111.6c-.245.589-.477,1.152-.712,1.712q-3.366,8.031-6.727,16.064a.444.444,0,0,1-.5.32c-1.417-.012-2.833-.016-4.25,0-.3,0-.4-.1-.467-.371-1.2-4.68-2.422-9.354-3.609-14.037a2.465,2.465,0,0,0-1.472-1.806,23.441,23.441,0,0,0-4.06-1.312l-.18-.045c.007-.543.007-.543.523-.543h7.437a2.157,2.157,0,0,1,2.247,1.847q.944,4.942,1.867,9.888c.027.144.058.288.1.491.064-.121.109-.189.138-.263q2.31-5.841,4.612-11.686a.374.374,0,0,1,.416-.283c1.438.011,2.876.006,4.314.006C863.068,111.589,863.161,111.6,863.292,111.6Z" transform="translate(0 -2.644)" fill="url(#linear-gradient-3)"/>
    <path id="Trazado_7672" data-name="Trazado 7672" d="M1029.311,129.9l3.87-18.086h4.7c-.2.918-.387,1.818-.579,2.717q-1.6,7.464-3.185,14.93c-.073.346-.2.456-.555.449-1.287-.025-2.575-.01-3.863-.01Z" transform="translate(-167.896 -2.854)" fill="url(#linear-gradient-4)"/>
  </g>
</svg>
