<svg xmlns="http://www.w3.org/2000/svg" width="35.236" height="27.911" viewBox="0 0 35.236 27.911">
  <g id="Grupo_2900" data-name="Grupo 2900" transform="translate(-742.252 -711.931)">
    <path id="Trazado_7647" data-name="Trazado 7647" d="M762.894,739.841c7.63.037,14.594-6.221,14.594-13.834,0-8.325-6.964-14.079-14.594-14.076h-6.566a13.767,13.767,0,0,0-14.076,14.076,13.983,13.983,0,0,0,14.076,13.834Z" fill="#003b87"/>
    <path id="Trazado_7648" data-name="Trazado 7648" d="M761.834,735.65V720.533a8.093,8.093,0,0,1,0,15.117m-10.995-7.559a8.111,8.111,0,0,1,5.2-7.557v15.113a8.107,8.107,0,0,1-5.2-7.556m8.1-12.777a12.776,12.776,0,1,0,12.776,12.777,12.778,12.778,0,0,0-12.776-12.777" transform="translate(-2.577 -2.23)" fill="#fff"/>
    <path id="Trazado_7649" data-name="Trazado 7649" d="M762.894,739.841c7.63.037,14.594-6.221,14.594-13.834,0-8.325-6.964-14.079-14.594-14.076h-6.566a13.767,13.767,0,0,0-14.076,14.076,13.983,13.983,0,0,0,14.076,13.834Z" fill="#003b87"/>
    <path id="Trazado_7650" data-name="Trazado 7650" d="M761.834,735.65V720.533a8.093,8.093,0,0,1,0,15.117m-10.995-7.559a8.111,8.111,0,0,1,5.2-7.557v15.113a8.107,8.107,0,0,1-5.2-7.556m8.1-12.777a12.776,12.776,0,1,0,12.776,12.777,12.778,12.778,0,0,0-12.776-12.777" transform="translate(-2.577 -2.23)" fill="#fff"/>
  </g>
</svg>
