<svg xmlns="http://www.w3.org/2000/svg" width="20.563" height="20.563" viewBox="0 0 20.563 20.563"><defs><style>.a{fill:#c8c8c8;}</style></defs><g transform="translate(-558.507 -87)"><g transform="translate(558.507 87)"><path class="a" d="M8.7,0a8.7,8.7,0,1,0,8.7,8.7A8.706,8.706,0,0,0,8.7,0Zm0,15.9a7.2,7.2,0,1,1,7.2-7.2h0A7.17,7.17,0,0,1,8.7,15.9Z"/><g transform="translate(13.538 13.538)"><path class="a" d="M6.8,5.7,1.3.2A.785.785,0,0,0,.2.2a.785.785,0,0,0,0,1.1L5.7,6.8A.778.778,0,0,0,6.8,5.7Z"/></g></g></g></svg>