<svg xmlns="http://www.w3.org/2000/svg" width="23.3" height="34.523" viewBox="0 0 23.3 34.523"><defs><style>.a{fill:#255fb2;}</style></defs><path class="a" d="M101.333,30.549v3.4a.575.575,0,0,1-1.151,0v-3.4a4.785,4.785,0,0,0-4.787-4.787,3.532,3.532,0,0,1-3.039-1.706.575.575,0,0,1,.983-.6,2.39,2.39,0,0,0,2.056,1.154,5.935,5.935,0,0,1,5.938,5.938ZM91.293,24.782a.575.575,0,0,1-.44.685,5.506,5.506,0,0,1-4.28-.837,3.489,3.489,0,0,1-2.6,1.132,4.785,4.785,0,0,0-4.787,4.787v3.4a.575.575,0,0,1-1.151,0v-3.4a5.935,5.935,0,0,1,5.938-5.938,2.4,2.4,0,0,0,2.4-2.4v-.152A7.707,7.707,0,0,1,81.994,15.4a2.348,2.348,0,0,1-1.8-2.274V10.143a10.539,10.539,0,0,1,2.851-7.686c3.292-3.173,8.571-2.972,12.453-1.1a.577.577,0,0,1,.122.958,7.765,7.765,0,0,1,4.752,3.419.635.635,0,0,1,.132.452.582.582,0,0,1-.165.365A3.756,3.756,0,0,0,99.247,9.2v3.924a.575.575,0,0,1-1.151,0V9.2a4.9,4.9,0,0,1,1.118-3.127,6.646,6.646,0,0,0-4.77-2.8l-1.011-.108a.576.576,0,0,1-.158-1.1l.46-.189C87.746-.216,81.341,2.1,81.341,10.137v2.989a1.188,1.188,0,0,0,.647,1.053v-3.73a4.032,4.032,0,0,1,4.027-4.027H93.35a4.032,4.032,0,0,1,4.027,4.027v4.711A7.705,7.705,0,0,1,87.513,22.5a3.518,3.518,0,0,1-.3,1.175,4.357,4.357,0,0,0,3.4.67.575.575,0,0,1,.685.44Zm-1.61-3.123a6.551,6.551,0,0,0,6.544-6.544V10.449A2.88,2.88,0,0,0,93.35,7.572H86.015a2.88,2.88,0,0,0-2.877,2.877v4.667a6.551,6.551,0,0,0,6.544,6.544Zm5.825,9.915H93.782a.575.575,0,1,0,0,1.151h1.726a.575.575,0,1,0,0-1.151Z" transform="translate(-78.033 0)"/></svg>