<svg xmlns="http://www.w3.org/2000/svg" width="111.379" height="111.379" viewBox="0 0 111.379 111.379">
  <g id="Grupo_2807" data-name="Grupo 2807" transform="translate(-584 -309)">
    <g id="Grupo_2805" data-name="Grupo 2805" transform="translate(584 309)">
      <path id="Trazado_7508" data-name="Trazado 7508" d="M85.17,1H6.373A5.373,5.373,0,0,0,1,6.373V54.725A5.373,5.373,0,0,0,6.373,60.1H36.817v3.582H31.444a8.965,8.965,0,0,0-8.954,8.954,1.791,1.791,0,0,0,1.791,1.791h42.98a1.791,1.791,0,0,0,1.791-1.791A8.965,8.965,0,0,0,60.1,63.679H54.725V60.1H85.17a5.373,5.373,0,0,0,5.373-5.373V6.373A5.373,5.373,0,0,0,85.17,1ZM60.1,67.261a5.383,5.383,0,0,1,5.066,3.582H26.378a5.383,5.383,0,0,1,5.066-3.582ZM40.4,63.679V60.1H51.144v3.582ZM86.96,54.725a1.791,1.791,0,0,1-1.791,1.791H6.373a1.791,1.791,0,0,1-1.791-1.791V6.373A1.791,1.791,0,0,1,6.373,4.582h78.8A1.791,1.791,0,0,1,86.96,6.373Z" transform="translate(-1 -1)" fill="#151a6a"/>
      <path id="Trazado_7509" data-name="Trazado 7509" d="M78.424,5H6.791A1.791,1.791,0,0,0,5,6.791V47.98a1.791,1.791,0,0,0,1.791,1.791H78.424a1.791,1.791,0,0,0,1.791-1.791V6.791A1.791,1.791,0,0,0,78.424,5ZM76.634,46.189H8.582V8.582H76.634Z" transform="translate(2.163 2.163)" fill="#151a6a"/>
      <path id="Trazado_7510" data-name="Trazado 7510" d="M13.557,23.678l8.8,8.926a2.04,2.04,0,0,0,2.819,0,1.986,1.986,0,0,0,0-2.819L17.754,22.3l7.423-7.486a1.986,1.986,0,0,0,0-2.819,2.043,2.043,0,0,0-2.819,0l-8.8,8.926C12.9,21.365,12.862,23.44,13.557,23.678Z" transform="translate(8.528 7.249)" fill="#151a6a"/>
      <path id="Trazado_7511" data-name="Trazado 7511" d="M25.289,33.024a1.734,1.734,0,0,0,2.224-.908l7.672-18.292a1.691,1.691,0,0,0-.876-2.224,1.739,1.739,0,0,0-2.287.908L24.349,30.775a1.691,1.691,0,0,0,.94,2.249Z" transform="translate(17.355 7.27)" fill="#151a6a"/>
      <path id="Trazado_7512" data-name="Trazado 7512" d="M32.438,32.6a2.043,2.043,0,0,0,2.819,0l8.8-8.926a2.05,2.05,0,0,0,0-2.758L35.257,12a2.043,2.043,0,0,0-2.819,0,1.986,1.986,0,0,0,0,2.819L39.861,22.3l-7.423,7.486a1.986,1.986,0,0,0,0,2.819Z" transform="translate(23.399 7.249)" fill="#151a6a"/>
    </g>
    <g id="Grupo_2806" data-name="Grupo 2806" transform="translate(628.771 353.771)">
      <rect id="Rectángulo_922" data-name="Rectángulo 922" width="60" height="61" rx="10" transform="translate(3.275 3.275)" fill="#fff"/>
      <path id="Trazado_7513" data-name="Trazado 7513" d="M72.948,13H19.661A6.669,6.669,0,0,0,13,19.661V72.948a6.669,6.669,0,0,0,6.661,6.661H72.948a6.669,6.669,0,0,0,6.661-6.661V19.661A6.669,6.669,0,0,0,72.948,13ZM74.28,51.633a1.332,1.332,0,0,1-1.332,1.332H69.319a23.756,23.756,0,0,1-2.033,4.9l2.568,2.567a1.332,1.332,0,0,1,0,1.885l-7.536,7.536a1.332,1.332,0,0,1-1.885,0l-2.566-2.568a23.713,23.713,0,0,1-4.9,2.033v3.629a1.332,1.332,0,0,1-1.332,1.332H40.976a1.332,1.332,0,0,1-1.332-1.332V69.319a23.713,23.713,0,0,1-4.9-2.033l-2.566,2.568a1.373,1.373,0,0,1-1.885,0l-7.536-7.536a1.332,1.332,0,0,1,0-1.885l2.568-2.567a23.755,23.755,0,0,1-2.033-4.9H19.661a1.332,1.332,0,0,1-1.332-1.332V40.976a1.332,1.332,0,0,1,1.332-1.332H23.29a23.755,23.755,0,0,1,2.033-4.9l-2.568-2.567a1.332,1.332,0,0,1,0-1.885l7.536-7.536a1.332,1.332,0,0,1,1.885,0l2.566,2.568a23.713,23.713,0,0,1,4.9-2.033V19.661a1.332,1.332,0,0,1,1.332-1.332H51.633a1.332,1.332,0,0,1,1.332,1.332V23.29a23.713,23.713,0,0,1,4.9,2.033l2.566-2.568a1.373,1.373,0,0,1,1.885,0l7.536,7.536a1.332,1.332,0,0,1,0,1.885l-2.568,2.567a23.756,23.756,0,0,1,2.033,4.9h3.629a1.332,1.332,0,0,1,1.332,1.332Z" transform="translate(-13 -13)" fill="#0182c4"/>
      <circle id="Elipse_132" data-name="Elipse 132" cx="12" cy="12" r="12" transform="translate(21.275 21.275)" fill="#0182c4"/>
    </g>
  </g>
</svg>
