<svg xmlns="http://www.w3.org/2000/svg" width="27.157" height="31.6" viewBox="0 0 27.157 31.6"><defs><style>.a{fill:#255fb2;}</style></defs><path class="a" d="M62.539,10.863a.617.617,0,0,0,.617-.617V2.469a.617.617,0,0,0-1.234,0V3.7H59.453V.617A.617.617,0,0,0,58.836,0h-3.7a.617.617,0,0,0-.617.617V13.331H37.852A1.854,1.854,0,0,0,36,15.183V29.749A1.854,1.854,0,0,0,37.852,31.6H46.8a.617.617,0,0,0,0-1.234H37.852a.618.618,0,0,1-.617-.617V15.183a.618.618,0,0,1,.617-.617H54.516v6.392a6.89,6.89,0,0,0,1.852,4.719v.986H53.282a1.234,1.234,0,0,1-1.234-1.234,2.469,2.469,0,0,0-4.938,0,1.234,1.234,0,0,1-2.469,0V21.355a2.472,2.472,0,0,0-2.469-2.469H40.32a.617.617,0,1,0,0,1.234h1.852a1.236,1.236,0,0,1,1.234,1.234v4.073a2.469,2.469,0,0,0,4.938,0,1.234,1.234,0,0,1,2.469,0A2.468,2.468,0,0,0,53.282,27.9h3.7a.617.617,0,0,0,.617-.617v-1.6a6.934,6.934,0,0,0,1.852-4.718V14.566h1.852a.618.618,0,0,1,.617.617V29.749a.618.618,0,0,1-.617.617H52.356a.617.617,0,1,0,0,1.234h8.949a1.854,1.854,0,0,0,1.852-1.852V15.183a1.854,1.854,0,0,0-1.852-1.852H59.453V4.938h2.469v5.308A.617.617,0,0,0,62.539,10.863Zm-4.32-9.628V3.7H55.75V1.234ZM56.984,24.5a5.662,5.662,0,0,1-1.234-3.545V18.269h2.469v2.689A5.708,5.708,0,0,1,56.984,24.5Zm1.235-7.469H55.75V4.938h2.469Z" transform="translate(-36)"/><circle class="a" cx="0.429" cy="0.429" r="0.429" transform="translate(12.873 30.721)"/></svg>