<!-- Generated by IcoMoon.io -->
<svg version="1.1" xmlns="http://www.w3.org/2000/svg" width="945" height="1024" viewBox="0 0 945 1024">
<title></title>
<g id="icomoon-ignore">
</g>
<path d="M472.739 1024c75.953-0.051 137.612-61.182 138.516-136.929l0.001-0.086v-418.754l107.768 101.659c22.305 24.646 54.412 40.065 90.121 40.065 0.254 0 0.507-0.001 0.761-0.002h-0.039c0.279 0.002 0.608 0.003 0.937 0.003 37.078 0 70.572-15.345 94.478-40.031l0.034-0.035c24.744-24.483 40.067-58.446 40.067-95.987 0-0.374-0.002-0.748-0.005-1.122v0.057c-0.219-11.019-1.34-21.623-3.291-31.933l0.187 1.185c-6.459-26.026-19.378-48.437-36.97-66.216l-338.717-338.717c-24.911-23.050-58.36-37.189-95.111-37.189-2.832 0-5.644 0.084-8.434 0.249l0.385-0.018c-36.471 3.786-68.538 20.159-92.309 44.634l-0.035 0.036-330.516 330.516c-17.647 16.922-30.228 39-35.32 63.809l-0.136 0.792c-2.907 9.686-4.588 20.818-4.607 32.34v0.010c0.447 37.801 15.645 71.967 40.093 97.083l-0.031-0.032c24.853 24.732 59.113 40.031 96.945 40.063h0.006c0.692 0.012 1.509 0.019 2.328 0.019 38.6 0 73.631-15.28 99.374-40.122l-0.042 0.041 95.449-101.659v419.255c0.902 75.691 62.334 136.737 138.089 137.014h0.027z"></path>
</svg>
