<svg xmlns="http://www.w3.org/2000/svg" width="33" height="28.473" viewBox="0 0 33 28.473"><defs><style>.a{fill:#fff;}</style></defs><g transform="translate(0 -32.63)"><path class="a" d="M28.765,41.963a8.679,8.679,0,0,0,.11-1.083,8.222,8.222,0,0,0-14.818-4.937,7.144,7.144,0,0,0-8.9,7c0,.11.026.213.032.329A7.2,7.2,0,0,0,7.219,57.38h7.618v-5.8l-1.85,1.74a2.071,2.071,0,0,1-1.56.683,2.276,2.276,0,0,1-1.637-.683,2.308,2.308,0,0,1-.683-1.663,3.339,3.339,0,0,1,.052-.529,2.4,2.4,0,0,1,.632-1.134L15.6,44.185a2.4,2.4,0,0,1,1.766-.632,2.563,2.563,0,0,1,1.586.767l5.672,5.672a2.081,2.081,0,0,1,.606,1.109,2.054,2.054,0,0,1,.077.554,2.448,2.448,0,0,1-.683,1.663A2.352,2.352,0,0,1,22.958,54a2.461,2.461,0,0,1-1.74-.683l-1.637-1.74v5.8h5.905v-.033a8.224,8.224,0,0,0,3.28-15.384Z"/><path class="a" d="M230.15,435.23v.179a2.372,2.372,0,0,0,4.744-.006v-.172Z" transform="translate(-215.316 -376.651)"/></g></svg>