<svg xmlns="http://www.w3.org/2000/svg" width="52.728" height="49.966" viewBox="0 0 52.728 49.966"><defs><style>.a{fill:#151a6a;}.b{fill:#fff;}.c{fill:#e74c3c;}</style></defs><g transform="translate(-1041.173 -248)"><g transform="translate(1041.173 248)"><g transform="translate(9.615 34.453)"><path class="a" d="M138.4,344h-1.6a.8.8,0,1,0,0,1.6h1.6a.8.8,0,1,0,0-1.6Z" transform="translate(-136 -344)"/></g><g transform="translate(14.422 34.453)"><path class="a" d="M204.031,344H184.8a.8.8,0,1,0,0,1.6h19.23a.8.8,0,0,0,0-1.6Z" transform="translate(-184 -344)"/></g><g transform="translate(9.615 29.646)"><path class="a" d="M138.4,296h-1.6a.8.8,0,1,0,0,1.6h1.6a.8.8,0,1,0,0-1.6Z" transform="translate(-136 -296)"/></g><g transform="translate(14.422 29.646)"><path class="a" d="M204.031,296H184.8a.8.8,0,1,0,0,1.6h19.23a.8.8,0,1,0,0-1.6Z" transform="translate(-184 -296)"/></g><g transform="translate(9.615 24.838)"><path class="a" d="M138.4,248h-1.6a.8.8,0,1,0,0,1.6h1.6a.8.8,0,1,0,0-1.6Z" transform="translate(-136 -248)"/></g><g transform="translate(14.422 24.838)"><path class="a" d="M204.031,248H184.8a.8.8,0,1,0,0,1.6h19.23a.8.8,0,0,0,0-1.6Z" transform="translate(-184 -248)"/></g><g transform="translate(9.615 20.031)"><path class="a" d="M138.4,200h-1.6a.8.8,0,1,0,0,1.6h1.6a.8.8,0,1,0,0-1.6Z" transform="translate(-136 -200)"/></g><g transform="translate(14.422 20.031)"><path class="a" d="M204.031,200H184.8a.8.8,0,1,0,0,1.6h19.23a.8.8,0,0,0,0-1.6Z" transform="translate(-184 -200)"/></g><g transform="translate(9.615 15.223)"><path class="a" d="M138.4,152h-1.6a.8.8,0,1,0,0,1.6h1.6a.8.8,0,1,0,0-1.6Z" transform="translate(-136 -152)"/></g><g transform="translate(14.422 15.223)"><path class="a" d="M204.031,152H184.8a.8.8,0,1,0,0,1.6h19.23a.8.8,0,0,0,0-1.6Z" transform="translate(-184 -152)"/></g><path class="a" d="M80.051,11.968a.758.758,0,0,0-.041-.206c-.009-.026-.015-.05-.026-.075a.8.8,0,0,0-.16-.235L68.607.235a.8.8,0,0,0-.235-.16c-.025-.011-.05-.018-.075-.026A.8.8,0,0,0,68.09.006c-.014,0-.029-.006-.046-.006H45.609a.8.8,0,0,0-.8.8V3.2H40.8a.8.8,0,0,0-.8.8V47.273a.8.8,0,0,0,.8.8H74.453a.8.8,0,0,0,.8-.8V43.267h4.006a.8.8,0,0,0,.8-.8V12.019C80.062,12,80.053,11.986,80.051,11.968ZM68.844,2.735l8.482,8.482H68.844Zm4.807,43.736H41.6V4.807h3.2V42.466a.8.8,0,0,0,.8.8H73.652Zm4.807-4.807H46.41V1.6H67.242V12.019a.8.8,0,0,0,.8.8H78.459Z" transform="translate(-40)"/><g transform="translate(9.615 7.211)"><path class="a" d="M141.609,72H136.8a.8.8,0,0,0-.8.8v4.807a.8.8,0,0,0,.8.8h4.807a.8.8,0,0,0,.8-.8V72.8A.8.8,0,0,0,141.609,72Zm-.8,4.807h-3.2V73.6h3.2Z" transform="translate(-136 -72)"/></g></g><g transform="translate(1093.901 264.044) rotate(90)"><g transform="translate(0)"><path class="b" d="M13.913,0A13.913,13.913,0,1,0,27.827,13.914,13.929,13.929,0,0,0,13.913,0Z"/></g><g transform="translate(0)"><g transform="translate(22.844 22.844)"><g transform="translate(0 0)"><path class="c" d="M10.206,5.991,4.217,0A16.028,16.028,0,0,1,0,4.217l5.99,5.99a2.981,2.981,0,0,0,4.216-4.216Z"/></g></g><g transform="translate(5.963 5.963)"><g transform="translate(0 0)"><path class="c" d="M7.951,0A7.951,7.951,0,1,0,15.9,7.951,7.96,7.96,0,0,0,7.951,0Z"/></g></g><path class="c" d="M13.913,0A13.913,13.913,0,1,0,27.827,13.914,13.929,13.929,0,0,0,13.913,0Zm0,23.852a9.938,9.938,0,1,1,9.938-9.938A9.95,9.95,0,0,1,13.913,23.852Z"/><path class="c" d="M13.913,0A13.913,13.913,0,1,0,27.827,13.914,13.929,13.929,0,0,0,13.913,0Zm0,23.852a9.938,9.938,0,1,1,9.938-9.938A9.95,9.95,0,0,1,13.913,23.852Z"/></g></g></g></svg>