<svg xmlns="http://www.w3.org/2000/svg" width="51.637" height="51.64" viewBox="0 0 51.637 51.64"><defs><style>.a{fill:#151a6a;}.b{fill:#c4a2fc;}</style></defs><g transform="translate(-1 -1)"><g transform="translate(1 1)"><path class="a" d="M1,3.5V38.48a4.169,4.169,0,0,0,4.164,4.164H39.313a4.169,4.169,0,0,0,4.164-4.164V36.814a2.5,2.5,0,0,0-2.5-2.5h-5V3.5a2.5,2.5,0,0,0-2.5-2.5H3.5A2.5,2.5,0,0,0,1,3.5Zm33.316,0V7.663H2.666V3.5A.833.833,0,0,1,3.5,2.666H33.483A.833.833,0,0,1,34.316,3.5ZM8.5,40.979a4.142,4.142,0,0,0,.833-2.5V36.814a.833.833,0,0,1,.833-.833H40.979a.833.833,0,0,1,.833.833V38.48a2.5,2.5,0,0,1-2.5,2.5Zm-5.83-2.5V9.329h31.65V34.316H10.162a2.5,2.5,0,0,0-2.5,2.5V38.48a2.5,2.5,0,1,1-5,0Z" transform="translate(-1 -1)"/><circle class="a" cx="0.5" cy="0.5" r="0.5" transform="translate(4.165 3.475)"/><ellipse class="a" cx="1" cy="0.5" rx="1" ry="0.5" transform="translate(8.165 3.475)"/><ellipse class="a" cx="1" cy="0.5" rx="1" ry="0.5" transform="translate(12.165 3.475)"/><path class="a" d="M35.159,22.329v-7.5A.833.833,0,0,0,34.326,14H21.833a.833.833,0,0,0-.833.833v7.5a.833.833,0,0,0,.833.833H34.326A.833.833,0,0,0,35.159,22.329ZM33.493,21.5H22.666v-5.83H33.493Z" transform="translate(-4.342 -3.172)"/><path class="a" d="M5.833,14h9.995a.833.833,0,0,1,0,1.666H5.833a.833.833,0,0,1,0-1.666Z" transform="translate(-1.668 -3.172)"/><path class="a" d="M5.833,19h9.995a.833.833,0,0,1,0,1.666H5.833a.833.833,0,0,1,0-1.666Z" transform="translate(-1.668 -4.008)"/><path class="a" d="M5.833,24h9.995a.833.833,0,0,1,0,1.666H5.833a.833.833,0,1,1,0-1.666Z" transform="translate(-1.668 -4.843)"/><path class="a" d="M5.833,28h25.82a.833.833,0,1,1,0,1.666H5.833a.833.833,0,1,1,0-1.666Z" transform="translate(-1.668 -5.512)"/><path class="a" d="M5.833,33h25.82a.833.833,0,1,1,0,1.666H5.833a.833.833,0,1,1,0-1.666Z" transform="translate(-1.668 -6.347)"/></g><path class="b" d="M53.454,17.815a5.825,5.825,0,0,0-8.246,0L20.472,42.552a.833.833,0,0,0-.186.29l-.007.011-4.123,11.19a.833.833,0,0,0,1.069,1.07l11.19-4.123.011-.007a.816.816,0,0,0,.29-.187L53.454,26.06a5.83,5.83,0,0,0,0-8.245Zm-1.178,7.067-1.637,1.637-1.178-1.174L25.774,49.028l.846.846L18.35,52.924,21.4,44.648l.847.846L45.928,21.808,44.752,20.63l1.637-1.637a4.164,4.164,0,1,1,5.889,5.889Z" transform="translate(-2.524 -2.524)"/><path class="b" d="M0,0H33.5V1.666H0Z" transform="translate(20.89 44.147) rotate(-45)"/></g></svg>