<svg xmlns="http://www.w3.org/2000/svg" width="25.438" height="24.262" viewBox="0 0 25.438 24.262"><defs><style>.a{fill:#151a6a;}.b{fill:#fff;}.c{fill:#9e267c;}</style></defs><g transform="translate(0 -1.5)"><g transform="translate(0 1.5)"><path class="a" d="M18.871,1.5H1.271A1.271,1.271,0,0,0,0,2.771V20.9a1.271,1.271,0,0,0,1.271,1.271h17.6A1.271,1.271,0,0,0,20.142,20.9V2.771A1.271,1.271,0,0,0,18.871,1.5Zm.424,19.4a.424.424,0,0,1-.424.424H1.271A.424.424,0,0,1,.847,20.9V5.154H19.294Zm0-16.6H.847V2.771a.424.424,0,0,1,.424-.424h17.6a.424.424,0,0,1,.424.424Z" transform="translate(0 -1.5)"/><path class="a" d="M4.424,22.741h15.9a.424.424,0,0,0,.424-.424v-3.8a.424.424,0,0,0-.424-.424H4.424A.424.424,0,0,0,4,18.518v3.8A.424.424,0,0,0,4.424,22.741Zm.424-3.8H19.9v2.952H4.847Z" transform="translate(-2.305 -11.064)"/><circle class="a" cx="0.424" cy="0.424" r="0.424" transform="translate(2.118 1.404)"/><path class="a" d="M5.591,13.956H7.779a.424.424,0,0,0,0-.847H5.591a.424.424,0,1,0,0,.847Z" transform="translate(-2.978 -8.191)"/><path class="a" d="M36.591,13.956h2.189a.424.424,0,0,0,0-.847H36.591a.424.424,0,0,0,0,.847Z" transform="translate(-20.844 -8.191)"/><path class="a" d="M26.257,13.956h2.189a.424.424,0,0,0,0-.847H26.257a.424.424,0,1,0,0,.847Z" transform="translate(-14.888 -8.191)"/><circle class="a" cx="0.424" cy="0.424" r="0.424" transform="translate(9.85 12.375)"/><circle class="a" cx="0.424" cy="0.424" r="0.424" transform="translate(8.219 12.375)"/><circle class="a" cx="0.424" cy="0.424" r="0.424" transform="translate(11.481 12.375)"/><path class="a" d="M4.424,39.417h8.737a.424.424,0,0,0,.424-.424V34.781a.424.424,0,0,0-.424-.424H4.424A.424.424,0,0,0,4,34.781v4.213A.424.424,0,0,0,4.424,39.417Zm.424-4.21h7.89V38.57H4.847Z" transform="translate(-2.305 -20.436)"/></g><circle class="b" cx="6" cy="6" r="6" transform="translate(11 12.948)"/><path class="c" d="M21.724,20.379a.352.352,0,0,1-.352-.352V18.094H17.986a1.057,1.057,0,0,0-1.057,1.057V32.686a1.057,1.057,0,0,0,1.057,1.057H32.46a1.057,1.057,0,0,0,1.057-1.057V20.379Zm9,7.194a.71.71,0,0,1-.729.7h-.154a4.746,4.746,0,0,1-.5,1.207l.119.134a.7.7,0,0,1,0,1l-.724.724a.709.709,0,0,1-1.014-.017l-.109-.109a4.758,4.758,0,0,1-1.2.5l-.006,0,0,.176a.7.7,0,0,1-.7.7H24.668a.709.709,0,0,1-.7-.729v-.155a4.735,4.735,0,0,1-1.207-.5l-.134.119a.7.7,0,0,1-1,0l-.724-.722a.71.71,0,0,1,.017-1.014l.109-.109a4.763,4.763,0,0,1-.5-1.206l-.18-.01a.7.7,0,0,1-.7-.7V26.549a.709.709,0,0,1,.728-.7h.155a4.755,4.755,0,0,1,.5-1.207L20.9,24.5a.7.7,0,0,1,0-1l.724-.723a.731.731,0,0,1,.508-.2.738.738,0,0,1,.505.221l.109.11a4.739,4.739,0,0,1,1.2-.5l.011-.18a.7.7,0,0,1,.7-.7h1.024a.71.71,0,0,1,.7.729v.155a4.761,4.761,0,0,1,1.207.5l.134-.119a.7.7,0,0,1,1,0l.724.724a.71.71,0,0,1-.017,1.014l-.109.109a4.778,4.778,0,0,1,.5,1.206l.18.01a.7.7,0,0,1,.7.7Z" transform="translate(-8.08 -7.982)"/><ellipse class="c" cx="2.381" cy="2.381" rx="2.381" ry="2.381" transform="translate(14.719 16.699)"/><path class="c" d="M31.536,18.094h5.64v1.58h-5.64Z" transform="translate(-17.539 -7.982)"/><path class="c" d="M49.541,19.674h5.1v-.523a1.057,1.057,0,0,0-1.057-1.057H49.541Z" transform="translate(-29.199 -7.982)"/></g></svg>