<svg xmlns="http://www.w3.org/2000/svg" width="27.649" height="27.326" viewBox="0 0 27.649 27.326"><defs><style>.a{fill:#151a6a;}.b{fill:#1acc36;}</style></defs><g transform="translate(0 0)"><g transform="translate(0 0)"><path class="a" d="M19.784,1H7.375a1.33,1.33,0,0,0-1.33,1.33V4.545H3.83A1.33,1.33,0,0,0,2.5,5.875V21.829a1.33,1.33,0,0,0,1.33,1.33H16.238a1.33,1.33,0,0,0,1.33-1.33V19.613h2.216a1.33,1.33,0,0,0,1.33-1.33V2.33A1.33,1.33,0,0,0,19.784,1ZM16.238,22.272H3.83a.443.443,0,0,1-.443-.443V5.875a.443.443,0,0,1,.443-.443H16.238a.443.443,0,0,1,.443.443V21.829A.443.443,0,0,1,16.238,22.272Zm3.989-3.989a.443.443,0,0,1-.443.443H17.568V5.875a1.33,1.33,0,0,0-1.33-1.33H6.932V2.33a.443.443,0,0,1,.443-.443H19.784a.443.443,0,0,1,.443.443Z" transform="translate(-2.5 -1)"/><path class="a" d="M17.693,17H7.943a.443.443,0,1,0,0,.886h9.75a.443.443,0,1,0,0-.886Z" transform="translate(-5.284 -9.909)"/><path class="a" d="M17.693,25H7.943a.443.443,0,1,0,0,.886h9.75a.443.443,0,1,0,0-.886Z" transform="translate(-5.284 -14.364)"/><path class="a" d="M17.693,33H7.943a.443.443,0,1,0,0,.886h9.75a.443.443,0,1,0,0-.886Z" transform="translate(-5.284 -18.819)"/><path class="a" d="M17.693,41H7.943a.443.443,0,0,0,0,.886h9.75a.443.443,0,1,0,0-.886Z" transform="translate(-5.284 -23.273)"/></g><path class="b" d="M1.33,0H0V.886H.886V5.761a.443.443,0,0,0,.886,0V.443A.443.443,0,0,0,1.33,0Z" transform="translate(25.401 10.574) rotate(25)"/><path class="b" d="M3.46,0A3.757,3.757,0,0,0,0,3.989v1.33H6.92V3.989A3.757,3.757,0,0,0,3.46,0Z" transform="translate(21.377 2.83) rotate(25)"/><path class="b" d="M0,0H6.92V11.966H0Z" transform="translate(18.755 8.453) rotate(25)"/><path class="b" d="M2.925,2.86V4.432a.422.422,0,0,0,.4.443.422.422,0,0,0,.4-.443V2.86L6.643,0H0Z" transform="translate(13.324 20.1) rotate(25)"/></g></svg>