<svg xmlns="http://www.w3.org/2000/svg" width="55.406" height="53.155" viewBox="0 0 55.406 53.155"><defs><style>.a{fill:#151a6a;}.b{fill:#1acc36;}.c{fill:#fff;}</style></defs><g transform="translate(-259.03 -460.507)"><g transform="translate(259.03 460.507)"><g transform="translate(0 0)"><path class="a" d="M27.922,22.566h6.789V.918A.917.917,0,0,1,36.277.269l2.6,2.6,2.6-2.6a.917.917,0,0,1,1.3,0l2.6,2.6,2.6-2.6a.917.917,0,0,1,1.3,0l2.6,2.6,2.6-2.6a.917.917,0,0,1,1.3,0l2.6,2.6,2.6-2.6a.917.917,0,0,1,1.3,0l2.6,2.6,2.6-2.6a.917.917,0,0,1,1.565.673V42.2a4.775,4.775,0,0,1-4.77,4.77H31.775A4.775,4.775,0,0,1,27,42.2V23.484A.917.917,0,0,1,27.922,22.566ZM64.247,45.132A2.939,2.939,0,0,0,67.182,42.2V3.133L65.5,4.813a.917.917,0,0,1-1.3,0l-2.6-2.6-2.6,2.6a.917.917,0,0,1-1.3,0l-2.6-2.6-2.6,2.6a.917.917,0,0,1-1.3,0l-2.6-2.6-2.6,2.6a.917.917,0,0,1-1.3,0l-2.6-2.6-2.6,2.6a.917.917,0,0,1-1.3,0L36.545,3.132V23.484c0,.008,0,.017,0,.025V42.2a4.745,4.745,0,0,1-1.014,2.935ZM28.839,42.2a2.935,2.935,0,0,0,5.871,0V24.4H28.839V42.2Z" transform="translate(-27.005 0)"/></g><g transform="translate(14.262 11.743)"><g transform="translate(0)"><path class="a" d="M152.014,128.011h14.533a.917.917,0,0,1,0,1.835H152.014a.917.917,0,0,1,0-1.835Z" transform="translate(-151.097 -128.011)"/></g><g transform="translate(19.36)"><g transform="translate(0)"><path class="a" d="M98.737,128.28a.917.917,0,1,1-.269.649A.924.924,0,0,1,98.737,128.28Z" transform="translate(-98.468 -128.011)"/></g></g><g transform="translate(0 6.054)"><path class="a" d="M152.014,194.009h14.533a.917.917,0,1,1,0,1.835H152.014a.917.917,0,0,1,0-1.835Z" transform="translate(-151.097 -194.009)"/></g><g transform="translate(19.36 6.054)"><g transform="translate(0)"><path class="a" d="M98.737,194.278a.917.917,0,1,1-.269.649A.924.924,0,0,1,98.737,194.278Z" transform="translate(-98.468 -194.009)"/></g></g><g transform="translate(0 12.108)"><path class="a" d="M152.014,260.007h14.533a.917.917,0,1,1,0,1.835H152.014a.917.917,0,1,1,0-1.835Z" transform="translate(-151.097 -260.007)"/></g><g transform="translate(19.36 12.108)"><g transform="translate(0)"><path class="a" d="M98.737,260.276a.917.917,0,1,1-.269.649A.924.924,0,0,1,98.737,260.276Z" transform="translate(-98.468 -260.007)"/></g></g><g transform="translate(0 18.162)"><path class="a" d="M152.014,326h14.533a.917.917,0,1,1,0,1.835H152.014a.917.917,0,1,1,0-1.835Z" transform="translate(-151.097 -326.005)"/></g><g transform="translate(19.36 18.162)"><g transform="translate(0)"><path class="a" d="M98.737,326.274a.917.917,0,1,1-.269.648A.924.924,0,0,1,98.737,326.274Z" transform="translate(-98.468 -326.005)"/></g></g><g transform="translate(0 24.217)"><path class="a" d="M152.014,392h14.533a.917.917,0,1,1,0,1.835H152.014a.917.917,0,1,1,0-1.835Z" transform="translate(-151.097 -392.003)"/></g><g transform="translate(19.36 24.217)"><g transform="translate(0)"><path class="a" d="M98.737,392.272a.917.917,0,1,1-.269.649A.924.924,0,0,1,98.737,392.272Z" transform="translate(-98.468 -392.003)"/></g></g></g></g><g transform="translate(281.296 480.522)"><path class="b" d="M16.57,0A16.57,16.57,0,1,1,0,16.57,16.57,16.57,0,0,1,16.57,0Z" transform="translate(0 0)"/><g transform="translate(5.321 8.725)"><g transform="translate(7.379)"><path class="c" d="M448.109,418.446a1.588,1.588,0,1,1,1.833-1.569,1.018,1.018,0,0,0,2.037,0,3.664,3.664,0,0,0-2.851-3.478v-.69a1.018,1.018,0,0,0-2.037,0v.69a3.664,3.664,0,0,0-2.851,3.478,3.749,3.749,0,0,0,3.87,3.606,1.588,1.588,0,1,1-1.833,1.569,1.018,1.018,0,1,0-2.037,0,3.664,3.664,0,0,0,2.851,3.478v.831a1.018,1.018,0,0,0,2.037,0v-.831a3.663,3.663,0,0,0,2.851-3.478A3.749,3.749,0,0,0,448.109,418.446Z" transform="translate(-444.24 -411.69)"/></g><g transform="translate(18.477 6.756)"><path class="c" d="M556.218,478.033h-1.985a1.018,1.018,0,0,0,0,2.037h1.985a1.018,1.018,0,0,0,0-2.037Z" transform="translate(-553.215 -478.033)"/></g><g transform="translate(0 6.756)"><path class="c" d="M374.777,478.033h-1.985a1.018,1.018,0,0,0,0,2.037h1.985a1.018,1.018,0,0,0,0-2.037Z" transform="translate(-371.774 -478.033)"/></g></g></g></g></svg>