<svg xmlns="http://www.w3.org/2000/svg" width="25" height="25" viewBox="0 0 57.702 57.702"><defs><style>.a{fill:#c4a2fc;}.b{fill:#151a6a;}</style></defs><path class="a" d="M36.659,28.668A1.533,1.533,0,1,0,38.191,30.2a1.533,1.533,0,0,0-1.533-1.533Z" transform="translate(-3.457 -2.821)"/><path class="a" d="M60.661,56.424l-8.13-33.977a.9.9,0,0,0-1.087-.667l-9.4,2.254V24a.9.9,0,0,0-.9-.9H31.226a.9.9,0,0,0-.9.9V58.941a.9.9,0,0,0,.9.9h9.917a.9.9,0,0,0,.9-.9V28.97l7.222,30.181a.9.9,0,0,0,1.082.667l9.642-2.307a.9.9,0,0,0,.672-1.087ZM38.619,55.029H33.751a.9.9,0,1,1,0-1.8h4.869a.9.9,0,1,1,0,1.8Zm0-3.053H33.751a.9.9,0,1,1,0-1.8h4.869a.9.9,0,1,1,0,1.8Zm0-3.053H33.751a.9.9,0,1,1,0-1.8h4.869a.9.9,0,1,1,0,1.8ZM36.185,32.855a3.336,3.336,0,1,1,3.336-3.336,3.336,3.336,0,0,1-3.336,3.336Zm8.687-2.9a3.336,3.336,0,1,1,4.02,2.468,3.336,3.336,0,0,1-4.02-2.468Zm4.307,17.991a.9.9,0,0,1,.667-1.082l4.733-1.133A.9.9,0,1,1,55,47.481l-4.733,1.132a.948.948,0,0,1-.211.024.9.9,0,0,1-.876-.7Zm.71,2.968a.9.9,0,0,1,.667-1.082L55.291,48.7a.9.9,0,1,1,.418,1.754l-4.733,1.132a.886.886,0,0,1-.21.025.9.9,0,0,1-.876-.69Zm6.531,2.5-4.733,1.132a.9.9,0,1,1-.42-1.754L56,51.66a.9.9,0,0,1,.42,1.754Z" transform="translate(-2.984 -2.141)"/><path class="a" d="M51.381,29.461a1.533,1.533,0,1,0-1.133,1.846,1.533,1.533,0,0,0,1.133-1.846Z" transform="translate(-4.759 -2.783)"/><path class="a" d="M21.833,28.668A1.533,1.533,0,1,0,23.365,30.2a1.533,1.533,0,0,0-1.533-1.533Z" transform="translate(-1.998 -2.821)"/><path class="a" d="M26.319,23.25H16.4a.9.9,0,0,0-.9.9V59.088a.9.9,0,0,0,.9.9h9.917a.9.9,0,0,0,.9-.9V24.152A.9.9,0,0,0,26.319,23.25ZM23.795,55.176H18.926a.9.9,0,1,1,0-1.8h4.869a.9.9,0,0,1,0,1.8Zm0-3.053H18.926a.9.9,0,1,1,0-1.8h4.869a.9.9,0,0,1,0,1.8Zm0-3.053H18.926a.9.9,0,1,1,0-1.8h4.869a.9.9,0,0,1,0,1.8ZM21.36,33A3.336,3.336,0,1,1,24.7,29.667,3.336,3.336,0,0,1,21.36,33Z" transform="translate(-1.525 -2.288)"/><g transform="translate(0)"><path class="b" d="M31.4,0H11.5a.908.908,0,0,0-.638.265L.265,10.857A.909.909,0,0,0,0,11.5V41.022a2.7,2.7,0,0,0,2.7,2.7H31.4a2.7,2.7,0,0,0,2.7-2.7V2.7A2.7,2.7,0,0,0,31.4,0Zm-20.8,3.078V9.692a.9.9,0,0,1-.9.9H3.078ZM32.3,41.022a.9.9,0,0,1-.9.9H2.7a.9.9,0,0,1-.9-.9V12.4H9.692a2.7,2.7,0,0,0,2.7-2.7V1.8h19a.9.9,0,0,1,.9.9Z" transform="translate(0)"/><path class="b" d="M29.767,4.875H18.088a.9.9,0,1,0,0,1.8H29.767a.9.9,0,0,0,0-1.8Z" transform="translate(-1.691 -0.48)"/><path class="b" d="M29.767,11.75H18.088a.9.9,0,1,0,0,1.8H29.767a.9.9,0,0,0,0-1.8Z" transform="translate(-1.691 -1.156)"/><path class="b" d="M28.635,18.625H6.588a.9.9,0,1,0,0,1.8H28.635a.9.9,0,0,0,0-1.8Z" transform="translate(-0.56 -1.833)"/><path class="b" d="M28.635,25.5H6.588a.9.9,0,1,0,0,1.8H28.635a.9.9,0,0,0,0-1.8Z" transform="translate(-0.56 -2.51)"/><path class="b" d="M28.635,32.375H6.588a.9.9,0,1,0,0,1.8H28.635a.9.9,0,0,0,0-1.8Z" transform="translate(-0.56 -3.186)"/><path class="b" d="M28.635,39.25H6.588a.9.9,0,1,0,0,1.8H28.635a.9.9,0,0,0,0-1.8Z" transform="translate(-0.56 -3.863)"/></g></svg>