<svg xmlns="http://www.w3.org/2000/svg" xmlns:xlink="http://www.w3.org/1999/xlink" width="34.99" height="30.484" viewBox="0 0 34.99 30.484">
  <defs>
    <clipPath id="clip-path">
      <rect id="Rectángulo_1338" data-name="Rectángulo 1338" width="34.99" height="30.484" fill="none"/>
    </clipPath>
  </defs>
  <g id="Grupo_3577" data-name="Grupo 3577" transform="translate(0 0)">
    <g id="Grupo_3576" data-name="Grupo 3576" transform="translate(0 0)" clip-path="url(#clip-path)">
      <path id="Trazado_8608" data-name="Trazado 8608" d="M11.744,0h.03Q12.9,1.954,14.035,3.907c.295.508.593,1.013.89,1.519l.916,1.6c.2.342.388.686.585,1.028s.4.678.6,1.021a9.2,9.2,0,0,1,.455.817c-.093.149-.19.294-.277.446-.353.614-.7,1.231-1.055,1.844-.3.517-.616,1.023-.906,1.545-.351.632-.72,1.253-1.082,1.879-.294.508-.587,1.017-.887,1.522-.376.634-.729,1.283-1.093,1.924q-.437.769-.878,1.535l-.09.156a.55.55,0,0,0-.045.057q-2.032,3.5-4.064,7c-.334.575-.669,1.148-.995,1.728-.179.318-.375.627-.53.959h-.03a.856.856,0,0,0-.035-.08q-.92-1.623-1.84-3.247c-.564-1-1.122-2-1.686-3.005Q1.013,22.426.036,20.7a.212.212,0,0,1,0-.24q3.013-5.249,6.022-10.5,2.814-4.91,5.627-9.82c.025-.044.077-.081.056-.144" transform="translate(0)" fill="#00a45f"/>
      <path id="Trazado_8609" data-name="Trazado 8609" d="M69.8,149.27l.031-.009c.014.067-.037.111-.065.16q-2.7,4.8-5.406,9.59c-.026.047-.049.1-.073.145H40.417c.155-.332.351-.641.53-.959.326-.579.661-1.153.995-1.728q2.031-3.5,4.064-7a.49.49,0,0,1,.045-.057c.188.008.272.132.343.287.061.134.15.256.224.384l.9,1.553.953,1.644c.3.514.591,1.03.894,1.541.337.567.649,1.149.967,1.728a.258.258,0,0,1,0,.268c-.116.208-.231.416-.341.626-.044.083-.121.17,0,.257.037.026.008.074-.011.109-.073.13-.149.257-.219.388-.117.219-.233.438-.343.659-.037.073-.041.146.081.1a.6.6,0,0,1,.206-.015H63.951c.04,0,.08,0,.119,0a.154.154,0,0,0,.156-.091c.223-.4.447-.794.67-1.191.423-.756.844-1.513,1.269-2.268.6-1.057,1.195-2.111,1.79-3.168q.7-1.242,1.394-2.488a.792.792,0,0,1,.419-.439c.012,0,.02-.021.029-.033" transform="translate(-34.842 -128.672)" fill="#007ce9"/>
      <path id="Trazado_8610" data-name="Trazado 8610" d="M105,149.257c-.01.011-.017.029-.029.033a.792.792,0,0,0-.419.439q-.7,1.245-1.394,2.488c-.6,1.057-1.2,2.111-1.79,3.168-.425.755-.846,1.512-1.269,2.268-.223.4-.447.794-.67,1.191a.154.154,0,0,1-.156.091c-.04,0-.08,0-.119,0H84.915a.6.6,0,0,0-.207.015c-.122.043-.117-.03-.081-.1.111-.222.227-.441.343-.659.07-.131.146-.258.218-.388.019-.035.048-.083.011-.109-.126-.087-.049-.174,0-.257.111-.21.225-.419.341-.626a.258.258,0,0,0,0-.268c-.318-.578-.629-1.16-.967-1.728-.3-.511-.6-1.027-.894-1.541l-.953-1.644-.9-1.553c-.075-.128-.163-.25-.224-.384-.071-.156-.155-.279-.343-.287l.09-.156c.059,0,.119.006.178.006H93.587c.054,0,.109,0,.163,0s.129.005.193.005h10.942c.04,0,.079,0,.119.005" transform="translate(-70.048 -128.659)" fill="#0088f7"/>
      <path id="Trazado_8611" data-name="Trazado 8611" d="M108.5,20.417q-2.826-4.933-5.655-9.864Q99.876,5.383,96.913.212c-.038-.066-.1-.126-.091-.213H85.35q1.131,1.954,2.262,3.907c.295.508.593,1.013.89,1.519l.916,1.6c.2.342.388.686.585,1.028s.4.678.6,1.021a9.236,9.236,0,0,1,.455.817c.069.017.078.086.106.134q2.31,3.982,4.617,7.966l1.438,2.484c.017.03.04.057.06.085h0a.068.068,0,0,0,0,.027c.064,0,.129.005.193.005h10.942c.04,0,.079,0,.119.005l.031-.009c.016-.072-.038-.119-.068-.171m-19.917-15a.205.205,0,0,1,.065.012.205.205,0,0,0-.065-.012" transform="translate(-73.577 0.001)" fill="#fecf33"/>
    </g>
  </g>
</svg>
