<svg id="grid" xmlns="http://www.w3.org/2000/svg" width="24" height="24" viewBox="0 0 24 24">
  <g id="Grupo_3885" data-name="Grupo 3885">
    <g id="Grupo_3884" data-name="Grupo 3884">
      <path id="Trazado_8963" data-name="Trazado 8963" d="M10.154,0H.923A.923.923,0,0,0,0,.923v9.231a.923.923,0,0,0,.923.923h9.231a.923.923,0,0,0,.923-.923V.923A.923.923,0,0,0,10.154,0Z" fill="#c8c8c8"/>
      <path id="Trazado_8964" data-name="Trazado 8964" d="M156.439,0h-9.231a.923.923,0,0,0-.923.923v9.231a.923.923,0,0,0,.923.923h9.231a.923.923,0,0,0,.923-.923V.923A.923.923,0,0,0,156.439,0Z" transform="translate(-133.362)" fill="#c8c8c8"/>
      <path id="Trazado_8965" data-name="Trazado 8965" d="M10.154,146.286H.923a.923.923,0,0,0-.923.923v9.231a.923.923,0,0,0,.923.923h9.231a.923.923,0,0,0,.923-.923v-9.231A.923.923,0,0,0,10.154,146.286Z" transform="translate(0 -133.363)" fill="#c8c8c8"/>
      <path id="Trazado_8966" data-name="Trazado 8966" d="M156.439,146.286h-9.231a.923.923,0,0,0-.923.923v9.231a.923.923,0,0,0,.923.923h9.231a.923.923,0,0,0,.923-.923v-9.231A.923.923,0,0,0,156.439,146.286Z" transform="translate(-133.362 -133.363)" fill="#c8c8c8"/>
    </g>
  </g>
</svg>
