<svg id="list" xmlns="http://www.w3.org/2000/svg" width="24" height="24" viewBox="0 0 24 24">
  <path id="Trazado_8967" data-name="Trazado 8967" d="M5,0H1A1,1,0,0,0,0,1V5A1,1,0,0,0,1,6H5A1,1,0,0,0,6,5V1A1,1,0,0,0,5,0Z" fill="#c8c8c8"/>
  <path id="Trazado_8968" data-name="Trazado 8968" d="M23,0H9A1,1,0,0,0,8,1V5A1,1,0,0,0,9,6H23a1,1,0,0,0,1-1V1A1,1,0,0,0,23,0Z" fill="#c8c8c8"/>
  <path id="Trazado_8969" data-name="Trazado 8969" d="M5,9H1a1,1,0,0,0-1,1v4a1,1,0,0,0,1,1H5a1,1,0,0,0,1-1V10A1,1,0,0,0,5,9Z" fill="#c8c8c8"/>
  <path id="Trazado_8970" data-name="Trazado 8970" d="M23,9H9a1,1,0,0,0-1,1v4a1,1,0,0,0,1,1H23a1,1,0,0,0,1-1V10A1,1,0,0,0,23,9Z" fill="#c8c8c8"/>
  <path id="Trazado_8971" data-name="Trazado 8971" d="M5,18H1a1,1,0,0,0-1,1v4a1,1,0,0,0,1,1H5a1,1,0,0,0,1-1V19A1,1,0,0,0,5,18Z" fill="#c8c8c8"/>
  <path id="Trazado_8972" data-name="Trazado 8972" d="M23,18H9a1,1,0,0,0-1,1v4a1,1,0,0,0,1,1H23a1,1,0,0,0,1-1V19A1,1,0,0,0,23,18Z" fill="#c8c8c8"/>
</svg>
