<svg xmlns="http://www.w3.org/2000/svg" width="20.163" height="19.387" viewBox="0 0 20.163 19.387">
  <g id="legal-paper" transform="translate(0 -7.627)">
    <g id="Grupo_3836" data-name="Grupo 3836" transform="translate(0 7.627)">
      <g id="Grupo_3835" data-name="Grupo 3835">
        <g id="Grupo_3834" data-name="Grupo 3834">
          <path id="Trazado_8933" data-name="Trazado 8933" d="M287.974,61.631h0v0Z" transform="translate(-273.325 -58.88)" fill="#3f3f3f"/>
          <path id="Trazado_8934" data-name="Trazado 8934" d="M17.412,7.627H5.2a2.755,2.755,0,0,0-2.751,2.751V21.529a2.751,2.751,0,0,0,.309,5.486h9.946a2.755,2.755,0,0,0,2.751-2.751V13.129h1.953a2.751,2.751,0,1,0,0-5.5ZM10.758,26.2h-8a1.939,1.939,0,0,1,0-3.878h8A2.747,2.747,0,0,0,10.758,26.2Zm3.891-15.823V24.263a1.937,1.937,0,1,1-1.937-1.937.407.407,0,1,0,0-.814H3.283V10.378A1.941,1.941,0,0,1,5.2,8.441H15.447A2.743,2.743,0,0,0,14.649,10.378Zm2.356,1.937H15.463v-.667h1.542Zm.814-.041V11.241a.407.407,0,0,0-.407-.407H15.463v-.456a1.937,1.937,0,1,1,2.356,1.9Z" transform="translate(0 -7.627)" fill="#3f3f3f"/>
        </g>
      </g>
    </g>
    <g id="Grupo_3838" data-name="Grupo 3838" transform="translate(5.513 11.664)">
      <g id="Grupo_3837" data-name="Grupo 3837" transform="translate(0 0)">
        <path id="Trazado_8935" data-name="Trazado 8935" d="M114.735,86.987h-5.954a.407.407,0,1,0,0,.814h5.954a.407.407,0,1,0,0-.814Z" transform="translate(-108.374 -86.987)" fill="#3f3f3f"/>
      </g>
    </g>
    <g id="Grupo_3840" data-name="Grupo 3840" transform="translate(5.513 14.57)">
      <g id="Grupo_3839" data-name="Grupo 3839">
        <path id="Trazado_8936" data-name="Trazado 8936" d="M114.735,144.107h-5.954a.407.407,0,0,0,0,.814h5.954a.407.407,0,0,0,0-.814Z" transform="translate(-108.374 -144.107)" fill="#3f3f3f"/>
      </g>
    </g>
    <g id="Grupo_3842" data-name="Grupo 3842" transform="translate(5.513 17.475)">
      <g id="Grupo_3841" data-name="Grupo 3841">
        <path id="Trazado_8937" data-name="Trazado 8937" d="M114.735,201.227h-5.954a.407.407,0,0,0,0,.814h5.954a.407.407,0,0,0,0-.814Z" transform="translate(-108.374 -201.227)" fill="#3f3f3f"/>
      </g>
    </g>
  </g>
</svg>
