<svg xmlns="http://www.w3.org/2000/svg" width="15.801" height="21.068" viewBox="0 0 15.801 21.068">
  <g id="padlock_1_" data-name="padlock (1)" transform="translate(-3)">
    <path id="Trazado_8938" data-name="Trazado 8938" d="M16.826,22.168H4.975A1.978,1.978,0,0,1,3,20.193V10.975A1.978,1.978,0,0,1,4.975,9H16.826A1.978,1.978,0,0,1,18.8,10.975v9.217A1.978,1.978,0,0,1,16.826,22.168ZM4.975,10.317a.659.659,0,0,0-.658.658v9.217a.659.659,0,0,0,.658.658H16.826a.659.659,0,0,0,.658-.658V10.975a.659.659,0,0,0-.658-.658Z" transform="translate(0 -1.099)" fill="#3f3f3f"/>
    <path id="Trazado_8939" data-name="Trazado 8939" d="M15.876,9.217a.659.659,0,0,1-.658-.658V5.267a3.95,3.95,0,1,0-7.9,0V8.559A.658.658,0,1,1,6,8.559V5.267a5.267,5.267,0,0,1,10.534,0V8.559A.659.659,0,0,1,15.876,9.217Z" transform="translate(-0.366)" fill="#3f3f3f"/>
    <path id="Trazado_8940" data-name="Trazado 8940" d="M11.756,16.511a1.756,1.756,0,1,1,1.756-1.756A1.757,1.757,0,0,1,11.756,16.511Zm0-2.195a.439.439,0,1,0,.439.439A.44.44,0,0,0,11.756,14.317Z" transform="translate(-0.855 -1.588)" fill="#3f3f3f"/>
    <path id="Trazado_8941" data-name="Trazado 8941" d="M11.908,19.481a.659.659,0,0,1-.658-.658V16.408a.658.658,0,0,1,1.317,0v2.414A.659.659,0,0,1,11.908,19.481Z" transform="translate(-1.008 -1.924)" fill="#3f3f3f"/>
  </g>
</svg>
