<svg id="date" xmlns="http://www.w3.org/2000/svg" width="18.373" height="18.373" viewBox="0 0 18.373 18.373">
  <g id="Grupo_3589" data-name="Grupo 3589">
    <g id="Grupo_3588" data-name="Grupo 3588">
      <path id="Trazado_8616" data-name="Trazado 8616" d="M16.4,1.969H14.436V.656a.656.656,0,1,0-1.312,0V1.969H5.249V.656a.656.656,0,1,0-1.312,0V1.969H1.969A1.969,1.969,0,0,0,0,3.937V16.4a1.969,1.969,0,0,0,1.969,1.969H16.4A1.969,1.969,0,0,0,18.373,16.4V3.937A1.969,1.969,0,0,0,16.4,1.969ZM17.06,16.4a.656.656,0,0,1-.656.656H1.969a.656.656,0,0,1-.656-.656V7.874H17.06Zm0-9.843H1.312V3.937a.656.656,0,0,1,.656-.656H3.937V4.593a.656.656,0,1,0,1.312,0V3.281h7.874V4.593a.656.656,0,1,0,1.312,0V3.281H16.4a.656.656,0,0,1,.656.656V6.562Z" fill="#3f9f82"/>
    </g>
  </g>
  <g id="Grupo_3591" data-name="Grupo 3591" transform="translate(4.601 9.194)">
    <g id="Grupo_3590" data-name="Grupo 3590">
      <path id="Trazado_8617" data-name="Trazado 8617" d="M128.646,239.327a.656.656,0,0,0-.912,0l-4.785,4.785-2.161-2.161a.656.656,0,0,0-.928.928l2.625,2.625a.656.656,0,0,0,.928,0l5.249-5.249A.656.656,0,0,0,128.646,239.327Z" transform="translate(-119.676 -239.143)" fill="#3f9f82"/>
    </g>
  </g>
</svg>
