<?xml version="1.0" encoding="UTF-8"?>
<svg xmlns="http://www.w3.org/2000/svg" xmlns:xlink="http://www.w3.org/1999/xlink" width="25pt" height="25pt" viewBox="0 0 25 25" version="1.1">
<g id="surface1">
<path style=" stroke:none;fill-rule:nonzero;fill:rgb(8.235294%,10.196078%,41.568627%);fill-opacity:1;" d="M 0 1.203125 L 0 18.019531 C 0 19.125 0.898438 20.019531 2 20.019531 L 18.417969 20.019531 C 19.523438 20.019531 20.421875 19.125 20.421875 18.019531 L 20.421875 17.21875 C 20.421875 16.554688 19.882812 16.015625 19.21875 16.015625 L 16.816406 16.015625 L 16.816406 1.203125 C 16.816406 0.539062 16.277344 0 15.613281 0 L 1.203125 0 C 0.539062 0 0 0.539062 0 1.203125 Z M 16.015625 1.203125 L 16.015625 3.203125 L 0.800781 3.203125 L 0.800781 1.203125 C 0.800781 1.09375 0.84375 0.992188 0.917969 0.917969 C 0.992188 0.84375 1.09375 0.800781 1.203125 0.800781 L 15.617188 0.800781 C 15.722656 0.800781 15.824219 0.84375 15.898438 0.917969 C 15.976562 0.992188 16.015625 1.09375 16.015625 1.203125 Z M 3.605469 19.21875 C 3.867188 18.875 4.007812 18.453125 4.007812 18.019531 L 4.007812 17.21875 C 4.007812 16.996094 4.1875 16.816406 4.40625 16.816406 L 19.21875 16.816406 C 19.441406 16.816406 19.621094 16.996094 19.621094 17.21875 L 19.621094 18.019531 C 19.621094 18.683594 19.082031 19.222656 18.417969 19.222656 Z M 0.804688 18.019531 L 0.804688 4.003906 L 16.019531 4.003906 L 16.019531 16.015625 L 4.40625 16.015625 C 3.742188 16.015625 3.203125 16.554688 3.203125 17.21875 L 3.203125 18.019531 C 3.203125 18.683594 2.664062 19.222656 2 19.222656 C 1.335938 19.222656 0.800781 18.683594 0.800781 18.019531 Z M 0.804688 18.019531 "/>
<path style=" stroke:none;fill-rule:nonzero;fill:rgb(8.235294%,10.196078%,41.568627%);fill-opacity:1;" d="M 2.484375 1.910156 C 2.484375 2.042969 2.375 2.152344 2.242188 2.152344 C 2.109375 2.152344 2.003906 2.042969 2.003906 1.910156 C 2.003906 1.777344 2.109375 1.671875 2.242188 1.671875 C 2.375 1.671875 2.484375 1.777344 2.484375 1.910156 Z M 2.484375 1.910156 "/>
<path style=" stroke:none;fill-rule:nonzero;fill:rgb(8.235294%,10.196078%,41.568627%);fill-opacity:1;" d="M 4.886719 1.910156 C 4.886719 1.777344 4.671875 1.671875 4.40625 1.671875 C 4.140625 1.671875 3.925781 1.777344 3.925781 1.910156 C 3.925781 2.042969 4.140625 2.152344 4.40625 2.152344 C 4.671875 2.152344 4.886719 2.042969 4.886719 1.910156 Z M 4.886719 1.910156 "/>
<path style=" stroke:none;fill-rule:nonzero;fill:rgb(8.235294%,10.196078%,41.568627%);fill-opacity:1;" d="M 6.808594 1.910156 C 6.808594 1.777344 6.59375 1.671875 6.328125 1.671875 C 6.0625 1.671875 5.847656 1.777344 5.847656 1.910156 C 5.847656 2.042969 6.0625 2.152344 6.328125 2.152344 C 6.59375 2.152344 6.808594 2.042969 6.808594 1.910156 Z M 6.808594 1.910156 "/>
<path style=" stroke:none;fill-rule:nonzero;fill:rgb(8.235294%,10.196078%,41.568627%);fill-opacity:1;" d="M 14.816406 9.210938 L 14.816406 5.605469 C 14.816406 5.382812 14.636719 5.207031 14.414062 5.207031 L 8.410156 5.207031 C 8.1875 5.207031 8.007812 5.386719 8.007812 5.605469 L 8.007812 9.210938 C 8.007812 9.433594 8.1875 9.613281 8.410156 9.613281 L 14.414062 9.613281 C 14.523438 9.613281 14.625 9.570312 14.699219 9.496094 C 14.773438 9.417969 14.816406 9.316406 14.816406 9.210938 Z M 14.015625 8.8125 L 8.808594 8.8125 L 8.808594 6.007812 L 14.015625 6.007812 Z M 14.015625 8.8125 "/>
<path style=" stroke:none;fill-rule:nonzero;fill:rgb(8.235294%,10.196078%,41.568627%);fill-opacity:1;" d="M 2.003906 5.207031 L 6.808594 5.207031 C 7.027344 5.207031 7.207031 5.386719 7.207031 5.605469 C 7.207031 5.828125 7.027344 6.007812 6.808594 6.007812 L 2.003906 6.007812 C 1.78125 6.007812 1.601562 5.828125 1.601562 5.605469 C 1.601562 5.386719 1.78125 5.207031 2.003906 5.207031 Z M 2.003906 5.207031 "/>
<path style=" stroke:none;fill-rule:nonzero;fill:rgb(8.235294%,10.196078%,41.568627%);fill-opacity:1;" d="M 2.003906 7.207031 L 6.808594 7.207031 C 7.027344 7.207031 7.207031 7.386719 7.207031 7.609375 C 7.207031 7.828125 7.027344 8.007812 6.808594 8.007812 L 2.003906 8.007812 C 1.78125 8.007812 1.601562 7.828125 1.601562 7.609375 C 1.601562 7.386719 1.78125 7.207031 2.003906 7.207031 Z M 2.003906 7.207031 "/>
<path style=" stroke:none;fill-rule:nonzero;fill:rgb(8.235294%,10.196078%,41.568627%);fill-opacity:1;" d="M 2.003906 9.210938 L 6.808594 9.210938 C 7.027344 9.210938 7.207031 9.390625 7.207031 9.609375 C 7.207031 9.832031 7.027344 10.011719 6.808594 10.011719 L 2.003906 10.011719 C 1.78125 10.011719 1.601562 9.832031 1.601562 9.609375 C 1.601562 9.390625 1.78125 9.210938 2.003906 9.210938 Z M 2.003906 9.210938 "/>
<path style=" stroke:none;fill-rule:nonzero;fill:rgb(8.235294%,10.196078%,41.568627%);fill-opacity:1;" d="M 2.003906 10.8125 L 14.414062 10.8125 C 14.636719 10.8125 14.816406 10.992188 14.816406 11.210938 C 14.816406 11.433594 14.636719 11.613281 14.414062 11.613281 L 2.003906 11.613281 C 1.78125 11.613281 1.601562 11.433594 1.601562 11.210938 C 1.601562 10.992188 1.78125 10.8125 2.003906 10.8125 Z M 2.003906 10.8125 "/>
<path style=" stroke:none;fill-rule:nonzero;fill:rgb(8.235294%,10.196078%,41.568627%);fill-opacity:1;" d="M 2.003906 12.8125 L 14.414062 12.8125 C 14.636719 12.8125 14.816406 12.992188 14.816406 13.214844 C 14.816406 13.4375 14.636719 13.613281 14.414062 13.613281 L 2.003906 13.613281 C 1.78125 13.613281 1.601562 13.4375 1.601562 13.214844 C 1.601562 12.992188 1.78125 12.8125 2.003906 12.8125 Z M 2.003906 12.8125 "/>
<path style=" stroke:none;fill-rule:nonzero;fill:rgb(76.862745%,63.529412%,98.823529%);fill-opacity:1;" d="M 24.003906 6.871094 C 23.480469 6.34375 22.765625 6.046875 22.023438 6.046875 C 21.277344 6.046875 20.566406 6.34375 20.039062 6.871094 L 8.148438 18.761719 C 8.109375 18.804688 8.078125 18.851562 8.058594 18.902344 L 8.054688 18.90625 L 6.074219 24.289062 C 6.019531 24.433594 6.054688 24.597656 6.164062 24.710938 C 6.277344 24.820312 6.441406 24.855469 6.585938 24.800781 L 11.96875 22.820312 L 11.972656 22.816406 C 12.023438 22.796875 12.070312 22.765625 12.113281 22.726562 L 24.003906 10.835938 C 25.097656 9.738281 25.097656 7.964844 24.003906 6.871094 Z M 23.4375 10.269531 L 22.652344 11.054688 L 22.085938 10.492188 L 10.695312 21.875 L 11.105469 22.285156 L 7.128906 23.75 L 8.59375 19.769531 L 9 20.179688 L 20.386719 8.789062 L 19.820312 8.222656 L 20.609375 7.4375 C 21.390625 6.65625 22.65625 6.65625 23.4375 7.4375 C 24.222656 8.21875 24.222656 9.488281 23.4375 10.269531 Z M 23.4375 10.269531 "/>
<path style=" stroke:none;fill-rule:nonzero;fill:rgb(76.862745%,63.529412%,98.823529%);fill-opacity:1;" d="M 9.5625 20.742188 L 20.949219 9.355469 L 21.515625 9.921875 L 10.128906 21.308594 Z M 9.5625 20.742188 "/>
</g>
</svg>
