<svg xmlns="http://www.w3.org/2000/svg" width="26.317" height="27.885" viewBox="0 0 26.317 27.885"><defs><style>.a{fill:#151a6a;}.b{fill:#e74c3c;}.c{fill:#fff;}</style></defs><g transform="translate(-5 -1)"><path class="a" d="M23.6,22.78H22.242V2.361A1.361,1.361,0,0,0,20.881,1H8.176A1.361,1.361,0,0,0,6.815,2.361V22.78H5.454a.454.454,0,1,0,0,.907H23.6a.454.454,0,0,0,0-.907ZM7.722,2.361a.454.454,0,0,1,.454-.454h12.7a.454.454,0,0,1,.454.454V22.78H16.8V19.6a.454.454,0,0,0-.454-.454h-3.63a.454.454,0,0,0-.454.454V22.78H7.722ZM15.89,22.78H13.167V20.057H15.89Zm-3.63-5.445V14.612a.454.454,0,0,0-.454-.454H9.991a.454.454,0,0,0-.454.454v2.722a.454.454,0,0,0,.454.454h1.815A.454.454,0,0,0,12.26,17.335Zm-.907-.454h-.907V15.066h.907Zm2.269.907h1.815a.454.454,0,0,0,.454-.454V14.612a.454.454,0,0,0-.454-.454H13.621a.454.454,0,0,0-.454.454v2.722A.454.454,0,0,0,13.621,17.789Zm.454-2.722h.907v1.815h-.907Zm3.176,2.722h1.815a.454.454,0,0,0,.454-.454V14.612a.454.454,0,0,0-.454-.454H17.251a.454.454,0,0,0-.454.454v2.722A.454.454,0,0,0,17.251,17.789Zm.454-2.722h.907v1.815H17.7ZM9.991,12.8h1.815a.454.454,0,0,0,.454-.454V9.621a.454.454,0,0,0-.454-.454H9.991a.454.454,0,0,0-.454.454v2.722A.454.454,0,0,0,9.991,12.8Zm.454-2.722h.907V11.89h-.907ZM13.621,12.8h1.815a.454.454,0,0,0,.454-.454V9.621a.454.454,0,0,0-.454-.454H13.621a.454.454,0,0,0-.454.454v2.722A.454.454,0,0,0,13.621,12.8Zm.454-2.722h.907V11.89h-.907ZM17.251,12.8h1.815a.454.454,0,0,0,.454-.454V9.621a.454.454,0,0,0-.454-.454H17.251a.454.454,0,0,0-.454.454v2.722A.454.454,0,0,0,17.251,12.8Zm.454-2.722h.907V11.89H17.7ZM9.991,7.806h1.815a.454.454,0,0,0,.454-.454V4.63a.454.454,0,0,0-.454-.454H9.991a.454.454,0,0,0-.454.454V7.352A.454.454,0,0,0,9.991,7.806Zm.454-2.722h.907V6.9h-.907Zm3.176,2.722h1.815a.454.454,0,0,0,.454-.454V4.63a.454.454,0,0,0-.454-.454H13.621a.454.454,0,0,0-.454.454V7.352A.454.454,0,0,0,13.621,7.806Zm.454-2.722h.907V6.9h-.907Zm3.176,2.722h1.815a.454.454,0,0,0,.454-.454V4.63a.454.454,0,0,0-.454-.454H17.251a.454.454,0,0,0-.454.454V7.352A.454.454,0,0,0,17.251,7.806ZM17.7,5.084h.907V6.9H17.7Z"/><path class="b" d="M33.3,37.489,27.53,31.713a8.62,8.62,0,1,1,12.189,0l-5.773,5.775a.454.454,0,0,1-.644,0Zm.322-13.458a1.588,1.588,0,1,0,1.588,1.588A1.588,1.588,0,0,0,33.624,24.031Z" transform="translate(-10.928 -8.737)"/><circle class="c" cx="2.81" cy="2.81" r="2.81" transform="translate(19.812 14.702)"/></g></svg>