<svg xmlns="http://www.w3.org/2000/svg" width="54.935" height="45.347" viewBox="0 0 54.935 45.347"><defs><style>.a{fill:#151a6a;}.b{fill:#fff;}.c{fill:#9e267c;}</style></defs><g transform="translate(-438.739 -534.565)"><g transform="translate(438.739 534.565)"><path class="a" d="M-564.083,73.614h-35.708a5.251,5.251,0,0,1-5.244-5.244V38.1a5.251,5.251,0,0,1,5.244-5.244h35.708a5.251,5.251,0,0,1,5.244,5.244V68.37A5.251,5.251,0,0,1-564.083,73.614Zm-35.708-39.2a3.687,3.687,0,0,0-3.683,3.683V68.37a3.687,3.687,0,0,0,3.683,3.683h35.708A3.687,3.687,0,0,0-560.4,68.37V38.1a3.687,3.687,0,0,0-3.683-3.683Z" transform="translate(605.035 -32.851)"/><path class="a" d="M-330.667,307.559h-12.274a.781.781,0,0,1-.779-.784.781.781,0,0,1,.779-.779h12.274a.781.781,0,0,1,.779.783A.781.781,0,0,1-330.667,307.559Z" transform="translate(369.814 -278.722)"/><path class="a" d="M-330.667,364.115h-12.274a.781.781,0,0,1-.779-.783.781.781,0,0,1,.779-.779h12.274a.781.781,0,0,1,.779.784A.781.781,0,0,1-330.667,364.115Z" transform="translate(369.814 -329.63)"/><path class="a" d="M-330.709,194.445h-12.274a.781.781,0,0,1-.784-.779.781.781,0,0,1,.779-.783h12.278a.781.781,0,0,1,.779.783A.781.781,0,0,1-330.709,194.445Z" transform="translate(369.855 -176.903)"/><path class="a" d="M-330.667,251h-12.274a.781.781,0,0,1-.779-.784.781.781,0,0,1,.779-.779h12.274a.781.781,0,0,1,.779.783A.781.781,0,0,1-330.667,251Z" transform="translate(369.814 -227.812)"/><path class="a" d="M-559.62,123.509h-44.633a.781.781,0,0,1-.781-.781.781.781,0,0,1,.781-.781h44.633a.781.781,0,0,1,.781.781A.781.781,0,0,1-559.62,123.509Z" transform="translate(605.035 -113.05)"/><path class="a" d="M-514.186,65.889a2.431,2.431,0,0,1-2.43-2.431,2.431,2.431,0,0,1,2.43-2.43,2.43,2.43,0,0,1,2.431,2.43h0A2.434,2.434,0,0,1-514.186,65.889Zm0-3.3a.868.868,0,0,0-.868.868.868.868,0,0,0,.868.868.868.868,0,0,0,.868-.868h0A.869.869,0,0,0-514.186,62.59Z" transform="translate(525.445 -58.214)"/><path class="a" d="M-570.537,65.889a2.431,2.431,0,0,1-2.431-2.431,2.43,2.43,0,0,1,2.431-2.43,2.431,2.431,0,0,1,2.43,2.43h0A2.434,2.434,0,0,1-570.537,65.889Zm0-3.3a.868.868,0,0,0-.867.869.868.868,0,0,0,.869.867.868.868,0,0,0,.867-.868A.869.869,0,0,0-570.537,62.59Z" transform="translate(576.17 -58.214)"/><path class="a" d="M-457.822,65.889a2.43,2.43,0,0,1-2.43-2.431,2.43,2.43,0,0,1,2.43-2.43,2.431,2.431,0,0,1,2.431,2.43h0A2.433,2.433,0,0,1-457.822,65.889Zm0-3.3a.868.868,0,0,0-.867.869.868.868,0,0,0,.869.867.868.868,0,0,0,.867-.868A.869.869,0,0,0-457.822,62.59Z" transform="translate(474.71 -58.214)"/><path class="a" d="M-529.743,211.387h-14.171a.781.781,0,0,1-.781-.781V193.664a.781.781,0,0,1,.781-.781h14.171a.781.781,0,0,1,.781.781v16.942a.781.781,0,0,1-.781.781Zm-13.39-1.566h12.609V194.445h-12.609Z" transform="translate(550.72 -176.903)"/></g><g transform="translate(463.655 549.893)"><g transform="translate(0 0)"><path class="b" d="M-325.5,203.84v-4.961l-4.069-.8a11.3,11.3,0,0,0-.885-2.131l2.271-3.406-3.507-3.507-3.406,2.271a11.306,11.306,0,0,0-2.131-.886l-.8-4.069h-4.961l-.8,4.069a11.3,11.3,0,0,0-2.131.886l-3.406-2.271-3.507,3.507,2.271,3.406a11.3,11.3,0,0,0-.886,2.131l-4.069.8v4.961l4.069.8a11.309,11.309,0,0,0,.886,2.131l-2.271,3.406,3.507,3.507,3.406-2.271a11.3,11.3,0,0,0,2.131.885l.8,4.069h4.961l.8-4.069a11.3,11.3,0,0,0,2.131-.886l3.406,2.271,3.507-3.507-2.271-3.406a11.3,11.3,0,0,0,.886-2.131Z" transform="translate(355.515 -186.35)"/></g><g transform="translate(10.612 10.612)"><path class="c" d="M-244.844,292.624a4.4,4.4,0,0,0-4.4,4.4,4.4,4.4,0,0,0,4.4,4.4,4.4,4.4,0,0,0,4.4-4.4A4.4,4.4,0,0,0-244.844,292.624Z" transform="translate(249.241 -292.624)"/></g><g transform="translate(0 0)"><path class="c" d="M-325.5,203.84v-4.961l-4.069-.8a11.3,11.3,0,0,0-.885-2.131l2.271-3.406-3.507-3.507-3.406,2.271a11.306,11.306,0,0,0-2.131-.886l-.8-4.069h-4.961l-.8,4.069a11.3,11.3,0,0,0-2.131.886l-3.406-2.271-3.507,3.507,2.271,3.406a11.3,11.3,0,0,0-.886,2.131l-4.069.8v4.961l4.069.8a11.309,11.309,0,0,0,.886,2.131l-2.271,3.406,3.507,3.507,3.406-2.271a11.3,11.3,0,0,0,2.131.885l.8,4.069h4.961l.8-4.069a11.3,11.3,0,0,0,2.131-.886l3.406,2.271,3.507-3.507-2.271-3.406a11.3,11.3,0,0,0,.886-2.131Zm-15.009,3.676a6.164,6.164,0,0,1-6.156-6.156,6.164,6.164,0,0,1,6.156-6.156,6.164,6.164,0,0,1,6.156,6.156A6.164,6.164,0,0,1-340.506,207.516Z" transform="translate(355.515 -186.35)"/></g></g></g></svg>