<svg xmlns="http://www.w3.org/2000/svg" width="43.95" height="54.458" viewBox="0 0 43.95 54.458">
  <g id="Grupo_2662" data-name="Grupo 2662" transform="translate(-840.66 -558.582)">
    <g id="Grupo_2660" data-name="Grupo 2660" transform="translate(840.66 558.582)">
      <path id="Trazado_7391" data-name="Trazado 7391" d="M40.945,75.359H36.383L33.7,73.347V71.464A8.066,8.066,0,0,0,38.491,64.9h.04a2.421,2.421,0,0,0,2.414-2.414v-.8a2.421,2.421,0,0,0-2.414-2.414V59.04a5.633,5.633,0,0,0,2.414-4.6V48.8a.8.8,0,0,0-.8-.8H27.266a7.253,7.253,0,0,0-7.242,7.242v1.609A3.225,3.225,0,0,0,21.415,59.5a2.414,2.414,0,0,0-1.392,2.181v.8A2.421,2.421,0,0,0,22.437,64.9h.04a8.066,8.066,0,0,0,4.788,6.566v1.883l-2.68,2.012H20.023A4.023,4.023,0,0,0,16,79.383V90.648a2.421,2.421,0,0,0,2.414,2.414h24.14a2.421,2.421,0,0,0,2.414-2.414V79.383A4.023,4.023,0,0,0,40.945,75.359ZM39.336,61.68v.8a.8.8,0,0,1-.8.8V60.875A.8.8,0,0,1,39.336,61.68Zm-16.9,1.609a.8.8,0,0,1-.8-.8v-.8a.8.8,0,0,1,.8-.8Zm0-5.633v.579a1.6,1.6,0,0,1-.8-1.384V55.242a5.639,5.639,0,0,1,5.633-5.633h12.07v4.828a4,4,0,0,1-1.03,2.672.758.758,0,0,0-.37-.225L33.4,55.644A.791.791,0,0,0,32.5,56a3.608,3.608,0,0,1-.9,1.022,4.41,4.41,0,0,1-1.835.8,5.923,5.923,0,0,0,.716-2.5.8.8,0,0,0-.729-.874q-.038,0-.076,0h-.8a.809.809,0,0,0-.314.064l-5.633,2.414A.8.8,0,0,0,22.437,57.656Zm1.609,6.437V58.187l4.667-2a2.366,2.366,0,0,1-.426.917,4.06,4.06,0,0,1-.418.362,1.126,1.126,0,0,0-.563,1.231,1.072,1.072,0,0,0,.764.692A5.794,5.794,0,0,0,32.576,58.3a4.868,4.868,0,0,0,.95-.958l3.4.925v5.826a6.437,6.437,0,0,1-12.875,0Zm4.506,10.3a.816.816,0,0,0,.322-.644v-1.77a8.129,8.129,0,0,0,3.219,0v1.77a.816.816,0,0,0,.322.644l2.237,1.682-4.168,2.382-4.168-2.382ZM43.359,90.648a.8.8,0,0,1-.8.8H18.414a.8.8,0,0,1-.8-.8V79.383a2.421,2.421,0,0,1,2.414-2.414h4.611l5.448,3.114a.84.84,0,0,0,.8,0l5.448-3.114h4.611a2.421,2.421,0,0,1,2.414,2.414Z" transform="translate(-16 -48)" fill="#151a6a"/>
      <path id="Trazado_7392" data-name="Trazado 7392" d="M53.633,384H48.8a.8.8,0,0,0-.8.8v4.828a.8.8,0,0,0,.358.67l2.414,1.609a.8.8,0,0,0,.893,0l2.414-1.609a.8.8,0,0,0,.358-.67V384.8A.8.8,0,0,0,53.633,384Zm-.8,5.2-1.609,1.074L49.609,389.2v-3.593h3.219Z" transform="translate(-44.781 -350.204)" fill="#151a6a"/>
    </g>
    <g id="Grupo_2663" data-name="Grupo 2663" transform="translate(0.512 -2.488)">
      <circle id="Elipse_124" data-name="Elipse 124" cx="14.733" cy="14.733" r="14.733" transform="translate(854.632 586.061)" fill="#c4a2fc"/>
      <g id="Grupo_2659" data-name="Grupo 2659" transform="translate(863.605 590.918)">
        <path id="Trazado_7394" data-name="Trazado 7394" d="M238.33,401.171a5.836,5.836,0,0,0-5.417.97,5.732,5.732,0,0,0-2.17,4.506.823.823,0,0,0,.823.823h3.292a.823.823,0,0,0,.823-.823.823.823,0,0,1,.31-.645.839.839,0,0,1,.757-.147.788.788,0,0,1,.558.6.835.835,0,0,1-.382.905,5.824,5.824,0,0,0-2.89,5.053,2.469,2.469,0,1,0,4.938-.063h0a.91.91,0,0,1,.487-.752,5.822,5.822,0,0,0,2.437-7A5.649,5.649,0,0,0,238.33,401.171Zm.285,9.008a2.559,2.559,0,0,0-1.288,2.228.823.823,0,0,1-.823.823.84.84,0,0,1-.824-.856c0-.01,0-.02,0-.03a4.165,4.165,0,0,1,2.089-3.577,2.475,2.475,0,0,0,1.152-2.644,2.422,2.422,0,0,0-1.775-1.864,2.656,2.656,0,0,0-.651-.082,2.476,2.476,0,0,0-2.322,1.646h-1.7a4.1,4.1,0,0,1,1.468-2.4,4.181,4.181,0,0,1,3.891-.687,3.992,3.992,0,0,1,2.521,2.412,4.174,4.174,0,0,1-1.737,5.027Z" transform="translate(-230.742 -400.886)" fill="#fff"/>
        <path id="Trazado_7395" data-name="Trazado 7395" d="M259.8,520.541a2.469,2.469,0,1,0,2.469,2.469A2.469,2.469,0,0,0,259.8,520.541Zm0,3.292a.823.823,0,1,1,.823-.823A.823.823,0,0,1,259.8,523.833Z" transform="translate(-254.042 -505.727)" fill="#fff"/>
      </g>
    </g>
  </g>
</svg>
