<svg xmlns="http://www.w3.org/2000/svg" width="51.925" height="45.426" viewBox="0 0 51.925 45.426"><defs><style>.a{fill:#151a6a;}.b{fill:#fff;}.c{fill:#1da8ff;}</style></defs><g transform="translate(-823.763 -450.243)"><g transform="translate(823.763 450.243)"><path class="a" d="M38.163,61.987H4.887A4.893,4.893,0,0,1,0,57.1V28.887A4.893,4.893,0,0,1,4.887,24H38.163a4.893,4.893,0,0,1,4.887,4.887V57.1A4.893,4.893,0,0,1,38.163,61.987ZM4.887,25.456a3.436,3.436,0,0,0-3.432,3.432V57.1a3.436,3.436,0,0,0,3.432,3.432H38.163A3.436,3.436,0,0,0,41.594,57.1V28.887a3.436,3.436,0,0,0-3.432-3.432Z" transform="translate(0 -24)"/><path class="a" d="M245.99,269.89H234.552a.728.728,0,0,1,0-1.456H245.99a.728.728,0,0,1,0,1.456Z" transform="translate(-209.509 -243.016)"/><path class="a" d="M245.99,320.5H234.552a.728.728,0,0,1,0-1.456H245.99a.728.728,0,0,1,0,1.456Z" transform="translate(-209.509 -288.363)"/><path class="a" d="M245.99,168.671H234.552a.728.728,0,1,1,0-1.456H245.99a.728.728,0,0,1,0,1.456Z" transform="translate(-209.509 -152.323)"/><path class="a" d="M245.99,219.28H234.552a.728.728,0,0,1,0-1.456H245.99a.728.728,0,0,1,0,1.456Z" transform="translate(-209.509 -197.669)"/><path class="a" d="M42.322,105.186H.728a.728.728,0,0,1,0-1.456H42.322a.728.728,0,1,1,0,1.456Z" transform="translate(0 -95.439)"/><path class="a" d="M81.394,53.749a2.265,2.265,0,1,1,2.265-2.265A2.268,2.268,0,0,1,81.394,53.749Zm0-3.074a.809.809,0,1,0,.809.809A.81.81,0,0,0,81.394,50.675Z" transform="translate(-70.901 -46.597)"/><path class="a" d="M30.96,53.749a2.265,2.265,0,1,1,2.265-2.265A2.268,2.268,0,0,1,30.96,53.749Zm0-3.074a.809.809,0,1,0,.81.809A.81.81,0,0,0,30.96,50.675Z" transform="translate(-25.711 -46.597)"/><path class="a" d="M131.831,53.749a2.265,2.265,0,1,1,2.265-2.265A2.267,2.267,0,0,1,131.831,53.749Zm0-3.074a.809.809,0,1,0,.81.809A.81.81,0,0,0,131.831,50.675Z" transform="translate(-116.093 -46.597)"/><path class="a" d="M67.934,184.459H54.728a.728.728,0,0,1-.728-.728V167.943a.728.728,0,0,1,.728-.728H67.934a.728.728,0,0,1,.728.728v15.788A.728.728,0,0,1,67.934,184.459ZM55.456,183h11.75V168.671H55.456Z" transform="translate(-48.385 -152.323)"/></g><g transform="translate(845.288 467.264)"><path class="b" d="M245.01,201.735a14.981,14.981,0,1,0-14.5,26.217,2.493,2.493,0,0,0,3.393-.976,2.441,2.441,0,0,0,.242-1.778,2.5,2.5,0,0,1,3.649-2.728l2.571,1.422a8.326,8.326,0,0,0,11.311-3.254C255.234,214.2,252.249,205.739,245.01,201.735Z" transform="translate(-222.775 -199.86)"/><path class="c" d="M245.01,201.735a14.981,14.981,0,1,0-14.5,26.217,2.493,2.493,0,0,0,3.393-.976,2.441,2.441,0,0,0,.242-1.778,2.5,2.5,0,0,1,3.649-2.728l2.571,1.422a8.326,8.326,0,0,0,11.311-3.254C255.234,214.2,252.249,205.739,245.01,201.735Zm-15.262,8.677a2.5,2.5,0,1,1,3.393-.976A2.494,2.494,0,0,1,229.747,210.412ZM237.34,207a2.5,2.5,0,1,1,3.393-.976A2.493,2.493,0,0,1,237.34,207Zm7.282,4.029a2.5,2.5,0,1,1,3.393-.976A2.493,2.493,0,0,1,244.622,211.032Zm1.147,8.243a2.5,2.5,0,1,1,3.393-.976A2.493,2.493,0,0,1,245.769,219.275Z" transform="translate(-222.775 -199.86)"/></g></g></svg>