<svg xmlns="http://www.w3.org/2000/svg" width="49.054" height="44.836" viewBox="0 0 49.054 44.836"><defs><style>.a{fill:#151a6a;}.b{fill:#255fb2;}.c{fill:#fff;}</style></defs><g transform="translate(-40.667 -3.961)"><g transform="translate(40.667 3.961)"><path class="a" d="M42.667,36.079V4.2a4.2,4.2,0,0,1,4.2-4.2H72.034a4.2,4.2,0,0,1,4.2,4.2V36.079a4.2,4.2,0,0,1-4.2,4.2H46.862A4.2,4.2,0,0,1,42.667,36.079Zm4.2-34.4A2.52,2.52,0,0,0,44.345,4.2V36.079A2.52,2.52,0,0,0,46.862,38.6H72.034a2.52,2.52,0,0,0,2.517-2.517V4.2a2.52,2.52,0,0,0-2.517-2.517Z" transform="translate(-42.667)"/><path class="a" d="M106.667,152.459a.839.839,0,0,1,.839-.839h3.356a.839.839,0,1,1,0,1.678h-3.356A.839.839,0,0,1,106.667,152.459Z" transform="translate(-101.633 -139.693)"/><path class="a" d="M106.667,88.459a.839.839,0,0,1,.839-.839h3.356a.839.839,0,1,1,0,1.678h-3.356A.839.839,0,0,1,106.667,88.459Z" transform="translate(-101.633 -80.728)"/><path class="a" d="M106.667,216.459a.839.839,0,0,1,.839-.839h3.356a.839.839,0,1,1,0,1.678h-3.356A.839.839,0,0,1,106.667,216.459Z" transform="translate(-101.633 -198.659)"/><path class="a" d="M106.667,280.459a.839.839,0,0,1,.839-.839h3.356a.839.839,0,1,1,0,1.678h-3.356A.839.839,0,0,1,106.667,280.459Z" transform="translate(-101.633 -257.625)"/><path class="a" d="M106.667,344.459a.839.839,0,0,1,.839-.839h21.815a.839.839,0,0,1,0,1.678H107.506A.839.839,0,0,1,106.667,344.459Z" transform="translate(-101.633 -316.59)"/><path class="a" d="M106.667,408.459a.839.839,0,0,1,.839-.839h21.815a.839.839,0,0,1,0,1.678H107.506A.839.839,0,0,1,106.667,408.459Z" transform="translate(-101.633 -375.556)"/><path class="a" d="M192,96.011a8.391,8.391,0,1,1,8.391,8.39A8.4,8.4,0,0,1,192,96.011Zm1.678,0a6.712,6.712,0,1,0,6.712-6.712A6.719,6.719,0,0,0,193.678,96.011Z" transform="translate(-180.253 -80.728)"/><path class="a" d="M293.585,101.944l-5.34-5.34a.845.845,0,0,1-.245-.594V88.459a.839.839,0,1,1,1.678,0v7.2l5.095,5.095a.84.84,0,0,1-1.188,1.186Z" transform="translate(-268.702 -80.728)"/></g><g transform="translate(58.446 17.522)"><g transform="translate(0 3.787)"><path class="b" d="M239.28,259.881V247.053h-.916A13.744,13.744,0,1,0,252.107,260.8v-.916Z" transform="translate(-224.62 -247.053)"/></g><g transform="translate(14.624 1.99)"><path class="c" d="M394.544,226.287h-.916v14.66h14.66v-.916A13.759,13.759,0,0,0,394.544,226.287Z" transform="translate(-393.628 -226.287)"/></g><g transform="translate(16.615)"><path class="b" d="M417.544,203.287h-.916v14.66h14.66v-.916A13.759,13.759,0,0,0,417.544,203.287Z" transform="translate(-416.628 -203.287)"/></g></g></g></svg>