<svg xmlns="http://www.w3.org/2000/svg" width="24.484" height="26.661" viewBox="0 0 24.484 26.661"><defs><style>.a{fill:#151a6a;}.b{fill:#c4a2fc;}</style></defs><g transform="translate(-1 -1)"><g transform="translate(1 1)"><path class="a" d="M21.285,3.113H17.059V2.268A1.268,1.268,0,0,0,15.791,1H7.339A1.268,1.268,0,0,0,6.071,2.268v.845H1.845A.845.845,0,0,0,1,3.958V15.791a.845.845,0,0,0,.845.845H6.071v.845a1.268,1.268,0,0,0,1.268,1.268h8.452a1.268,1.268,0,0,0,1.268-1.268v-.845h4.226a.845.845,0,0,0,.845-.845V3.958A.845.845,0,0,0,21.285,3.113ZM17.059,13.256h1.479a.211.211,0,1,1,0,.423H17.059Zm-10.988.423H4.592a.211.211,0,1,1,0-.423H6.071ZM1.845,15.791V3.958H6.071V5.226H3.958a.423.423,0,0,0,0,.845H6.071v.845H4.8a.423.423,0,0,0,0,.845H6.071V12.41H4.592a1.057,1.057,0,1,0,0,2.113H6.071v1.268Zm14.369,1.69a.423.423,0,0,1-.423.423H7.339a.423.423,0,0,1-.423-.423V2.268a.423.423,0,0,1,.423-.423h8.452a.423.423,0,0,1,.423.423Zm.845-1.69V14.523h1.479a1.057,1.057,0,1,0,0-2.113H17.059V7.762h1.268a.423.423,0,1,0,0-.845H17.059V6.071h2.113a.423.423,0,1,0,0-.845H17.059V3.958h4.226V15.791Z" transform="translate(-1 -1)"/><path class="a" d="M24.339,8H18.423a.423.423,0,0,0,0,.845h5.916a.423.423,0,0,0,0-.845Z" transform="translate(-10.816 -5.042)"/><path class="a" d="M23.649,30H20.268a1.268,1.268,0,0,0,0,2.536h3.381a1.268,1.268,0,1,0,0-2.536Zm0,1.69H20.268a.423.423,0,1,1,0-.845h3.381a.423.423,0,1,1,0,.845Z" transform="translate(-11.393 -17.744)"/><path class="a" d="M25.071,12.423A.423.423,0,0,0,24.649,12H20.423a.423.423,0,0,0,0,.845h4.226A.423.423,0,0,0,25.071,12.423Z" transform="translate(-11.971 -7.351)"/><path class="a" d="M24.958,20H22.423a.423.423,0,1,0,0,.845h2.536a.423.423,0,1,0,0-.845Z" transform="translate(-13.125 -11.971)"/><path class="a" d="M24.958,24H22.423a.423.423,0,1,0,0,.845h2.536a.423.423,0,0,0,0-.845Z" transform="translate(-13.125 -14.28)"/></g><path class="b" d="M39.339,29.1H32.254a.322.322,0,0,1-.319-.362l.276-2.21a.309.309,0,0,0-.1-.278A5.681,5.681,0,0,1,30,21.824v-.043a1.618,1.618,0,0,1,.782-1.381l.829-.5V14.288A1.288,1.288,0,0,1,32.967,13a1.317,1.317,0,0,1,1.22,1.341v2.626l4.619,1.848a2.885,2.885,0,0,1,1.822,2.691v1.025a6.161,6.161,0,0,1-1.192,3.654.333.333,0,0,0-.067.237l.29,2.319a.322.322,0,0,1-.319.359Z" transform="matrix(0.914, -0.407, 0.407, 0.914, -23.468, 13.277)"/></g></svg>