<svg xmlns="http://www.w3.org/2000/svg" width="64.269" height="68.156" viewBox="0 0 64.269 68.156"><defs><style>.a{fill:#151a6a;}.b{fill:#c4a2fc;}</style></defs><g transform="translate(-1 -1.5)"><path class="a" d="M21.877,37.254A17.877,17.877,0,1,0,4,19.377,17.877,17.877,0,0,0,21.877,37.254Zm0-33.519A15.642,15.642,0,1,1,6.235,19.377,15.642,15.642,0,0,1,21.877,3.735Z" transform="translate(0.352)"/><path class="a" d="M41.166,39.523l-11.535-3.85a2.535,2.535,0,0,0-1.061-.172H15.888a2.608,2.608,0,0,0-1.061.172L3.292,39.523A3.352,3.352,0,0,0,1,42.7v7.328a3.352,3.352,0,0,0,3.352,3.352H40.106a3.352,3.352,0,0,0,3.352-3.352V42.7a3.352,3.352,0,0,0-2.292-3.174ZM26.5,37.735l-4.275,4.988-4.275-4.988ZM3.235,50.025V42.7A1.117,1.117,0,0,1,4,41.637l11.166-3.722,5.946,6.937v6.29H4.352A1.117,1.117,0,0,1,3.235,50.025Zm37.988,0a1.117,1.117,0,0,1-1.117,1.117H23.346v-6.29l5.946-6.937,11.166,3.722a1.117,1.117,0,0,1,.764,1.06Z" transform="translate(0 3.988)"/><g transform="translate(29.315 26.784)"><circle class="b" cx="7.662" cy="7.662" r="7.662" transform="translate(0.99 0.288)"/><ellipse class="b" cx="8.045" cy="7.662" rx="8.045" ry="7.662" transform="translate(19.379 0.288)"/><path class="b" d="M57.509,32.5h-11.9a2.587,2.587,0,0,0-2.6,2.844L45.269,55.89a2.591,2.591,0,0,0,2.6,2.293h7.38a2.592,2.592,0,0,0,2.6-2.293l2.257-20.546a2.587,2.587,0,0,0-2.6-2.844Z" transform="translate(-24.164 -15.311)"/><path class="b" d="M35.509,32.5h-11.9a2.587,2.587,0,0,0-2.6,2.844L23.269,55.89a2.592,2.592,0,0,0,2.6,2.293h7.38a2.592,2.592,0,0,0,2.6-2.293l2.257-20.546a2.587,2.587,0,0,0-2.6-2.844Z" transform="translate(-20.998 -15.311)"/></g></g></svg>